<?xml version="1.0" encoding="UTF-8"?>
<svg xmlns="http://www.w3.org/2000/svg" viewBox="0 0 510 680.89394">
  <g id="uuid-77b7bd6f-bbf3-4380-8f7b-de931ada86bb" data-name="Layer_1">
    <g>
      <g>
        <path d="M35.48132,338.89394c-19.59616,0-35.48132-21.60568-35.48132-41.20006V0h466.68472c19.59614,0,42.64236,15.88517,42.64236,35.48132v303.41261H35.48132Z" fill="#f2f2f2"/>
        <g>
          <path d="M35.48132,142.89394C15.88516,142.89394,0,121.30385,0,101.70947V0h132.16792v142.89394H35.48132Z" fill="#c5d9d7"/>
          <rect x="132.16792" width="2.3666" height="142.89394" fill="#cccecf"/>
          <g>
            <g>
              <path d="M44.77247,54.92452c-2.21237-1.15328-4.27191-1.83105-6.12121-2.01432-1.22165-.12115-3.6189-.12115-4.84025,0-2.64988.26262-5.20757,1.16082-7.60228,2.66955-2.8302,1.78315-4.57201,5.18015-4.54574,8.86525.00788,1.10925.0232,2.13467.03335,2.81326.00572.38294.00974.6511.00974.75434v14.40634c0,1.30912,1.30523,2.36334,2.38602,2.36334h.09178c1.10396,0,2.00216-1.06015,2.00216-2.36334v-18.42345c0-.32339.17595-.6212.45911-.77738l.28248-.1558c.28383-.15652.63091-.14591.90458.028.27383.17387.4311.4833.41002.80697-.01161.17786-.01693.32537-.01693.46415v50.07204c0,2.0472,1.43623,3.71271,3.20151,3.71271h.237c1.76531,0,3.20155-1.66551,3.20155-3.71271v-23.30594c0-.63654.50456-1.15448,1.12492-1.15448h.23699c.62024,0,1.1248.51794,1.1248,1.15448v23.30594c0,2.0472,1.43624,3.71271,3.20155,3.71271h.23715c1.76528,0,3.20153-1.66551,3.20153-3.71271v-50.07204c0-.13176-.00494-.27321-.0156-.44496-.02055-.33095.14511-.64581.42949-.81639.2845-.17069.64036-.16834.92242.00566l.28104.17327c.26223.16164.42188.44766.42188.75573v18.11749c0,1.45026,1.0045,2.63006,2.23919,2.63006h.09178c1.08079,0,2.38606-1.05422,2.38606-2.36334v-14.40634c0-.20955-.01871-.92766-.10764-3.15871-.17276-4.32774-2.42141-8.13248-5.86847-9.92938Z" fill="#fff" opacity=".3"/>
              <path d="M40.78104,44.08696c-.07841,0-.1579-.01234-.23577-.03795-.17363-.05701-.31309-.17375-.40321-.32119-.00168-.00274-.00283-.00575-.0045-.0085-.01897-.03195-.03625-.06482-.05039-.09933-.00411-.00995-.00648-.02049-.01013-.03059-.01012-.02811-.02028-.05613-.02706-.08546-.00492-.02113-.00672-.0429-.00982-.06446-.00274-.01931-.00708-.03819-.0083-.05781-.00278-.04277-.00204-.086.00267-.12936.03174-.32182.03087-1.5523-.55699-1.71024-.45643-.12258-1.01156-.13039-1.59938-.13867-.93952-.0132-2.00457-.02812-2.8818-.56805-.48298-.29731-.78855-.62329-.98167-.91966-.61503.32859-1.53761,1.09506-1.7685,2.78852l.06708.36736c.00855.03596.01418.05683.01469.05871.09229.33226-.05321.68571-.35334.8557-.30022.17006-.67716.11478-.91443-.13517-.0388-.0388-.09552-.08077-.14858-.11238.07641.16286.23822.36701.34984.41661.26434.08077.45213.29632.50645.56742.03694.18178.94219,4.43215,4.27538,4.43215.04172,0,.08348-.00067.12601-.00199.00788-.00027.01588-.00042.02375-.00042.00788,0,.01588.00014.02376.00042,3.43681.10869,4.36404-4.2461,4.40169-4.4315.05507-.2699.25355-.48946.51709-.56988.10351-.0468.26303-.25002.33908-.4126-.05963.03582-.1206.08263-.14872.11217-.0017.00179-.00377.00306-.00547.00486-.14147.14787-.33635.23128-.53942.23128Z" fill="#fff" opacity=".3"/>
              <path d="M27.41609,42.58892c.12486.5516.51283,1.09866.96623,1.41168.52217,2.05414,2.28252,5.3795,5.81789,5.28427.05096.0014.10072.00207.15086.00207,3.43989-.00033,5.15236-3.26174,5.66708-5.28634.45323-.31302.84124-.86002.96607-1.41154.11196-.49465-.00186-.95748-.30824-1.29142-.01452.20073-.03194.32599-.03546.35008-.05923.40348-.42924.6857-.83431.63642-.14352-.01447-.33093.02282-.37226.06235-.03019.0516-.0665.09749-.10631.13911.0017-.00179.00377-.00306.00547-.00486.02813-.02955.08911-.07636.14873-.11217-.07606.16258-.23558.3658-.33908.4126-.26355.08043-.46202.29998-.51709.56988-.03765.1854-.96488,4.54019-4.40171,4.4315-.00787-.00027-.01587-.00042-.02375-.00042-.00787,0-.01587.00014-.02375.00042-.04254.00132-.08429.00199-.12601.00199-3.33319,0-4.23844-4.25038-4.27538-4.43215-.05431-.2711-.24211-.48665-.50645-.56742-.11164-.0496-.27344-.25375-.34984-.41661.05306.03161.10976.07358.14856.11238.23728.24995.61422.30523.91444.13517.30013-.16999.44563-.52344.35334-.8557-.00051-.00189-.00614-.02275-.01469-.05871l.0035.0191c.05456.2993-.07684.60196-.33266.76654-.25567.16452-.58581.15859-.83537-.01507-.10537-.07204-.25969-.14846-.35478-.17859-.1878.08095-.40361.08307-.59621-.00021-.24905-.10771-.42055-.34132-.44882-.61114-.00278-.02618-.01648-.16794-.02293-.39372-.31284.33455-.43006.80135-.31707,1.30051Z" fill="#555"/>
              <path d="M29.57753,38.818c.02813-.04379.05684-.0862.08576-.12814h-.04045c-.01526.04273-.03117.08546-.04531.12814Z" fill="#555"/>
              <path d="M28.69442,40.8201c-.02588-.68415.05334-1.5298.44055-2.29557.10805.10084.2575.16532.44861.16532h.03926c.1906-.53254.4707-1.06473.88421-1.52177.83041-.91765,2.07298-1.38296,3.69315-1.38296,1.74331,0,3.04854.48525,3.87938,1.44225.64663.74492.92778,1.67834,1.04197,2.47607-.26011-.45436-.65758-.82401-1.2471-.98235-.63757-.17132-1.31394-.18079-1.96804-.18998-.81801-.01147-1.59068-.02236-2.1154-.34532-.4667-.28718-.57301-.54942-.59527-.62811.02414-.22907-.06444-.41188-.2353-.57299-.17725-.16706-.42788-.18568-.66703-.13779-.08929.01797-1.59482.34166-2.63012,1.84295h1.19729c-.03923.03676-.07909.07305-.11424.11247-.83714.93925-.50389,2.57152-.4259,2.89919l-.06708-.36736c.23089-1.69346,1.15347-2.45993,1.7685-2.78852.19312.29637.4987.62235.98166.91966.87725.53993,1.94229.55486,2.88182.56805.58782.00827,1.14295.01609,1.59938.13867.58786.15794.58873,1.38842.55699,1.71024.0045-.04144.01244-.08297.02414-.12415.00219-.00772.10923-.40503.138-.93351h1.54248c.29562.02917.58791.14919.84947.38878.02896.02653.05404.05577.08017.08428.06443-.89078.07103-3.28066-1.45346-5.04542-1.12878-1.30685-2.81859-1.9695-5.0223-1.9695-2.06778,0-3.6878.63469-4.81527,1.8864-1.57664,1.75044-1.67863,4.17608-1.65178,5.11929.0236-.02521.04565-.05145.07146-.0751.2733-.25036.58062-.37142.8898-.39321Z" fill="#555"/>
              <path d="M28.20491,42.29328c.1926.08328.40841.08116.59621.00021.09509.03013.24941.10656.35478.17859.24956.17366.5797.17959.83537.01507.25582-.16459.38722-.46724.33266-.76654l-.0035-.0191c-.07799-.32767-.41124-1.95994.4259-2.89919.03515-.03943.07501-.07572.11424-.11247h-1.19729c-.02892.04194-.05762.08436-.08576.12814.01414-.04269.03004-.08542.04531-.12814h-.03926c-.19111,0-.34056-.06448-.44861-.16532-.3872.76577-.46643,1.61142-.44055,2.29557-.30919.0218-.6165.14286-.8898.39321-.02581.02365-.04786.04989-.07146.0751.00645.22579.02016.36754.02293.39372.02828.26982.19977.50344.44882.61114Z" fill="#555"/>
              <path d="M50.53129,81.04887v-14.40633c0-.33285-.03561-1.38923-.10895-3.2295-.19807-4.96194-2.81204-9.34281-6.82188-11.433-2.41431-1.2586-4.69112-2.00105-6.7669-2.20679-1.3341-.13218-3.85656-.13218-5.19036,0-2.92664.29003-5.74389,1.27724-8.37377,2.93418-3.34599,2.10807-5.40534,6.08551-5.37482,10.38018.008,1.11619.02347,2.14581.0336,2.82714.00547.36945.00948.6282.00948.72779v14.40633c0,2.36889,2.19718,4.13891,4.1616,4.13891h.09178c.84935,0,1.63416-.30864,2.26585-.82908v28.7047c0,3.02626,2.23266,5.48827,4.97709,5.48827h.237c1.93989,0,3.62422-1.23031,4.4449-3.02025.82068,1.78993,2.50502,3.02025,4.44492,3.02025h.23715c2.74443,0,4.97709-2.46202,4.97709-5.48827v-28.83889c.68676.6026,1.5572.96327,2.50286.96327h.09178c1.96442,0,4.16159-1.77002,4.16159-4.13891ZM48.75576,81.04887c0,1.30913-1.30527,2.36335-2.38606,2.36335h-.09178c-1.23469,0-2.23919-1.1798-2.23919-2.63006v-18.11749c0-.30807-.15965-.59409-.42189-.75573l-.28103-.17327c-.28206-.174-.63793-.17634-.92242-.00566-.28438.17058-.45004.48542-.42949.81639.01067.17175.0156.3132.0156.44496v50.07204c0,2.0472-1.43624,3.71271-3.20153,3.71271h-.23715c-1.76532,0-3.20155-1.66551-3.20155-3.71271v-23.30594c0-.63654-.50456-1.15448-1.1248-1.15448h-.237c-.62035,0-1.12491.51794-1.12491,1.15448v23.30594c0,2.0472-1.43624,3.71271-3.20155,3.71271h-.237c-1.76528,0-3.20153-1.66551-3.20153-3.71271v-50.07204c0-.13879.00533-.28629.01694-.46415.02108-.32366-.13619-.6331-.41002-.80697-.27367-.17391-.62075-.18452-.90458-.02801l-.28249.15582c-.28316.15618-.4591.45399-.4591.77738v18.42343c0,1.3032-.89819,2.36335-2.00216,2.36335h-.09178c-1.08079,0-2.38604-1.05422-2.38604-2.36335v-14.40633c0-.10325-.00401-.3714-.00973-.75434-.01016-.67859-.02549-1.70401-.03335-2.81326-.02627-3.6851,1.71553-7.0821,4.54574-8.86525,2.3947-1.50874,4.95238-2.40693,7.60228-2.66955,1.22135-.12115,3.6186-.12115,4.84025,0,1.8493.18327,3.90883.86104,6.12121,2.01432,3.44706,1.7969,5.69572,5.60162,5.86847,9.92938.08894,2.23105.10764,2.94915.10764,3.15871v14.40633Z" fill="#555"/>
            </g>
            <g>
              <path d="M114.74412,54.92452c-2.21237-1.15328-4.27191-1.83105-6.12121-2.01432-1.22165-.12115-3.6189-.12115-4.84025,0-2.64988.26262-5.20757,1.16082-7.60228,2.66955-2.8302,1.78315-4.57201,5.18015-4.54574,8.86525.00788,1.10925.0232,2.13467.03335,2.81326.00572.38294.00974.6511.00974.75434v14.40634c0,1.30912,1.30523,2.36334,2.38602,2.36334h.09178c1.10396,0,2.00216-1.06015,2.00216-2.36334v-18.42345c0-.32339.17595-.6212.45911-.77738l.28248-.1558c.28383-.15652.63091-.14591.90458.028.27383.17387.4311.4833.41002.80697-.01161.17786-.01693.32537-.01693.46415v50.07204c0,2.0472,1.43623,3.71271,3.20151,3.71271h.237c1.76531,0,3.20155-1.66551,3.20155-3.71271v-23.30594c0-.63654.50456-1.15448,1.12492-1.15448h.23699c.62024,0,1.1248.51794,1.1248,1.15448v23.30594c0,2.0472,1.43624,3.71271,3.20155,3.71271h.23715c1.76528,0,3.20153-1.66551,3.20153-3.71271v-50.07204c0-.13176-.00494-.27321-.0156-.44496-.02055-.33095.14511-.64581.42949-.81639.2845-.17069.64036-.16834.92242.00566l.28104.17327c.26223.16164.42188.44766.42188.75573v18.11749c0,1.45026,1.0045,2.63006,2.23919,2.63006h.09178c1.08079,0,2.38606-1.05422,2.38606-2.36334v-14.40634c0-.20955-.01871-.92766-.10764-3.15871-.17276-4.32774-2.42141-8.13248-5.86847-9.92938Z" fill="#fff" opacity=".3"/>
              <path d="M110.75269,44.08696c-.07841,0-.1579-.01234-.23577-.03795-.17363-.05701-.31309-.17375-.40321-.32119-.00168-.00274-.00283-.00575-.0045-.0085-.01897-.03195-.03625-.06482-.05039-.09933-.00411-.00995-.00648-.02049-.01013-.03059-.01012-.02811-.02028-.05613-.02706-.08546-.00492-.02113-.00672-.0429-.00982-.06446-.00274-.01931-.00708-.03819-.0083-.05781-.00278-.04277-.00204-.086.00267-.12936.03174-.32182.03087-1.5523-.55699-1.71024-.45643-.12258-1.01156-.13039-1.59938-.13867-.93952-.0132-2.00457-.02812-2.8818-.56805-.48298-.29731-.78855-.62329-.98167-.91966-.61503.32859-1.53761,1.09506-1.7685,2.78852l.06708.36736c.00855.03596.01418.05683.01469.05871.09229.33226-.05321.68571-.35334.8557-.30022.17006-.67716.11478-.91443-.13517-.0388-.0388-.09552-.08077-.14858-.11238.07641.16286.23822.36701.34984.41661.26434.08077.45213.29632.50645.56742.03694.18178.94219,4.43215,4.27538,4.43215.04172,0,.08348-.00067.12601-.00199.00788-.00027.01588-.00042.02375-.00042.00788,0,.01588.00014.02376.00042,3.43681.10869,4.36404-4.2461,4.40169-4.4315.05507-.2699.25355-.48946.51709-.56988.10351-.0468.26303-.25002.33908-.4126-.05963.03582-.1206.08263-.14872.11217-.0017.00179-.00377.00306-.00547.00486-.14147.14787-.33635.23128-.53942.23128Z" fill="#fff" opacity=".3"/>
              <path d="M97.38774,42.58892c.12486.5516.51283,1.09866.96623,1.41168.52217,2.05414,2.28252,5.3795,5.81789,5.28427.05096.0014.10072.00207.15086.00207,3.43989-.00033,5.15236-3.26174,5.66708-5.28634.45323-.31302.84124-.86002.96607-1.41154.11196-.49465-.00186-.95748-.30824-1.29142-.01452.20073-.03194.32599-.03546.35008-.05923.40348-.42924.6857-.83431.63642-.14352-.01447-.33093.02282-.37226.06235-.03019.0516-.0665.09749-.10631.13911.0017-.00179.00377-.00306.00547-.00486.02813-.02955.08911-.07636.14873-.11217-.07606.16258-.23558.3658-.33908.4126-.26355.08043-.46202.29998-.51709.56988-.03765.1854-.96488,4.54019-4.40171,4.4315-.00787-.00027-.01587-.00042-.02375-.00042-.00787,0-.01587.00014-.02375.00042-.04254.00132-.08429.00199-.12601.00199-3.33319,0-4.23844-4.25038-4.27538-4.43215-.05431-.2711-.24211-.48665-.50645-.56742-.11164-.0496-.27344-.25375-.34984-.41661.05306.03161.10976.07358.14856.11238.23728.24995.61422.30523.91444.13517.30013-.16999.44563-.52344.35334-.8557-.00051-.00189-.00614-.02275-.01469-.05871l.0035.0191c.05456.2993-.07684.60196-.33266.76654-.25567.16452-.58581.15859-.83537-.01507-.10537-.07204-.25969-.14846-.35478-.17859-.1878.08095-.40361.08307-.59621-.00021-.24905-.10771-.42055-.34132-.44882-.61114-.00278-.02618-.01648-.16794-.02293-.39372-.31284.33455-.43006.80135-.31707,1.30051Z" fill="#555"/>
              <path d="M99.54918,38.818c.02813-.04379.05684-.0862.08576-.12814h-.04045c-.01526.04273-.03117.08546-.04531.12814Z" fill="#555"/>
              <path d="M98.66607,40.8201c-.02588-.68415.05334-1.5298.44055-2.29557.10805.10084.2575.16532.44861.16532h.03926c.1906-.53254.4707-1.06473.88421-1.52177.83041-.91765,2.07298-1.38296,3.69315-1.38296,1.74331,0,3.04854.48525,3.87938,1.44225.64663.74492.92778,1.67834,1.04197,2.47607-.26011-.45436-.65758-.82401-1.2471-.98235-.63757-.17132-1.31394-.18079-1.96804-.18998-.81801-.01147-1.59068-.02236-2.1154-.34532-.4667-.28718-.57301-.54942-.59527-.62811.02414-.22907-.06444-.41188-.2353-.57299-.17725-.16706-.42788-.18568-.66703-.13779-.08929.01797-1.59482.34166-2.63012,1.84295h1.19729c-.03923.03676-.07909.07305-.11424.11247-.83714.93925-.50389,2.57152-.4259,2.89919l-.06708-.36736c.23089-1.69346,1.15347-2.45993,1.7685-2.78852.19312.29637.4987.62235.98166.91966.87725.53993,1.94229.55486,2.88182.56805.58782.00827,1.14295.01609,1.59938.13867.58786.15794.58873,1.38842.55699,1.71024.0045-.04144.01244-.08297.02414-.12415.00219-.00772.10923-.40503.138-.93351h1.54248c.29562.02917.58791.14919.84947.38878.02896.02653.05404.05577.08017.08428.06443-.89078.07103-3.28066-1.45346-5.04542-1.12878-1.30685-2.81859-1.9695-5.0223-1.9695-2.06778,0-3.6878.63469-4.81527,1.8864-1.57664,1.75044-1.67863,4.17608-1.65178,5.11929.0236-.02521.04565-.05145.07146-.0751.2733-.25036.58062-.37142.8898-.39321Z" fill="#555"/>
              <path d="M98.17656,42.29328c.1926.08328.40841.08116.59621.00021.09509.03013.24941.10656.35478.17859.24956.17366.5797.17959.83537.01507.25582-.16459.38722-.46724.33266-.76654l-.0035-.0191c-.07799-.32767-.41124-1.95994.4259-2.89919.03515-.03943.07501-.07572.11424-.11247h-1.19729c-.02892.04194-.05762.08436-.08576.12814.01414-.04269.03004-.08542.04531-.12814h-.03926c-.19111,0-.34056-.06448-.44861-.16532-.3872.76577-.46643,1.61142-.44055,2.29557-.30919.0218-.6165.14286-.8898.39321-.02581.02365-.04786.04989-.07146.0751.00645.22579.02016.36754.02293.39372.02828.26982.19977.50344.44882.61114Z" fill="#555"/>
              <path d="M120.50294,81.04887v-14.40633c0-.33285-.03561-1.38923-.10895-3.2295-.19807-4.96194-2.81204-9.34281-6.82188-11.433-2.41431-1.2586-4.69112-2.00105-6.7669-2.20679-1.3341-.13218-3.85656-.13218-5.19036,0-2.92664.29003-5.74389,1.27724-8.37377,2.93418-3.34599,2.10807-5.40534,6.08551-5.37482,10.38018.008,1.11619.02347,2.14581.0336,2.82714.00547.36945.00948.6282.00948.72779v14.40633c0,2.36889,2.19718,4.13891,4.1616,4.13891h.09178c.84935,0,1.63416-.30864,2.26585-.82908v28.7047c0,3.02626,2.23266,5.48827,4.97709,5.48827h.237c1.93989,0,3.62422-1.23031,4.4449-3.02025.82068,1.78993,2.50502,3.02025,4.44492,3.02025h.23715c2.74443,0,4.97709-2.46202,4.97709-5.48827v-28.83889c.68676.6026,1.5572.96327,2.50286.96327h.09178c1.96442,0,4.16159-1.77002,4.16159-4.13891ZM118.72742,81.04887c0,1.30913-1.30527,2.36335-2.38606,2.36335h-.09178c-1.23469,0-2.23919-1.1798-2.23919-2.63006v-18.11749c0-.30807-.15965-.59409-.42189-.75573l-.28103-.17327c-.28206-.174-.63793-.17634-.92242-.00566-.28438.17058-.45004.48542-.42949.81639.01067.17175.0156.3132.0156.44496v50.07204c0,2.0472-1.43624,3.71271-3.20153,3.71271h-.23715c-1.76532,0-3.20155-1.66551-3.20155-3.71271v-23.30594c0-.63654-.50456-1.15448-1.1248-1.15448h-.237c-.62035,0-1.12491.51794-1.12491,1.15448v23.30594c0,2.0472-1.43624,3.71271-3.20155,3.71271h-.237c-1.76528,0-3.20153-1.66551-3.20153-3.71271v-50.07204c0-.13879.00533-.28629.01694-.46415.02108-.32366-.13619-.6331-.41002-.80697-.27367-.17391-.62075-.18452-.90458-.02801l-.28249.15582c-.28316.15618-.4591.45399-.4591.77738v18.42343c0,1.3032-.89819,2.36335-2.00216,2.36335h-.09178c-1.08079,0-2.38604-1.05422-2.38604-2.36335v-14.40633c0-.10325-.00401-.3714-.00973-.75434-.01016-.67859-.02549-1.70401-.03335-2.81326-.02627-3.6851,1.71553-7.0821,4.54574-8.86525,2.3947-1.50874,4.95238-2.40693,7.60228-2.66955,1.22135-.12115,3.6186-.12115,4.84025,0,1.8493.18327,3.90883.86104,6.12121,2.01432,3.44706,1.7969,5.69572,5.60162,5.86847,9.92938.08894,2.23105.10764,2.94915.10764,3.15871v14.40633Z" fill="#555"/>
            </g>
            <g>
              <path d="M78.71916,62.58959c-2.01285-1.04927-3.88666-1.66592-5.56919-1.83266-1.11148-.11023-3.29254-.11023-4.40375,0-2.41091.23894-4.73794,1.05613-6.91669,2.42881-2.57497,1.62235-4.1597,4.71299-4.1358,8.06577.00717,1.00922.0211,1.94216.03035,2.55956.0052.3484.00886.59238.00886.68631v13.10715c0,1.19106,1.18752,2.15021,2.17085,2.15021h.0835c1.00441,0,1.8216-.96454,1.8216-2.15021v-16.76199c0-.29422.16008-.56518.41771-.70728l.25701-.14175c.25823-.14241.57401-.13275.82301.02548.24913.15819.39222.43972.37305.73419-.01056.16182-.0154.29602-.0154.42229v45.55645c0,1.86258,1.30671,3.37789,2.91279,3.37789h.21563c1.60611,0,2.91283-1.51531,2.91283-3.37789v-21.20417c0-.57914.45906-1.05037,1.02347-1.05037h.21562c.56431,0,1.02337.47123,1.02337,1.05037v21.20417c0,1.86258,1.30672,3.37789,2.91283,3.37789h.21576c1.60609,0,2.91281-1.51531,2.91281-3.37789v-45.55645c0-.11987-.00449-.24857-.0142-.40483-.0187-.30111.13202-.58757.39076-.74277.25884-.15529.58261-.15316.83924.00515l.2557.15764c.23858.14706.38384.40729.38384.68758v16.48363c0,1.31947.91391,2.39287,2.03725,2.39287h.0835c.98333,0,2.17088-.95915,2.17088-2.15021v-13.10715c0-.19066-.01702-.844-.09794-2.87385-.15718-3.93746-2.20304-7.39908-5.33924-9.03393Z" fill="#fff" opacity=".3"/>
              <path d="M75.08768,52.72938c-.07134,0-.14366-.01123-.21451-.03453-.15797-.05187-.28485-.15808-.36685-.29222-.00152-.00249-.00257-.00523-.0041-.00773-.01726-.02907-.03298-.05898-.04584-.09037-.00374-.00905-.0059-.01864-.00922-.02783-.00921-.02557-.01845-.05107-.02462-.07775-.00448-.01922-.00611-.03903-.00893-.05864-.00249-.01757-.00644-.03474-.00755-.05259-.00252-.03891-.00186-.07825.00243-.11769.02888-.2928.02808-1.41231-.50676-1.55601-.41527-.11153-.92033-.11864-1.45514-.12616-.85479-.01201-1.82379-.02558-2.62192-.51682-.43942-.2705-.71743-.56708-.89314-.83673-.55957.29895-1.39895.99631-1.60902,2.53705l.06103.33423c.00778.03272.0129.0517.01336.05342.08397.3023-.04841.62387-.32147.77853-.27314.15472-.61609.10443-.83196-.12298-.0353-.0353-.08691-.07348-.13518-.10225.06952.14817.21674.33391.31829.37904.2405.07348.41136.26959.46077.51625.03361.16538.85722,4.03245,3.88982,4.03245.03796,0,.07595-.00061.11465-.00181.00717-.00025.01445-.00038.0216-.00038.00717,0,.01445.00013.02162.00038,3.12688.09889,3.97049-3.86318,4.00474-4.03186.05011-.24556.23068-.44532.47046-.51849.09417-.04258.23931-.22747.3085-.37539-.05425.03259-.10973.07518-.13531.10206-.00155.00163-.00343.00279-.00498.00442-.12871.13454-.30602.21043-.49078.21043Z" fill="#fff" opacity=".3"/>
              <path d="M62.928,51.36643c.1136.50185.46659.99958.87909,1.28438.47508,1.86889,2.07668,4.89437,5.29322,4.80772.04637.00127.09164.00188.13725.00188,3.12968-.0003,4.68771-2.96759,5.15601-4.80961.41236-.28479.76537-.78246.87895-1.28424.10187-.45004-.00169-.87113-.28044-1.17496-.01321.18263-.02906.29659-.03226.31851-.05389.36709-.39053.62386-.75907.57903-.13058-.01316-.30108.02076-.33868.05673-.02746.04695-.0605.08869-.09672.12657.00155-.00163.00343-.00279.00498-.00442.02559-.02688.08107-.06947.13532-.10206-.0692.14792-.21433.33281-.3085.37539-.23978.07318-.42035.27293-.47046.51849-.03425.16868-.87786,4.13075-4.00475,4.03186-.00716-.00025-.01443-.00038-.0216-.00038-.00716,0-.01443.00013-.0216.00038-.03871.0012-.07669.00181-.11465.00181-3.0326,0-3.85621-3.86707-3.88982-4.03245-.04941-.24666-.22028-.44277-.46077-.51625-.10157-.04513-.24878-.23086-.31829-.37904.04827.02876.09987.06695.13517.10225.21588.22741.55883.27771.83197.12298.27306-.15466.40544-.47623.32147-.77853-.00046-.00172-.00559-.0207-.01336-.05342l.00318.01738c.04964.27231-.06991.54767-.30266.69741-.23261.14968-.53298.14429-.76004-.01371-.09586-.06554-.23627-.13507-.32278-.16249-.17086.07365-.36721.07558-.54244-.00019-.22659-.098-.38262-.31054-.40835-.55603-.00252-.02382-.01499-.15279-.02087-.35822-.28463.30438-.39128.72908-.28847,1.18322Z" fill="#555"/>
              <path d="M64.89452,47.93558c.02559-.03984.05171-.07843.07802-.11659h-.0368c-.01389.03887-.02836.07775-.04122.11659Z" fill="#555"/>
              <path d="M64.09105,49.75713c-.02355-.62245.04853-1.39184.40082-2.08855.09831.09174.23428.15041.40816.15041h.03572c.17341-.48451.42825-.96871.80447-1.38454.75552-.83489,1.88603-1.25824,3.3601-1.25824,1.58609,0,2.77361.44149,3.52953,1.31218.58832.67774.84411,1.52698.948,2.25278-.23665-.41338-.59828-.7497-1.13463-.89376-.58008-.15587-1.19544-.16449-1.79056-.17285-.74424-.01043-1.44723-.02034-1.92463-.31417-.42462-.26128-.52134-.49987-.54158-.57147.02196-.20841-.05863-.37474-.21408-.52131-.16126-.152-.38929-.16893-.60687-.12536-.08124.01635-1.451.31085-2.39293,1.67675h1.08931c-.03569.03344-.07196.06646-.10394.10233-.76164.85454-.45845,2.33961-.38749,2.63773l-.06103-.33423c.21007-1.54074,1.04945-2.23809,1.60902-2.53705.17571.26964.45372.56623.89313.83673.79814.49124,1.76714.50482,2.62193.51682.53481.00753,1.03987.01464,1.45514.12616.53484.14369.53564,1.26321.50676,1.55601.0041-.03771.01131-.07549.02196-.11295.00199-.00703.09938-.36851.12556-.84933h1.40338c.26896.02654.53489.13574.77286.35372.02634.02414.04916.05074.07294.07668.05862-.81045.06462-2.9848-1.32238-4.59041-1.02699-1.189-2.5644-1.79188-4.56938-1.79188-1.8813,0-3.35523.57746-4.38102,1.71628-1.43445,1.59258-1.52724,3.79947-1.50282,4.65762.02147-.02294.04153-.04681.06502-.06833.24866-.22778.52826-.33792.80956-.35775Z" fill="#555"/>
              <path d="M63.64569,51.09746c.17523.07577.37158.07384.54244.00019.08651.02742.22692.09695.32278.16249.22705.158.52742.16339.76004.01371.23275-.14974.3523-.4251.30266-.69741l-.00318-.01738c-.07096-.29812-.37415-1.78319.38749-2.63773.03198-.03587.06824-.06889.10394-.10233h-1.08931c-.02631.03816-.05243.07675-.07802.11659.01286-.03884.02733-.07771.04122-.11659h-.03572c-.17387,0-.30985-.05867-.40816-.15041-.35229.69671-.42437,1.4661-.40082,2.08855-.2813.01983-.5609.12997-.80956.35775-.02349.02152-.04354.04539-.06502.06833.00587.20542.01834.3344.02087.35822.02573.24549.18176.45803.40835.55603Z" fill="#555"/>
              <path d="M83.95863,86.35799v-13.10714c0-.30284-.0324-1.26395-.09913-2.93826-.18021-4.51446-2.55845-8.50025-6.20667-10.40195-2.19659-1.1451-4.26807-1.82059-6.15665-2.00778-1.21378-.12026-3.50877-.12026-4.72228,0-2.66271.26388-5.2259,1.16206-7.6186,2.66957-3.04425,1.91796-4.91788,5.53671-4.89011,9.44407.00728,1.01553.02135,1.9523.03057,2.57218.00498.33614.00862.57155.00862.66216v13.10714c0,2.15526,1.99903,3.76566,3.7863,3.76566h.0835c.77276,0,1.48679-.2808,2.06151-.75431v26.11606c0,2.75334,2.03131,4.99333,4.52824,4.99333h.21563c1.76494,0,3.29738-1.11936,4.04405-2.74788.74667,1.62851,2.27911,2.74788,4.04407,2.74788h.21576c2.49693,0,4.52824-2.23999,4.52824-4.99333v-26.23815c.62482.54825,1.41677.8764,2.27715.8764h.0835c1.78726,0,3.78629-1.6104,3.78629-3.76566ZM82.34323,86.35799c0,1.19107-1.18756,2.15022-2.17088,2.15022h-.0835c-1.12334,0-2.03725-1.0734-2.03725-2.39287v-16.48363c0-.28029-.14525-.54051-.38385-.68758l-.25568-.15764c-.25662-.15831-.5804-.16044-.83924-.00515-.25873.1552-.40945.44165-.39076.74277.00971.15626.0142.28496.0142.40483v45.55645c0,1.86258-1.30672,3.37789-2.91281,3.37789h-.21576c-1.60612,0-2.91283-1.51531-2.91283-3.37789v-21.20417c0-.57914-.45906-1.05037-1.02337-1.05037h-.21563c-.5644,0-1.02346.47123-1.02346,1.05037v21.20417c0,1.86258-1.30672,3.37789-2.91283,3.37789h-.21563c-1.60609,0-2.91281-1.51531-2.91281-3.37789v-45.55645c0-.12627.00485-.26047.01541-.42229.01918-.29447-.12391-.576-.37305-.73419-.24899-.15822-.56477-.16788-.82301-.02549l-.25702.14176c-.25763.1421-.4177.41305-.4177.70728v16.76198c0,1.18568-.81719,2.15022-1.8216,2.15022h-.0835c-.98333,0-2.17086-.95915-2.17086-2.15022v-13.10714c0-.09393-.00364-.33791-.00885-.68631-.00924-.61739-.02319-1.55034-.03035-2.55956-.0239-3.35277,1.56082-6.44342,4.1358-8.06577,2.17874-1.37268,4.50577-2.18987,6.91669-2.42881,1.1112-.11023,3.29227-.11023,4.40375,0,1.68253.16674,3.55633.78339,5.56919,1.83266,3.1362,1.63485,5.18207,5.09646,5.33924,9.03393.08092,2.02985.09794,2.68319.09794,2.87385v13.10714Z" fill="#555"/>
            </g>
          </g>
        </g>
      </g>
      <text transform="translate(167.74551 34.49141)" font-family="OpenSans-Bold, &apos;Open Sans&apos;" font-size="19" font-weight="700"><tspan x="0" y="0" letter-spacing="-.00642em">O</tspan><tspan x="15" y="0" letter-spacing="-.02339em">s</tspan><tspan x="24" y="0" letter-spacing=".00339em"> </tspan><tspan x="29" y="0" letter-spacing=".02434em">H</tspan><tspan x="44" y="0" letter-spacing=".01244em">o</tspan><tspan x="56" y="0" letter-spacing=".01807em">m</tspan><tspan x="75" y="0" letter-spacing="-.01187em">e</tspan><tspan x="86" y="0" letter-spacing="-.02565em">n</tspan><tspan x="98" y="0" letter-spacing="-.02339em">s</tspan><tspan x="107" y="0" letter-spacing="-.022em">:</tspan></text>
      <text transform="translate(168.41742 77.86781)" fill="#212121" font-family="OpenSans-Regular, &apos;Open Sans&apos;" font-size="19"><tspan x="0" y="0">cuidam melhor da sua saúde física e </tspan><tspan x="0" y="31">mental, e dessa forma adoecem </tspan><tspan x="0" y="62">menos;</tspan><tspan x="-140" y="97">abandonam ou reduzem hábitos prejudiciais, como </tspan><tspan x="-140" y="128">o tabagismo;</tspan><tspan x="-140" y="163">abandonam as drogas;</tspan><tspan x="-140" y="198">evitam ou abandonam a participação em gangues;</tspan><tspan x="-140" y="233">sentem-se mais satisfeitos com a vida.</tspan></text>
      <circle cx="153.01563" cy="73.44575" r="4.40283" fill="#212121"/>
      <circle cx="17.01563" cy="168.44575" r="4.40283" fill="#212121"/>
      <circle cx="17.01563" cy="270.44575" r="4.40283" fill="#212121"/>
      <circle cx="17.01563" cy="235.44575" r="4.40283" fill="#212121"/>
      <circle cx="17.01563" cy="305.44575" r="4.40283" fill="#212121"/>
    </g>
    <g>
      <path d="M35.48132,487.89394c-19.59616,0-35.48132-20.60568-35.48132-40.20006v-102.69387h466.68472c19.59614,0,42.64236,15.88517,42.64236,35.48132v107.41261H35.48132Z" fill="#f2f2f2"/>
      <g>
        <path d="M35.48132,487.89394c-19.59616,0-35.48132-21.59008-35.48132-41.18447v-101.70947h132.16792v142.89394H35.48132Z" fill="#f9e2bb"/>
        <rect x="132.16792" y="345" width="2.3666" height="142.89394" fill="#cccecf"/>
        <g>
          <g opacity=".3">
            <g>
              <path d="M100.95457,416.67989c-.3337-.67334-1.07432-2.29523-1.93182-4.17322-2.59971-5.69316-4.81949-10.50124-5.65331-11.67561-2.65808-3.74386-6.20108-4.05435-10.22328-4.06146-4.0191.0071-7.56215.3176-10.22018,4.06139-.66157.93177-2.28018,4.41174-4.67399,9.61455-1.57579,3.42478-3.20522,6.96615-3.77681,7.90201-.7352,1.20354-.65076,2.17912-.45049,2.78556.45672,1.38288,1.83483,2.02862,2.10668,2.14416.86573.41339,1.84066.46796,2.7482.15352.91392-.31672,1.64906-.97012,2.06993-1.83978.63625-1.31462,1.87754-3.89241,3.00829-6.24253l-2.54409,20.6309c-.14475.80724.0622,1.61956.5701,2.23355.45682.55227,1.1137.86897,1.80213.86897h2.3509v13.64821c0,2.14116,1.74191,3.88306,3.88308,3.88306h.29103c1.19704,0,2.26901-.54473,2.98186-1.39899.71287.85427,1.78479,1.39899,2.98182,1.39899h.29103c2.14117,0,3.88313-1.7419,3.88313-3.88306v-13.64821h2.06066c.68848,0,1.34536-.31671,1.80218-.86897.5079-.61399.71485-1.42631.5701-2.23355l-2.54414-20.63078c1.13075,2.35011,2.37199,4.92779,3.00829,6.2424.42087.86966,1.15601,1.52306,2.06994,1.83978.91611.31758,1.90101.25868,2.77312-.16552.02462-.01201.04875-.02509.07223-.03929.12365-.07481,3.003-1.88643.69342-6.5461Z" fill="#fff"/>
              <path d="M83.16121,396.03465c.07422.00252.14804.00377.22186.00377,3.45926,0,6.33093-2.75344,6.44924-6.23685.12072-3.55767-2.67542-6.5503-6.23303-6.67113h-.00005c-3.55417-.11901-6.55023,2.67536-6.67115,6.23302-.05851,1.72342.55765,3.3665,1.73494,4.62648,1.17725,1.26005,2.77477,1.98618,4.4982,2.04471Z" fill="#fff"/>
            </g>
          </g>
          <g id="uuid-f9495d89-00e1-45e0-b679-fceca0e2fdb7" data-name="_x30_2" opacity=".3">
            <g>
              <path d="M51.86898,391.56348c.08034.00271.16031.00408.24014.00408,3.74374,0,6.85139-2.97976,6.97933-6.74952.06336-1.86505-.60344-3.6431-1.87749-5.00668-1.27404-1.36359-3.0028-2.14938-4.86793-2.21275-1.86365-.06319-3.6432.60349-5.00666,1.87749-1.36359,1.274-2.14936,3.00283-2.21273,4.86794-.13072,3.85003,2.89527,7.08867,6.74535,7.21942Z" fill="#fff"/>
              <path d="M67.41289,402.16059c-1.4461-5.44968-3.34104-6.64573-6.06701-7.84839-2.75533-1.21547-6.02416-1.76333-9.71811-1.62767-3.69358-.13604-6.96293.41207-9.71822,1.62767-2.72597,1.20266-4.62096,2.39871-6.06701,7.84839-.98363,3.70646-3.40471,16.21017-3.5276,16.84598-.5395,2.56183,1.29921,4.23118,3.23819,4.69832,1.66162.40069,3.96263-.95484,4.60643-3.5395.00351-.0142.0067-.02854.00954-.04287l1.4387-7.27028v38.33408c0,2.98579,2.30232,5.41486,5.13227,5.41486h.37399c1.94695,0,3.64409-1.14966,4.5137-2.83938.86951,1.68972,2.56667,2.83938,4.51364,2.83938h.37398c2.82994,0,5.13225-2.42907,5.13225-5.41486v-38.3344l2.71516,3.95435,3.33543-6.82969c-.46165-2.18196.01477-6.68507-.28533-7.816Z" fill="#fff"/>
            </g>
          </g>
          <g id="uuid-f7067543-7f8b-49af-b12e-564d02117d85" data-name="_x30_4">
            <path d="M87.15677,437.69637v14.36257c0,1.16447-.9474,2.1118-2.11186,2.1118h-.29541c-1.16441,0-2.11174-.94732-2.11174-2.1118v-14.36257h-1.82946v14.36257c0,2.17324,1.76802,3.94126,3.9412,3.94126h.29541c2.17324,0,3.94132-1.76802,3.94132-3.94126v-14.36257h-1.82946Z" fill="#555"/>
            <path d="M80.80829,437.69637v14.36257c0,1.16447-.94739,2.1118-2.11185,2.1118h-.29543c-1.16446,0-2.1118-.94732-2.1118-2.1118v-14.36257h-1.82945v14.36257c0,2.17324,1.768,3.94126,3.94125,3.94126h.29543c2.17323,0,3.94131-1.76802,3.94131-3.94126v-14.36257h-1.82946Z" fill="#555"/>
            <path d="M91.07779,438.20617h-19.00419c-.69874,0-1.36545-.32147-1.82913-.882-.51548-.62319-.72553-1.4477-.57865-2.26704l2.58224-20.94013c-1.14768,2.38533-2.4076,5.00177-3.05339,6.33609-.42718.8827-1.17333,1.54591-2.10095,1.86736-.92116.31916-1.91067.26378-2.78941-.15582-.2759-.11728-1.67466-.7727-2.13821-2.1763-.20328-.61554-.28898-1.60575.45723-2.82732.58013-.94988,2.23399-4.54435,3.83342-8.02045,2.42967-5.2808,4.07255-8.81292,4.74405-9.75866,2.69786-3.79992,6.29404-4.11506,10.37337-4.12226,4.08246.0072,7.67857.32234,10.3765,4.12233.84632,1.19197,3.09938,6.07212,5.73803,11.85062.87037,1.90615,1.62208,3.55235,1.96083,4.23577,2.34418,4.72951-.57834,6.56828-.70385,6.64421-.0238.01442-.04829.02769-.07332.03988-.88518.43057-1.88483.49035-2.81468.168-.92761-.32145-1.67376-.98466-2.10094-1.86736-.64585-1.33432-1.90571-3.95063-3.05339-6.33596l2.58231,20.94c.14687.81934-.06317,1.64385-.57867,2.26704-.46368.56053-1.13038.882-1.8292.882ZM73.83753,407.78634c.08543,0,.17202.012.25758.03714.42986.12608.70519.54503.65032.9897l-3.26727,26.49504c-.00242.01991-.00555.03975-.00932.05947-.05499.28821.0143.58364.18524.79037.08256.09979.2223.21866.41952.21866h19.00419c.1973,0,.33703-.11893.41959-.21866.171-.20673.24023-.50216.18522-.79037-.00376-.01971-.00689-.03955-.00931-.05947l-3.26733-26.49504c-.05487-.44467.22044-.86361.65031-.9897.43005-.12602.88787.07765,1.08196.48148.04097.08518,4.10906,8.54914,5.4652,11.35113.21401.44225.58811.77455,1.05332.93579.44747.15512.92704.13425,1.35748-.05761.22575-.17413,1.45842-1.30318-.0039-4.25352-.35164-.70946-1.07277-2.28873-1.98584-4.28824-1.89179-4.143-4.75075-10.40393-5.56549-11.55148-2.20164-3.10079-5.0712-3.34523-8.88484-3.35193-3.8105.0067-6.68013.25114-8.88171,3.35193-.6228.87721-2.72184,5.43923-4.57376,9.46419-1.6961,3.68621-3.29808,7.16806-3.93417,8.20944-.31034.50809-.40236.93336-.28125,1.30005.19448.5888.93221.99161,1.1191,1.06728.01926.00779.03834.01627.05704.0254.44506.21656.94759.24654,1.41523.08448.46521-.16124.8393-.49354,1.05331-.93571,1.35615-2.80206,5.42424-11.26603,5.4652-11.3512.15544-.32343.48034-.51861.82438-.51861Z" fill="#555"/>
            <path d="M81.81459,394.83992c-.07491,0-.14982-.00128-.22516-.00383-1.74925-.0594-3.37069-.79643-4.56559-2.07537-1.19497-1.27886-1.82033-2.94657-1.76093-4.69582.12269-3.61099,3.1637-6.44724,6.77111-6.32645h.00008c3.61091.12264,6.44896,3.16013,6.32645,6.77112-.12008,3.53563-3.03483,6.33035-6.54596,6.33035ZM81.80968,383.56414c-2.53107,0-4.63182,2.01423-4.71834,4.56285-.04282,1.26087.40791,2.46292,1.26923,3.3848.86132.92181,2.03006,1.45306,3.29088,1.49587,2.60252.08895,4.7923-1.95732,4.88067-4.5601.08837-2.60285-1.95732-4.7923-4.5601-4.88067-.05418-.00185-.10854-.00274-.16233-.00274Z" fill="#555"/>
          </g>
          <path d="M50.39434,390.46326c-.08103,0-.16219-.00142-.24374-.00416-3.90781-.13271-6.97913-3.41988-6.84647-7.32763.06431-1.89307.8619-3.6478,2.24591-4.9409,1.3839-1.2931,3.19013-1.96977,5.08172-1.90565,1.89307.06433,3.64774.8619,4.9409,2.24592,1.2931,1.38402,1.9699,3.18871,1.90565,5.08172-.12992,3.82627-3.28411,6.85069-7.08397,6.85069ZM50.38669,378.11024c-1.33757,0-2.6054.49935-3.58769,1.41707-1.02691.95952-1.61877,2.26155-1.66643,3.66618-.09845,2.89967,2.18045,5.33874,5.08006,5.43718,1.40482.0487,2.7438-.45442,3.77083-1.41394,1.02689-.95952,1.61876-2.26155,1.66643-3.66618.09845-2.89967-2.18052-5.33874-5.08013-5.43719-.06112-.0021-.12219-.00312-.18306-.00312Z" fill="#555"/>
          <path d="M62.92073,415.60711l-2.69664-13.62734c-.07721-.39036-.4025-.68655-.7979-.73173-.25893-.02936-.5183.0527-.71285.22625-.19454.17355-.30576.42182-.30576.68253v48.22152c0,2.02177-1.51616,3.66657-3.37975,3.66657h-.37958c-1.86359,0-3.37969-1.6448-3.37969-3.66657v-24.62009l.00038-.03458c.00243-.16009.0081-.53508-.29683-.8446-.19122-.19417-.45276-.3011-.73651-.3011h-.33735c-.28368,0-.54521.10693-.73645.30104-.30493.30952-.29931.68457-.29689.84472l.00039,24.65461c0,2.02177-1.5161,3.66657-3.37969,3.66657h-.37959c-1.86359,0-3.37975-1.6448-3.37975-3.66657v-48.22152c0-.26096-.11363-.50923-.3085-.68278-.19493-.17355-.45717-.25549-.71597-.22537-.39477.04581-.71482.34123-.79196.73109l-3.26337,16.49098c-.409,1.60358-1.75193,2.40766-2.46662,2.23572-1.08854-.26225-2.24554-1.10545-1.92383-2.61868.00115-.00555.0023-.0111.00332-.01659.02559-.13227,2.56738-13.26614,3.55402-16.9842,1.35212-5.0955,3.01848-5.83067,5.12816-6.76148,2.54907-1.12452,5.60806-1.62789,9.09093-1.49638.02297.00089.04606.00089.06903,0,3.48274-.1319,6.54174.37186,9.09087,1.49638,2.10969.93081,3.77599,1.66598,5.12811,6.76148.34595,1.30381,1.29418,5.05798,1.84712,7.7108l1.0454-2.35216c-.46859-2.21465-.81965-4.67998-1.12427-5.82787-1.46779-5.53136-3.39111-6.74535-6.15794-7.96602-2.79662-1.2337-6.11449-1.78977-9.86381-1.65208-3.74893-.13807-7.0673.41825-9.86387,1.65208-2.76683,1.22067-4.6902,2.43465-6.15794,7.96602-.99837,3.76202-3.45575,16.45314-3.58049,17.09849-.54758,2.60023,1.31869,4.2946,3.28673,4.76875,1.68652.40669,4.02203-.96916,4.67547-3.59255.00357-.01442.00683-.02897.00969-.04351l1.46028-7.37926v38.90867c0,3.03054,2.33684,5.49602,5.2092,5.49602h.37959c1.97615,0,3.69872-1.16689,4.58135-2.88194.88257,1.71505,2.60515,2.88194,4.5813,2.88194h.37958c2.87237,0,5.20921-2.46548,5.20921-5.49602v-38.90899l1.12688,6.73706c-.03132,0,1.53678-2.6135,1.55682-2.5993Z" fill="#555"/>
        </g>
      </g>
    </g>
    <g>
      <text transform="translate(170.39361 371.49177)" font-family="OpenSans-Bold, &apos;Open Sans&apos;" font-size="19" font-weight="700"><tspan x="0" y="0" letter-spacing="-.00573em">A</tspan><tspan x="13" y="0" letter-spacing="-.02339em">s</tspan><tspan x="22" y="0" letter-spacing=".00339em"> </tspan><tspan x="27" y="0" letter-spacing=".0045em">M</tspan><tspan x="45" y="0" letter-spacing="-.02565em">u</tspan><tspan x="57" y="0" letter-spacing=".01061em">l</tspan><tspan x="63" y="0" letter-spacing="-.02565em">h</tspan><tspan x="75" y="0" letter-spacing="-.01187em">e</tspan><tspan x="86" y="0" letter-spacing=".01958em">r</tspan><tspan x="95" y="0" letter-spacing="-.01187em">e</tspan><tspan x="106" y="0" letter-spacing="-.02339em">s</tspan><tspan x="115" y="0" letter-spacing="-.022em">:</tspan></text>
      <text transform="translate(168.41742 406.54024)" fill="#212121" font-family="OpenSans-Regular, &apos;Open Sans&apos;" font-size="19"><tspan x="0" y="0" letter-spacing=".02159em">m</tspan><tspan x="18" y="0" letter-spacing=".02328em">a</tspan><tspan x="29" y="0" letter-spacing=".01072em">i</tspan><tspan x="34" y="0" letter-spacing="-.00288em">s</tspan><tspan x="43" y="0" letter-spacing=".00339em"> </tspan><tspan x="48" y="0" letter-spacing=".02328em">a</tspan><tspan x="59" y="0" letter-spacing=".01976em">p</tspan><tspan x="71" y="0" letter-spacing="-.02262em">o</tspan><tspan x="82" y="0" letter-spacing=".01072em">i</tspan><tspan x="87" y="0" letter-spacing=".02328em">a</tspan><tspan x="98" y="0" letter-spacing=".01976em">d</tspan><tspan x="110" y="0" letter-spacing=".02328em">a</tspan><tspan x="121" y="0" letter-spacing="-.00288em">s</tspan><tspan x="130" y="0" letter-spacing=".00339em"> </tspan><tspan x="135" y="0" letter-spacing=".01742em">e</tspan><tspan x="146" y="0" letter-spacing=".02159em">m</tspan><tspan x="164" y="0" letter-spacing="-.02262em">o</tspan><tspan x="175" y="0" letter-spacing="-.00532em">c</tspan><tspan x="184" y="0" letter-spacing=".01072em">i</tspan><tspan x="189" y="0" letter-spacing="-.02262em">o</tspan><tspan x="200" y="0" letter-spacing=".0183em">n</tspan><tspan x="212" y="0" letter-spacing=".02328em">a</tspan><tspan x="223" y="0" letter-spacing=".01072em">l</tspan><tspan x="228" y="0" letter-spacing=".02159em">m</tspan><tspan x="246" y="0" letter-spacing=".01742em">e</tspan><tspan x="257" y="0" letter-spacing=".0183em">n</tspan><tspan x="269" y="0" letter-spacing=".01198em">t</tspan><tspan x="276" y="0" letter-spacing=".01742em">e</tspan><tspan x="287" y="0" letter-spacing=".00046em">;</tspan><tspan x="0" y="35" letter-spacing=".02159em">m</tspan><tspan x="18" y="35" letter-spacing=".01742em">e</tspan><tspan x="29" y="35" letter-spacing=".0183em">n</tspan><tspan x="41" y="35" letter-spacing="-.02262em">o</tspan><tspan x="52" y="35" letter-spacing="-.00288em">s</tspan><tspan x="61" y="35" letter-spacing=".00339em"> </tspan><tspan x="66" y="35" letter-spacing=".01742em">e</tspan><tspan x="77" y="35" letter-spacing="-.00288em">s</tspan><tspan x="86" y="35" letter-spacing=".01198em">t</tspan><tspan x="93" y="35" letter-spacing=".01236em">r</tspan><tspan x="101" y="35" letter-spacing=".01742em">e</tspan><tspan x="112" y="35" letter-spacing="-.00288em">ss</tspan><tspan x="130" y="35" letter-spacing=".02328em">a</tspan><tspan x="141" y="35" letter-spacing=".01976em">d</tspan><tspan x="153" y="35" letter-spacing=".02328em">a</tspan><tspan x="164" y="35" letter-spacing="-.00288em">s</tspan><tspan x="173" y="35" letter-spacing=".00046em">;</tspan><tspan x="0" y="70" letter-spacing=".01198em">t</tspan><tspan x="7" y="70" letter-spacing=".01742em">ê</tspan><tspan x="18" y="70" letter-spacing=".02159em">m</tspan><tspan x="36" y="70" letter-spacing=".00339em"> </tspan><tspan x="41" y="70" letter-spacing=".02159em">m</tspan><tspan x="59" y="70" letter-spacing=".01742em">e</tspan><tspan x="70" y="70" letter-spacing=".01072em">l</tspan><tspan x="75" y="70" letter-spacing=".0183em">h</tspan><tspan x="87" y="70" letter-spacing="-.02262em">o</tspan><tspan x="98" y="70" letter-spacing=".01236em">r</tspan><tspan x="106" y="70" letter-spacing=".00339em"> </tspan><tspan x="111" y="70" letter-spacing=".01976em">q</tspan><tspan x="123" y="70" letter-spacing=".0183em">u</tspan><tspan x="135" y="70" letter-spacing=".02328em">a</tspan><tspan x="146" y="70" letter-spacing=".01072em">li</tspan><tspan x="156" y="70" letter-spacing=".01976em">d</tspan><tspan x="168" y="70" letter-spacing=".02328em">a</tspan><tspan x="179" y="70" letter-spacing=".01976em">d</tspan><tspan x="191" y="70" letter-spacing=".01742em">e</tspan><tspan x="202" y="70" letter-spacing=".00339em"> </tspan><tspan x="207" y="70" letter-spacing=".01976em">d</tspan><tspan x="219" y="70" letter-spacing=".01742em">e</tspan><tspan x="230" y="70" letter-spacing=".00339em"> </tspan><tspan x="235" y="70" letter-spacing="-.02583em">v</tspan><tspan x="244" y="70" letter-spacing=".01072em">i</tspan><tspan x="249" y="70" letter-spacing=".01976em">d</tspan><tspan x="261" y="70" letter-spacing=".02328em">a</tspan><tspan x="272" y="70" letter-spacing=".00046em">.</tspan></text>
      <circle cx="153.01563" cy="400.11917" r="4.40283" fill="#212121"/>
      <circle cx="153.01563" cy="471.11917" r="4.40283" fill="#212121"/>
      <circle cx="153.01563" cy="435.11917" r="4.40283" fill="#212121"/>
    </g>
    <g>
      <path d="M35.48132,680.89394c-19.59616,0-35.48132-20.60568-35.48132-40.20006v-146.69387h466.68472c19.59614,0,42.64236,15.88517,42.64236,35.48132v151.41261H35.48132Z" fill="#f2f2f2"/>
      <g>
        <path d="M35.48132,624.89394c-19.59616,0-35.48132-21.59008-35.48132-41.18447v-89.70947h132.16792v130.89394H35.48132Z" fill="#cfc5d9"/>
        <rect x="132.16792" y="494" width="2.3666" height="130.89394" fill="#cccecf"/>
      </g>
    </g>
  </g>
  <g id="uuid-34c74c17-eff7-411a-8c83-dbaefa90ff64" data-name="Layer_3">
    <text transform="translate(170.82049 519.8824)" font-family="OpenSans-Bold, &apos;Open Sans&apos;" font-size="19" font-weight="700"><tspan x="0" y="0" letter-spacing="-.00563em">C</tspan><tspan x="12" y="0" letter-spacing=".01958em">r</tspan><tspan x="21" y="0" letter-spacing=".01061em">i</tspan><tspan x="27" y="0" letter-spacing="-.02506em">a</tspan><tspan x="38" y="0" letter-spacing="-.02565em">n</tspan><tspan x="50" y="0" letter-spacing=".01216em">ç</tspan><tspan x="60" y="0" letter-spacing="-.02506em">a</tspan><tspan x="71" y="0" letter-spacing="-.02339em">s</tspan><tspan x="80" y="0" letter-spacing=".00339em"> </tspan><tspan x="85" y="0" letter-spacing=".01216em">c</tspan><tspan x="95" y="0" letter-spacing=".01244em">o</tspan><tspan x="107" y="0" letter-spacing=".01807em">m</tspan><tspan x="126" y="0" letter-spacing=".00339em"> </tspan><tspan x="131" y="0" letter-spacing="-.02506em">a</tspan><tspan x="142" y="0" letter-spacing="-.00123em">p</tspan><tspan x="154" y="0" letter-spacing=".01244em">o</tspan><tspan x="166" y="0" letter-spacing=".01061em">i</tspan><tspan x="172" y="0" letter-spacing=".01244em">o</tspan><tspan x="184" y="0" letter-spacing=".00339em"> </tspan><tspan x="189" y="0" letter-spacing="-.01187em">e</tspan><tspan x="200" y="0" letter-spacing=".00339em"> </tspan><tspan x="205" y="0" letter-spacing="-.02506em">a</tspan><tspan x="216" y="0" letter-spacing="-.01879em">f</tspan><tspan x="223" y="0" letter-spacing="-.01187em">e</tspan><tspan x="234" y="0" letter-spacing="-.01303em">t</tspan><tspan x="242" y="0" letter-spacing=".01244em">o</tspan><tspan x="254" y="0" letter-spacing=".00339em"> </tspan><tspan x="259" y="0" letter-spacing="-.00123em">d</tspan><tspan x="271" y="0" letter-spacing="-.01187em">e</tspan><tspan x="282" y="0" letter-spacing=".00339em"> </tspan><tspan x="0" y="31" letter-spacing="-.02565em">u</tspan><tspan x="12" y="31" letter-spacing=".01807em">m</tspan><tspan x="31" y="31" letter-spacing="-.02506em">a</tspan><tspan x="42" y="31" letter-spacing=".00339em"> </tspan><tspan x="47" y="31" letter-spacing="-.01879em">f</tspan><tspan x="54" y="31" letter-spacing=".01061em">i</tspan><tspan x="60" y="31" letter-spacing=".01401em">g</tspan><tspan x="71" y="31" letter-spacing="-.02565em">u</tspan><tspan x="83" y="31" letter-spacing=".01958em">r</tspan><tspan x="92" y="31" letter-spacing="-.02506em">a</tspan><tspan x="103" y="31" letter-spacing=".00339em"> </tspan><tspan x="108" y="31" letter-spacing="-.00123em">p</tspan><tspan x="120" y="31" letter-spacing="-.02506em">a</tspan><tspan x="131" y="31" letter-spacing="-.01303em">t</tspan><tspan x="139" y="31" letter-spacing="-.01187em">e</tspan><tspan x="150" y="31" letter-spacing=".01958em">r</tspan><tspan x="159" y="31" letter-spacing="-.02565em">n</tspan><tspan x="171" y="31" letter-spacing="-.02506em">a</tspan><tspan x="182" y="31" letter-spacing=".00339em"> </tspan><tspan x="187" y="31" letter-spacing="-.02339em">s</tspan><tspan x="196" y="31" letter-spacing="-.02506em">ã</tspan><tspan x="207" y="31" letter-spacing=".01244em">o</tspan><tspan x="219" y="31" letter-spacing="-.022em">:</tspan></text>
    <g>
      <text transform="translate(172.82019 582.67677)" fill="#212121" font-family="OpenSans-Regular, &apos;Open Sans&apos;" font-size="19"><tspan x="0" y="0" letter-spacing=".02159em">m</tspan><tspan x="18" y="0" letter-spacing=".02328em">a</tspan><tspan x="29" y="0" letter-spacing=".01072em">i</tspan><tspan x="34" y="0" letter-spacing="-.00288em">s</tspan><tspan x="43" y="0" letter-spacing=".00339em"> </tspan><tspan x="48" y="0" letter-spacing="-.00288em">s</tspan><tspan x="57" y="0" letter-spacing=".01742em">e</tspan><tspan x="68" y="0" letter-spacing="-.01665em">g</tspan><tspan x="78" y="0" letter-spacing=".0183em">u</tspan><tspan x="90" y="0" letter-spacing=".01236em">r</tspan><tspan x="98" y="0" letter-spacing=".02328em">a</tspan><tspan x="109" y="0" letter-spacing="-.00288em">s</tspan><tspan x="118" y="0" letter-spacing=".00046em">;</tspan><tspan x="0" y="35" letter-spacing=".02159em">m</tspan><tspan x="18" y="35" letter-spacing=".02328em">a</tspan><tspan x="29" y="35" letter-spacing=".01072em">i</tspan><tspan x="34" y="35" letter-spacing="-.00288em">s</tspan><tspan x="43" y="35" letter-spacing=".00339em"> </tspan><tspan x="48" y="35" letter-spacing=".01976em">p</tspan><tspan x="60" y="35" letter-spacing=".01236em">r</tspan><tspan x="68" y="35" letter-spacing="-.02262em">o</tspan><tspan x="79" y="35" letter-spacing=".01198em">t</tspan><tspan x="86" y="35" letter-spacing=".01742em">e</tspan><tspan x="97" y="35" letter-spacing="-.01665em">g</tspan><tspan x="107" y="35" letter-spacing=".01072em">i</tspan><tspan x="112" y="35" letter-spacing=".01976em">d</tspan><tspan x="124" y="35" letter-spacing=".02328em">a</tspan><tspan x="135" y="35" letter-spacing="-.00288em">s</tspan><tspan x="144" y="35" letter-spacing=".00339em"> </tspan><tspan x="149" y="35" letter-spacing=".01976em">d</tspan><tspan x="161" y="35" letter-spacing=".02328em">a</tspan><tspan x="172" y="35" letter-spacing=".00339em"> </tspan><tspan x="177" y="35" letter-spacing="-.02583em">v</tspan><tspan x="186" y="35" letter-spacing=".01072em">i</tspan><tspan x="191" y="35" letter-spacing="-.02262em">o</tspan><tspan x="202" y="35" letter-spacing=".01072em">l</tspan><tspan x="207" y="35" letter-spacing=".01742em">ê</tspan><tspan x="218" y="35" letter-spacing=".0183em">n</tspan><tspan x="230" y="35" letter-spacing="-.00532em">c</tspan><tspan x="239" y="35" letter-spacing=".01072em">i</tspan><tspan x="244" y="35" letter-spacing=".02328em">a</tspan><tspan x="255" y="35" letter-spacing=".00046em">;</tspan><tspan x="-140" y="70" letter-spacing=".01072em">li</tspan><tspan x="-130" y="70" letter-spacing=".01976em">d</tspan><tspan x="-118" y="70" letter-spacing=".02328em">a</tspan><tspan x="-107" y="70" letter-spacing=".02159em">m</tspan><tspan x="-89" y="70" letter-spacing=".00339em"> </tspan><tspan x="-84" y="70" letter-spacing="-.00532em">c</tspan><tspan x="-75" y="70" letter-spacing="-.02262em">o</tspan><tspan x="-64" y="70" letter-spacing=".02159em">m</tspan><tspan x="-46" y="70" letter-spacing=".00339em"> </tspan><tspan x="-41" y="70" letter-spacing=".02328em">a</tspan><tspan x="-30" y="70" letter-spacing="-.00288em">s</tspan><tspan x="-21" y="70" letter-spacing=".00339em"> </tspan><tspan x="-16" y="70" letter-spacing=".01198em">t</tspan><tspan x="-9" y="70" letter-spacing=".01742em">e</tspan><tspan x="2" y="70" letter-spacing=".0183em">n</tspan><tspan x="14" y="70" letter-spacing="-.00288em">s</tspan><tspan x="23" y="70" letter-spacing="-.02262em">õ</tspan><tspan x="34" y="70" letter-spacing=".01742em">e</tspan><tspan x="45" y="70" letter-spacing="-.00288em">s</tspan><tspan x="54" y="70" letter-spacing=".00339em"> </tspan><tspan x="59" y="70" letter-spacing=".01976em">d</tspan><tspan x="71" y="70" letter-spacing=".02328em">a</tspan><tspan x="82" y="70" letter-spacing=".00339em"> </tspan><tspan x="87" y="70" letter-spacing="-.02583em">v</tspan><tspan x="96" y="70" letter-spacing=".01072em">i</tspan><tspan x="101" y="70" letter-spacing=".01976em">d</tspan><tspan x="113" y="70" letter-spacing=".02328em">a</tspan><tspan x="124" y="70" letter-spacing=".00339em"> </tspan><tspan x="129" y="70" letter-spacing="-.00532em">c</tspan><tspan x="138" y="70" letter-spacing="-.02262em">o</tspan><tspan x="149" y="70" letter-spacing=".02159em">m</tspan><tspan x="167" y="70" letter-spacing=".00339em"> </tspan><tspan x="172" y="70" letter-spacing=".02159em">m</tspan><tspan x="190" y="70" letter-spacing=".02328em">a</tspan><tspan x="201" y="70" letter-spacing=".01072em">i</tspan><tspan x="206" y="70" letter-spacing="-.02262em">o</tspan><tspan x="217" y="70" letter-spacing=".01236em">r</tspan><tspan x="225" y="70" letter-spacing=".00339em"> </tspan><tspan x="230" y="70" letter-spacing="-.02064em">f</tspan><tspan x="236" y="70" letter-spacing=".02328em">a</tspan><tspan x="247" y="70" letter-spacing="-.00532em">c</tspan><tspan x="256" y="70" letter-spacing=".01072em">ili</tspan><tspan x="271" y="70" letter-spacing=".01976em">d</tspan><tspan x="283" y="70" letter-spacing=".02328em">a</tspan><tspan x="294" y="70" letter-spacing=".01976em">d</tspan><tspan x="306" y="70" letter-spacing=".01742em">e</tspan><tspan x="317" y="70" letter-spacing=".00046em">.</tspan></text>
      <circle cx="157.41847" cy="576.25572" r="4.40283" fill="#212121"/>
      <circle cx="22.41847" cy="647.25572" r="4.40283" fill="#212121"/>
      <circle cx="157.41847" cy="612.25572" r="4.40283" fill="#212121"/>
    </g>
    <g>
      <g id="uuid-7f97c1ac-d7b3-489e-893c-68ca503cb663" data-name="_x39_" opacity=".3">
        <g id="uuid-5fd5834f-057e-4060-a27e-f16819c6a620" data-name="_x30_2">
          <path d="M74.58783,521.38193c-.00827-.0003-.01655-.00044-.02482-.00044" fill="#fff"/>
          <path d="M70.49454,512.7866h-1.59995c-.07433.43155-.09059.85288-.07658,1.22815-.32265.02308-.64326.15115-.92845.41607-.38442.357-.5322.8876-.4054,1.45559.13029.58364.53511,1.16252,1.00815,1.49375.54491,2.17352,2.3817,5.69217,6.07069,5.5914.0532.00151.1051.00221.15744.00221,3.58932-.00037,5.37625-3.45134,5.91325-5.59361.47297-.33123.87786-.91004,1.00808-1.4936.12681-.56807-.02091-1.09859-.40525-1.45566" fill="#fff"/>
          <path d="M80.41259,515.56393c.42267.05211.80876-.24651.87053-.67343.02003-.13868.4696-3.42101-1.47956-5.70914-1.17782-1.38283-2.94106-2.08397-5.24052-2.08397-2.15767,0-3.84806.67159-5.02454,1.99605-2.03891,2.29556-1.71449,5.69008-1.69961,5.83346.02951.28552.2085.53274.46832.64668.20099.08814.42616.0859.62214.00022M77.99024,513.32899,73.31438,512.58121,70.44467,514.55867" fill="#fff"/>
          <path d="M66.48175,564.20842v-26.73362c0-.13945.00515-.28913.01633-.47083.02141-.35019-.15142-.68334-.44815-.86386-.29688-.1806-.66823-.17813-.96257.006l-.29325.18332c-.27358.17107-.44024.4737-.44024.79967v19.17065c0,1.53453-1.04815,2.78295-2.33641,2.78295h-.09582c-.61132,0-1.28986-.3295-1.78461-.85036l-1.30917,1.32759c.84599.87228,2.00418,1.40152,3.09377,1.40152h.09582c.98674,0,1.89494-.38162,2.61158-1.01928v4.26624h1.85269Z" fill="#fff"/>
          <path d="M64.62906,586.2623v4.19513c0,3.20218,2.32966,5.8073,5.19333,5.8073h.24745c2.02422,0,3.78168-1.30182,4.63805-3.19585.85637,1.89403,2.61383,3.19585,4.63798,3.19585h.24737c2.86368,0,5.19333-2.60512,5.19333-5.8073v-30.37326c.65916.55069,1.47808.87729,2.36436.87729h.09567c2.04984,0,4.34241-1.8729,4.34241-4.37949v-15.24377c0-.10537.00421-.37915.00994-.77012.01052-.72091.02671-1.81038.03506-2.99144.03187-4.5443-2.11698-8.75295-5.60831-10.98359-2.7442-1.75322-5.6838-2.79782-8.73765-3.10469-1.39177-.13989-4.02382-.13989-5.41581,0-2.16605.21766-4.54173,1.0033-7.06098,2.33505-4.18402,2.21168-6.9116,6.84722-7.11833,12.0976-.0765,1.94721-.11367,3.06498-.11367,3.41719v6.63411l.37717,3.63123" fill="#fff"/>
          <path d="M73.41048,590.45742c0,2.16619-1.49862,3.9285-3.34064,3.9285h-.24745" fill="#fff"/>
          <path d="M82.93388,590.45742c0,2.16619-1.49869,3.9285-3.34064,3.9285h-.24737c-1.84195,0-3.34057-1.76231-3.34057-3.9285" fill="#fff"/>
          <line x1="84.58268" y1="536.26499" x2="84.2879" y2="536.10018" fill="#fff"/>
          <path d="M89.78131,537.5632c-.0082,1.17374-.02424,2.25879-.03484,2.97679-.00595.40521-.01016.68897-.01016.7982v15.24377c0,1.38522-1.36194,2.50074-2.48971,2.50074h-.09567c-1.15202,0-2.08918-1.12181-2.08918-2.50074" fill="#fff"/>
        </g>
        <g id="uuid-b0f02e64-1396-4bd2-8bcb-6a38eba62155" data-name="_x30_1">
          <path d="M61.36993,561.8089c-2.81341-2.06833-7.40257-1.96359-7.92396-1.94427-.52132-.02002-5.11058-.12418-7.92396,1.94427-2.85656,2.1002-3.28308,6.25207-3.28308,8.53997v12.8251c0,2.3232,1.73746,4.24244,3.96401,4.49167v13.36972c0,2.41016,1.83237,4.37092,4.08472,4.37092,1.27117,0,2.40856-.62467,3.1583-1.60199.74975.97732,1.88717,1.60199,3.15838,1.60199,2.25228,0,4.08468-1.96076,4.08468-4.37092v-13.36972c2.22659-.24924,3.96405-2.16848,3.96405-4.49167v-12.8251c0-2.2879-.42648-6.43962-3.28315-8.53997Z" fill="#fff"/>
          <path d="M59.73046,572.28423c-.51162,0-.92635.42059-.92635.93938v13.53004c0,.51882.41472.93938.92635.93938s.92635-.42056.92635-.93938v-13.53004c0-.51879-.41472-.93938-.92635-.93938Z" fill="#fff"/>
          <path d="M47.16152,572.28423c-.51162,0-.92635.42059-.92635.93938v13.53004c0,.51882.41472.93938.92635.93938.51159,0,.92635-.42056.92635-.93938v-13.53004c0-.51879-.41476-.93938-.92635-.93938Z" fill="#fff"/>
          <path d="M53.41378,585.81427c-.51162,0-.92638.42059-.92638.93938v14.31447c0,.51882.41476.93938.92638.93938.51159,0,.92635-.42056.92635-.93938v-14.31447c0-.51878-.41476-.93938-.92635-.93938Z" fill="#fff"/>
          <path d="M53.54578,547.42667c-3.4828,0-6.31621,2.87334-6.31621,6.4051s2.83341,6.40517,6.31621,6.40517,6.31628-2.87334,6.31628-6.40517-2.83348-6.4051-6.31628-6.4051Z" fill="#fff"/>
        </g>
      </g>
      <g id="uuid-8638678b-8585-472f-8f46-fb6075637155" data-name="_x39_">
        <g id="uuid-8e01bfce-bad5-4a30-b6c5-6b214324ddcb" data-name="_x30_2">
          <path d="M78.40243,513.3706c.01401-.37524-.00225-.79658-.07665-1.22815h-1.59987c.27866,1.0422-.03114,2.20704-.03491,2.22067-.09857.35184.05248.72647.36576.90769.31314.18122.70793.12222.95654-.14302.0294-.03128.09299-.08082.15519-.11869-.07934.17206-.24578.38706-.35379.4366-.27503.08509-.48212.31739-.53961.60299-.03927.19617-1.00677,4.8041-4.5929,4.68909-.00827-.0003-.01655-.00044-.02482-.00044-.00813,0-.01655.00015-.02475.00044-.04435.0014-.0879.0021-.13153.0021-3.47797,0-4.42261-4.49741-4.46108-4.68979-.05669-.28685-.2526-.51492-.5285-.60038-.1165-.05252-.28534-.26852-.36504-.44083.05538.03345.11454.07784.15505.11891.24759.26447.64094.32299.95422.14302.31314-.17986.46499-.55386.36859-.90545-.00421-.01535-.31408-1.18062-.03542-2.22292h-1.59995c-.07433.43155-.09059.85288-.07658,1.22815-.32265.02308-.64326.15115-.92845.41607-.38442.357-.5322.8876-.4054,1.45559.13029.58364.53511,1.16252,1.00815,1.49375.54491,2.17352,2.3817,5.69217,6.07069,5.5914.0532.00151.1051.00221.15744.00221,3.58932-.00037,5.37625-3.45134,5.91325-5.59361.47297-.33123.87786-.91004,1.00808-1.4936.12681-.56807-.02091-1.09859-.40525-1.45566-.28534-.26506-.60573-.39306-.92845-.41614Z" fill="#555"/>
          <path d="M72.65741,506.45323c-2.15767,0-3.84806.67159-5.02454,1.99605-2.03891,2.29556-1.71449,5.69008-1.69961,5.83346.02951.28552.2085.53274.46832.64668.20099.08814.42616.0859.62214.00022.09923.03187.26026.11276.37019.18895.2604.1838.60486.19006.87165.01598.26694-.17416.40405-.49438.34711-.81108l-.07364-.40896c.24091-1.7919,1.20363-2.60291,1.84536-2.95059.2015.31361.52037.65853,1.02434.97313.91535.57131,2.02665.58709,3.007.60108.61336.00876,1.19259.017,1.66887.1467.6143.16738.6143,1.47329.58105,1.81144-.03912.37253.18205.7243.53304.84122.0813.02709.16423.04015.24607.04015.27154,0,.53039-.14339.67374-.39192.04315-.04185.2387-.0813.38845-.06595.42267.05211.80876-.24651.87053-.67343.02003-.13868.4696-3.42101-1.47956-5.70914-1.17782-1.38283-2.94106-2.08397-5.24052-2.08397ZM76.49127,511.14961c-.66525-.1813-1.37101-.19131-2.05354-.20106-.85358-.01214-1.6598-.02366-2.20731-.36539-.48698-.30389-.59789-.58135-.62116-.6646.02522-.24239-.06722-.43583-.24549-.6063-.18499-.17677-.44648-.19646-.69603-.14578-.09574.01951-1.75318.3804-2.83388,2.08566.19874-.60822.50382-1.22343.9699-1.74582.86654-.97103,2.16307-1.46335,3.85365-1.46335,1.81901,0,3.18099.51345,4.04792,1.52606.67473.78823.96812,1.77589,1.08724,2.61998-.2714-.48073-.68612-.87188-1.30129-1.03941Z" fill="#555"/>
          <path d="M64.57612,563.56427v-26.73362c0-.13945.00515-.28913.01633-.47083.02141-.35019-.15142-.68334-.44815-.86386-.29688-.1806-.66823-.17813-.96257.006l-.29325.18332c-.27358.17107-.44024.4737-.44024.79967v19.17065c0,1.53453-1.04815,2.78295-2.33641,2.78295h-.09582c-.61132,0-1.28986-.3295-1.78461-.85036l-1.30917,1.32759c.84599.87228,2.00418,1.40152,3.09377,1.40152h.09582c.98674,0,1.89494-.38162,2.61158-1.01928v4.26624h1.85269Z" fill="#555"/>
          <path d="M84.12006,525.9489c-2.7442-1.75322-5.6838-2.79782-8.73765-3.10469-1.39177-.13989-4.02382-.13989-5.41581,0-2.16605.21766-4.54173,1.0033-7.06098,2.33505-4.18402,2.21168-6.9116,6.84722-7.11833,12.0976-.0765,1.94721-.11367,3.06498-.11367,3.41719v6.63411h1.76348c.03078,0,.06046.00166.08921.00467v-6.63877c0-.22174.01953-.98159.11237-3.34233.18016-4.57927,2.52658-8.60519,6.12338-10.50654,2.30854-1.2203,4.45753-1.93746,6.38723-2.13141,1.27469-.12819,3.77609-.12819,5.05048,0,2.76503.2779,5.43389,1.22829,7.93267,2.82476,2.9531,1.88678,4.77066,5.48125,4.74323,9.38053-.0082,1.17374-.02424,2.25879-.03484,2.97679-.00595.40521-.01016.68897-.01016.7982v15.24377c0,1.38522-1.36194,2.50074-2.48971,2.50074h-.09567c-1.15202,0-2.08918-1.12181-2.08918-2.50074v-19.49434c0-.3422-.18364-.65735-.47907-.82264l-.29477-.16481c-.29615-.16562-.65829-.15443-.94391.02962-.2857.18398-.44982.51139-.42782.85385.01212.18821.01771.3443.01771.49115v52.98262c0,2.16619-1.49869,3.9285-3.34064,3.9285h-.24737c-1.84195,0-3.34057-1.76231-3.34057-3.9285v-24.66066c0-.67358-.52654-1.22159-1.17387-1.22159h-.24723c-.64718,0-1.17372.54801-1.17372,1.22159v24.66066c0,2.16619-1.49862,3.9285-3.34064,3.9285h-.24745c-1.84195,0-3.34064-1.76231-3.34064-3.9285v-4.19513h-1.85269v4.19513c0,3.20218,2.32966,5.8073,5.19333,5.8073h.24745c2.02422,0,3.78168-1.30182,4.63805-3.19585.85637,1.89403,2.61383,3.19585,4.63798,3.19585h.24737c2.86368,0,5.19333-2.60512,5.19333-5.8073v-30.37326c.65916.55069,1.47808.87729,2.36436.87729h.09567c2.04984,0,4.34241-1.8729,4.34241-4.37949v-15.24377c0-.10537.00421-.37915.00994-.77012.01052-.72091.02671-1.81038.03506-2.99144.03187-4.5443-2.11698-8.75295-5.60831-10.98359Z" fill="#555"/>
        </g>
        <g id="uuid-9939dc39-55e4-4fd0-9a9e-65260c75bf97" data-name="_x30_1">
          <path d="M59.4643,561.16475c-2.81341-2.06833-7.40257-1.96359-7.92396-1.94427-.52132-.02002-5.11058-.12418-7.92396,1.94427-2.85656,2.1002-3.28308,6.25207-3.28308,8.53997v12.8251c0,2.3232,1.73746,4.24244,3.96401,4.49167v13.36972c0,2.41016,1.83237,4.37092,4.08472,4.37092,1.27117,0,2.40856-.62467,3.1583-1.60199.74975.97732,1.88717,1.60199,3.15838,1.60199,2.25228,0,4.08468-1.96076,4.08468-4.37092v-13.36972c2.22659-.24924,3.96405-2.16848,3.96405-4.49167v-12.8251c0-2.2879-.42648-6.43962-3.28315-8.53997ZM60.89476,582.52982c0,1.45592-1.16802,2.6403-2.60375,2.6403h-.43396c-.51162,0-.92638.42059-.92638.93938v14.28172c0,1.37421-1.00122,2.49216-2.23196,2.49216s-2.23203-1.11795-2.23203-2.49216c0-.51879-.41472-.93938-.92635-.93938-.51159,0-.92635.42059-.92635.93938,0,1.37421-1.00122,2.49216-2.23196,2.49216s-2.23203-1.11795-2.23203-2.49216v-14.28172c0-.51878-.41476-.93938-.92635-.93938h-.43396c-1.43565,0-2.60371-1.18438-2.60371-2.6403v-12.8251c0-1.55374.24538-5.34809,2.51791-7.01883,2.3948-1.76051,6.75147-1.58849,6.79441-1.5869.02773.00155.05589.00155.08333,0,.04377-.00158,4.40051-.17375,6.79517,1.5869,2.27261,1.67085,2.51795,5.46509,2.51795,7.01883v12.8251Z" fill="#555"/>
          <path d="M57.82483,571.64008c-.51162,0-.92635.42059-.92635.93938v13.53004c0,.51882.41472.93938.92635.93938s.92635-.42056.92635-.93938v-13.53004c0-.51879-.41472-.93938-.92635-.93938Z" fill="#555"/>
          <path d="M45.25589,571.64008c-.51162,0-.92635.42059-.92635.93938v13.53004c0,.51882.41472.93938.92635.93938.51159,0,.92635-.42056.92635-.93938v-13.53004c0-.51879-.41476-.93938-.92635-.93938Z" fill="#555"/>
          <path d="M51.50815,585.17012c-.51162,0-.92638.42059-.92638.93938v14.31447c0,.51882.41476.93938.92638.93938.51159,0,.92635-.42056.92635-.93938v-14.31447c0-.51878-.41476-.93938-.92635-.93938Z" fill="#555"/>
          <path d="M51.64015,546.78252c-3.4828,0-6.31621,2.87334-6.31621,6.4051s2.83341,6.40517,6.31621,6.40517,6.31628-2.87334,6.31628-6.40517-2.83348-6.4051-6.31628-6.4051ZM51.64015,557.71404c-2.46119,0-4.46351-2.0305-4.46351-4.52642s2.00233-4.5263,4.46351-4.5263,4.46355,2.0305,4.46355,4.5263-2.00229,4.52642-4.46355,4.52642Z" fill="#555"/>
        </g>
      </g>
    </g>
  </g>
</svg>