<?xml version="1.0" encoding="UTF-8"?>
<svg id="uuid-dcb168ee-0945-42f9-a7a9-df666e9c916d" data-name="Layer 1" xmlns="http://www.w3.org/2000/svg" viewBox="0 0 1100 443.78088">
  <path d="M49.63514,214.78088c-27.41325,0-49.63514-30.22438-49.63514-57.63514V.89618h1040.34722c27.41322,0,59.65278,22.2219,59.65278,49.63514v164.24956H49.63514Z" fill="#f2f2f2" stroke-width="0"/>
  <text transform="translate(238.13214 42.0278)" fill="#000" font-family="OpenSans-Bold, &apos;Open Sans&apos;" font-size="19" font-weight="700"><tspan x="0" y="0" letter-spacing="-.00642em">O</tspan><tspan x="15" y="0" letter-spacing="-.02339em">s</tspan><tspan x="24" y="0" letter-spacing=".00339em"> </tspan><tspan x="29" y="0" letter-spacing=".02434em">H</tspan><tspan x="44" y="0" letter-spacing=".01244em">o</tspan><tspan x="56" y="0" letter-spacing=".01807em">m</tspan><tspan x="75" y="0" letter-spacing="-.01187em">e</tspan><tspan x="86" y="0" letter-spacing="-.02565em">n</tspan><tspan x="98" y="0" letter-spacing="-.02339em">s</tspan><tspan x="107" y="0" letter-spacing="-.022em">:</tspan></text>
  <path d="M49.63514,443.78088c-27.41325,0-49.63514-63.22438-49.63514-90.63514v-128.24956h477.34722c27.41322,0,59.65278,22.2219,59.65278,49.63514v169.24956H49.63514Z" fill="#f2f2f2" stroke-width="0"/>
  <text transform="translate(239.23631 269.15692)" fill="#000" font-family="OpenSans-Bold, &apos;Open Sans&apos;" font-size="19" font-weight="700"><tspan x="0" y="0" letter-spacing="-.00573em">A</tspan><tspan x="13" y="0" letter-spacing="-.02339em">s</tspan><tspan x="22" y="0" letter-spacing=".00339em"> </tspan><tspan x="27" y="0" letter-spacing=".0045em">M</tspan><tspan x="45" y="0" letter-spacing="-.02565em">u</tspan><tspan x="57" y="0" letter-spacing=".01061em">l</tspan><tspan x="63" y="0" letter-spacing="-.02565em">h</tspan><tspan x="75" y="0" letter-spacing="-.01187em">e</tspan><tspan x="86" y="0" letter-spacing=".01958em">r</tspan><tspan x="95" y="0" letter-spacing="-.01187em">e</tspan><tspan x="106" y="0" letter-spacing="-.02339em">s</tspan><tspan x="115" y="0" letter-spacing="-.022em">:</tspan></text>
  <g>
    <path d="M49.63514,443.78088c-27.41325,0-49.63514-32.22438-49.63514-59.63514v-159.24956h184.89089v218.8847H49.63514Z" fill="#f9e2bb" stroke-width="0"/>
    <rect x="184.89089" y="224.89618" width="3.31066" height="218.8847" fill="#cccecf" stroke-width="0"/>
    <g>
      <g opacity=".3">
        <g>
          <path d="M160.13434,331.96552c-.61378-1.23847-1.976-4.22162-3.5532-7.67581-4.78165-10.47142-8.86448-19.31493-10.39814-21.47494-4.889-6.88608-11.40565-7.45717-18.80366-7.47023-7.39232.01306-13.90907.58415-18.79797,7.47012-1.21682,1.7138-4.19393,8.11451-8.59687,17.68403-2.89835,6.29919-5.89536,12.81284-6.94669,14.53415-1.35225,2.21367-1.19694,4.00805-.82859,5.12349.84004,2.54352,3.37481,3.73125,3.87481,3.94376,1.59233.76036,3.38552.86073,5.05477.28238,1.68098-.58254,3.03311-1.78434,3.80722-3.38391,1.17026-2.41797,3.45336-7.15931,5.53314-11.48188l-4.67935,37.9464c-.26623,1.48475.1144,2.97886,1.04859,4.10817.84022,1.01578,2.04843,1.5983,3.31466,1.5983h4.32401v25.10315c0,3.93823,3.2039,7.14211,7.14215,7.14211h.53529c2.20171,0,4.17338-1.00191,5.48453-2.57317,1.31118,1.57125,3.28275,2.57317,5.48446,2.57317h.53529c3.93825,0,7.14224-3.20388,7.14224-7.14211v-25.10315h3.79017c1.26632,0,2.47453-.58252,3.31475-1.5983.93419-1.1293,1.31482-2.62341,1.04859-4.10817l-4.67944-37.94617c2.07978,4.32256,4.36281,9.06367,5.53314,11.48165.77411,1.59957,2.12624,2.80137,3.80724,3.38391,1.68501.58413,3.49653.47579,5.10059-.30445.04529-.02209.08966-.04614.13285-.07226.22744-.1376,5.52342-3.46972,1.2754-12.04023Z" fill="#fff" stroke-width="0"/>
          <path d="M127.40703,293.99275c.13651.00463.27229.00693.40806.00693,6.36261,0,11.64447-5.0644,11.86209-11.47144.22205-6.54362-4.92091-12.04797-11.46442-12.2702h-.00009c-6.53717-.21889-12.04783,4.92079-12.27025,11.46439-.10763,3.16988,1.02569,6.192,3.19107,8.50949,2.16531,2.31761,5.10363,3.65318,8.27353,3.76082Z" fill="#fff" stroke-width="0"/>
        </g>
      </g>
      <g id="uuid-258898a2-cef7-4da5-83f5-35fca1fb14b5" data-name="02" opacity=".3">
        <g>
          <path d="M69.85126,285.76893c.14778.00498.29486.00751.4417.00751,6.88585,0,12.60176-5.48066,12.83707-12.41438.11654-3.43039-1.10991-6.70075-3.45327-9.20878-2.34334-2.50805-5.52305-3.95336-8.95358-4.0699-3.42781-.11622-6.70094,1.11-9.20875,3.45327-2.50805,2.34327-3.95332,5.5231-4.06988,8.9536-.24043,7.08136,5.32526,13.03818,12.40671,13.27868Z" fill="#fff" stroke-width="0"/>
          <path d="M98.44115,305.26018c-2.65981-10.02359-6.14517-12.22348-11.15905-14.43554-5.06788-2.23562-11.08024-3.24329-17.87452-2.99376-6.79359-.25022-12.80692.75791-17.87471,2.99376-5.01388,2.21205-8.49933,4.41194-11.15905,14.43554-1.8092,6.81729-6.26228,29.81535-6.48831,30.98481-.99231,4.71197,2.38964,7.7824,5.95599,8.64163,3.05622.737,7.28845-1.75624,8.47261-6.5102.00645-.02612.01232-.0525.01755-.07885l2.64619-13.37223v70.50785c0,5.49177,4.23466,9.95955,9.43978,9.95955h.68788c3.58103,0,6.70257-2.11456,8.30205-5.22247,1.59929,3.10791,4.72088,5.22247,8.30193,5.22247h.68786c5.2051,0,9.43974-4.46778,9.43974-9.95955v-70.50843l4.994,7.27323,6.13485-12.56184c-.84912-4.01328.02716-12.29584-.52481-14.37596Z" fill="#fff" stroke-width="0"/>
        </g>
      </g>
      <g id="uuid-a4bc38fd-8d12-4750-bd02-b83ec27f1f91" data-name="04">
        <path d="M134.75605,370.62111v26.41707c0,2.14182-1.74255,3.88423-3.88435,3.88423h-.54336c-2.1417,0-3.88411-1.74241-3.88411-3.88423v-26.41707h-3.36492v26.41707c0,3.99725,3.25191,7.24915,7.24904,7.24915h.54336c3.99725,0,7.24927-3.25191,7.24927-7.24915v-26.41707h-3.36492Z" fill="#555" stroke-width="0"/>
        <path d="M123.07931,370.62111v26.41707c0,2.14182-1.74253,3.88423-3.88432,3.88423h-.54338c-2.14179,0-3.88423-1.74241-3.88423-3.88423v-26.41707h-3.3649v26.41707c0,3.99725,3.25189,7.24915,7.24913,7.24915h.54338c3.99722,0,7.24925-3.25191,7.24925-7.24915v-26.41707h-3.36492Z" fill="#555" stroke-width="0"/>
        <path d="M141.96798,371.55878h-34.95438c-1.28519,0-2.51148-.59127-3.36433-1.62226-.94812-1.14624-1.33447-2.66276-1.06432-4.16976l4.74952-38.51516c-2.11092,4.38734-4.4283,9.19975-5.61609,11.65396-.78572,1.62355-2.1581,2.84338-3.86428,3.43463-1.69429.58703-3.51429.48517-5.13056-.28659-.50747-.21571-3.0802-1.42122-3.93281-4.00287-.3739-1.13216-.53151-2.95345.84098-5.20029,1.06704-1.74711,4.10897-8.35842,7.05081-14.75201,4.46889-9.71297,7.49064-16.2096,8.72573-17.94909,4.96216-6.98919,11.57662-7.56883,19.07973-7.58207,7.50886.01325,14.12319.59288,19.08549,7.58219,1.55663,2.19238,5.70068,11.16845,10.55395,21.79683,1.60088,3.50598,2.98349,6.53383,3.60655,7.79085,4.31164,8.69899-1.06374,12.08103-1.29459,12.22069-.04377.02651-.08883.05093-.13485.07335-1.62811.79194-3.46677.90189-5.17705.30901-1.70615-.59125-3.07854-1.81108-3.86426-3.43463-1.18791-2.45421-3.50517-7.26639-5.61609-11.65373l4.74963,38.51493c.27015,1.50701-.11619,3.02353-1.06434,4.16976-.85285,1.03099-2.07911,1.62226-3.36444,1.62226ZM110.25799,315.60761c.15713,0,.3164.02207.47376.0683.79065.23191,1.29705,1.00247,1.19613,1.82035l-6.00948,48.7323c-.00445.03663-.01021.07312-.01714.10938-.10115.53011.02631,1.07349.34071,1.45372.15185.18355.40887.40219.77162.40219h34.95438c.36289,0,.6199-.21875.77176-.40219.31451-.38024.44186-.92361.34068-1.45372-.00691-.03626-.01267-.07275-.01712-.10938l-6.0096-48.7323c-.10092-.81788.40546-1.58844,1.19611-1.82035.79099-.23179,1.63306.14282,1.99005.88558.07535.15667,7.55779,15.72444,10.05213,20.87812.39362.81343,1.08171,1.42463,1.93737,1.7212.82304.2853,1.7051.24693,2.4968-.10597.41523-.32027,2.68248-2.39694-.00716-7.82349-.64677-1.30491-1.97314-4.20966-3.65255-7.88735-3.47958-7.62022-8.73805-19.13594-10.23661-21.24663-4.04947-5.70329-9.32746-6.15288-16.34187-6.16521-7.00866.01232-12.28676.46192-16.33612,6.16521-1.14552,1.61346-5.00628,10.00438-8.41251,17.40748-3.11963,6.78004-6.06615,13.18421-7.23612,15.09962-.57081.93453-.74006,1.71673-.5173,2.39118.35771,1.08298,1.71461,1.82387,2.05836,1.96305.03543.01433.07051.02992.10491.04672.81859.39832,1.7429.45347,2.60302.15538.85566-.29657,1.54373-.90777,1.93735-1.72106,2.49436-5.15383,9.9768-20.72159,10.05213-20.87826.2859-.59489.88349-.95388,1.51629-.95388Z" fill="#555" stroke-width="0"/>
        <path d="M124.93018,291.79527c-.13778,0-.27556-.00235-.41415-.00705-3.2174-.10926-6.19972-1.46487-8.39749-3.81722-2.19791-2.35221-3.34813-5.41962-3.23887-8.63702.22566-6.64169,5.819-11.8584,12.4541-11.63624h.00014c6.64155.22557,11.86156,5.81243,11.63624,12.45412-.22087,6.50308-5.58195,11.64341-12.03998,11.64341ZM124.92115,271.05574c-4.65539,0-8.5193,3.70478-8.67844,8.39244-.07876,2.31913.75027,4.53005,2.33449,6.22565,1.58422,1.69549,3.7339,2.67262,6.05291,2.75135,4.78681.1636,8.81447-3.6001,8.97701-8.3874.16254-4.78741-3.6001-8.81447-8.3874-8.97701-.09965-.00341-.19963-.00504-.29857-.00504Z" fill="#555" stroke-width="0"/>
      </g>
      <path d="M67.13895,283.74529c-.14904,0-.29832-.0026-.44831-.00765-7.18762-.24409-12.83671-6.29018-12.59271-13.47771.11829-3.48193,1.58528-6.70939,4.1309-9.08779,2.54541-2.3784,5.8676-3.623,9.34681-3.50505,3.48193.11831,6.70928,1.58528,9.08779,4.13092,2.3784,2.54562,3.62323,5.865,3.50505,9.34681-.23895,7.03766-6.04047,12.60047-13.02954,12.60047ZM67.12487,261.02438c-2.4602,0-4.79211.91845-6.59884,2.60641-1.88879,1.76485-2.97741,4.15967-3.06506,6.74321-.18109,5.33337,4.01049,9.81954,9.34375,10.0006,2.58388.08956,5.04666-.83582,6.93568-2.60065,1.88876-1.76485,2.97739-4.15967,3.06506-6.74321.18109-5.33337-4.01063-9.81954-9.34388-10.00062-.11242-.00387-.22474-.00574-.3367-.00574Z" fill="#555" stroke-width="0"/>
      <path d="M90.17872,329.99235l-4.95993-25.06475c-.14202-.71799-.74032-1.26278-1.46757-1.34587-.47625-.054-.95331.09694-1.31115.41615-.35782.31921-.56238.77586-.56238,1.25538v88.6938c0,3.71865-2.78867,6.74392-6.21637,6.74392h-.69816c-3.4277,0-6.21626-3.02528-6.21626-6.74392v-45.28371l.00069-.0636c.00447-.29445.0149-.98418-.54596-1.55347-.35172-.35713-.83276-.55381-1.35467-.55381h-.62048c-.52177,0-1.00281.19668-1.35455.5537-.56086.56929-.55052,1.25914-.54607,1.5537l.00071,45.3472c0,3.71865-2.78856,6.74392-6.21626,6.74392h-.69818c-3.4277,0-6.21637-3.02528-6.21637-6.74392v-88.6938c0-.47998-.20901-.93663-.56743-1.25584-.35854-.31921-.84087-.46992-1.31689-.41451-.7261.08427-1.31477.62762-1.45665,1.34469l-6.00232,30.33184c-.75227,2.94947-3.22233,4.42841-4.53685,4.11215-2.00215-.48236-4.13021-2.03325-3.5385-4.81653.00212-.01021.00424-.02041.0061-.03052.04706-.24329,4.72217-24.40041,6.5369-31.23903,2.48694-9.37215,5.55189-10.72435,9.43223-12.43638,4.68849-2.06833,10.31491-2.99418,16.72094-2.7523.04225.00164.08473.00164.12698,0,6.4058-.24259,12.03221.68397,16.72082,2.7523,3.88036,1.71203,6.94517,3.06423,9.43214,12.43638.63631,2.39809,2.38038,9.30313,3.39741,14.18246l1.92281-4.32632c-.86188-4.0734-1.50758-8.60788-2.06787-10.71919-2.69971-10.17383-6.23727-12.40671-11.32629-14.65189-5.14383-2.26914-11.24638-3.29192-18.1425-3.03866-6.89541-.25395-12.99888.76929-18.14262,3.03866-5.08902,2.24518-8.62667,4.47806-11.32629,14.65189-1.83631,6.91948-6.35616,30.26225-6.5856,31.44924-1.00717,4.7826,2.42546,7.89905,6.04528,8.77116,3.10201.74803,7.39772-1.78257,8.59958-6.60778.00657-.02651.01255-.05328.01783-.08003l2.68589-13.57267v71.56468c0,5.57408,4.29814,10.10883,9.58127,10.10883h.69818c3.63472,0,6.80306-2.14626,8.42647-5.30075,1.62332,3.15449,4.79165,5.30075,8.42637,5.30075h.69816c5.28315,0,9.5813-4.53475,9.5813-10.10883v-71.56528l2.07266,12.39146c-.05761,0,2.82659-4.80702,2.86345-4.78089Z" fill="#555" stroke-width="0"/>
    </g>
  </g>
  <g>
    <text transform="translate(237.26013 304.20538)" fill="#212121" font-family="OpenSans-Regular, &apos;Open Sans&apos;" font-size="19"><tspan x="0" y="0" letter-spacing=".02159em">m</tspan><tspan x="18" y="0" letter-spacing=".02328em">a</tspan><tspan x="29" y="0" letter-spacing=".01072em">i</tspan><tspan x="34" y="0" letter-spacing="-.00288em">s</tspan><tspan x="43" y="0" letter-spacing=".00339em"> </tspan><tspan x="48" y="0" letter-spacing=".02328em">a</tspan><tspan x="59" y="0" letter-spacing=".01976em">p</tspan><tspan x="71" y="0" letter-spacing="-.02262em">o</tspan><tspan x="82" y="0" letter-spacing=".01072em">i</tspan><tspan x="87" y="0" letter-spacing=".02328em">a</tspan><tspan x="98" y="0" letter-spacing=".01976em">d</tspan><tspan x="110" y="0" letter-spacing=".02328em">a</tspan><tspan x="121" y="0" letter-spacing="-.00288em">s</tspan><tspan x="130" y="0" letter-spacing=".00339em"> </tspan><tspan x="0" y="31" letter-spacing=".01742em">e</tspan><tspan x="11" y="31" letter-spacing=".02159em">m</tspan><tspan x="29" y="31" letter-spacing="-.02262em">o</tspan><tspan x="40" y="31" letter-spacing="-.00532em">c</tspan><tspan x="49" y="31" letter-spacing=".01072em">i</tspan><tspan x="54" y="31" letter-spacing="-.02262em">o</tspan><tspan x="65" y="31" letter-spacing=".0183em">n</tspan><tspan x="77" y="31" letter-spacing=".02328em">a</tspan><tspan x="88" y="31" letter-spacing=".01072em">l</tspan><tspan x="93" y="31" letter-spacing=".02159em">m</tspan><tspan x="111" y="31" letter-spacing=".01742em">e</tspan><tspan x="122" y="31" letter-spacing=".0183em">n</tspan><tspan x="134" y="31" letter-spacing=".01198em">t</tspan><tspan x="141" y="31" letter-spacing=".01742em">e</tspan><tspan x="152" y="31" letter-spacing=".00046em">;</tspan><tspan x="0" y="66" letter-spacing=".02159em">m</tspan><tspan x="18" y="66" letter-spacing=".01742em">e</tspan><tspan x="29" y="66" letter-spacing=".0183em">n</tspan><tspan x="41" y="66" letter-spacing="-.02262em">o</tspan><tspan x="52" y="66" letter-spacing="-.00288em">s</tspan><tspan x="61" y="66" letter-spacing=".00339em"> </tspan><tspan x="66" y="66" letter-spacing=".01742em">e</tspan><tspan x="77" y="66" letter-spacing="-.00288em">s</tspan><tspan x="86" y="66" letter-spacing=".01198em">t</tspan><tspan x="93" y="66" letter-spacing=".01236em">r</tspan><tspan x="101" y="66" letter-spacing=".01742em">e</tspan><tspan x="112" y="66" letter-spacing="-.00288em">ss</tspan><tspan x="130" y="66" letter-spacing=".02328em">a</tspan><tspan x="141" y="66" letter-spacing=".01976em">d</tspan><tspan x="153" y="66" letter-spacing=".02328em">a</tspan><tspan x="164" y="66" letter-spacing="-.00288em">s</tspan><tspan x="173" y="66" letter-spacing=".00046em">;</tspan><tspan x="0" y="101" letter-spacing=".01198em">t</tspan><tspan x="7" y="101" letter-spacing=".01742em">ê</tspan><tspan x="18" y="101" letter-spacing=".02159em">m</tspan><tspan x="36" y="101" letter-spacing=".00339em"> </tspan><tspan x="41" y="101" letter-spacing=".02159em">m</tspan><tspan x="59" y="101" letter-spacing=".01742em">e</tspan><tspan x="70" y="101" letter-spacing=".01072em">l</tspan><tspan x="75" y="101" letter-spacing=".0183em">h</tspan><tspan x="87" y="101" letter-spacing="-.02262em">o</tspan><tspan x="98" y="101" letter-spacing=".01236em">r</tspan><tspan x="106" y="101" letter-spacing=".00339em"> </tspan><tspan x="111" y="101" letter-spacing=".01976em">q</tspan><tspan x="123" y="101" letter-spacing=".0183em">u</tspan><tspan x="135" y="101" letter-spacing=".02328em">a</tspan><tspan x="146" y="101" letter-spacing=".01072em">li</tspan><tspan x="156" y="101" letter-spacing=".01976em">d</tspan><tspan x="168" y="101" letter-spacing=".02328em">a</tspan><tspan x="179" y="101" letter-spacing=".01976em">d</tspan><tspan x="191" y="101" letter-spacing=".01742em">e</tspan><tspan x="202" y="101" letter-spacing=".00339em"> </tspan><tspan x="207" y="101" letter-spacing=".01976em">d</tspan><tspan x="219" y="101" letter-spacing=".01742em">e</tspan><tspan x="230" y="101" letter-spacing=".00339em"> </tspan><tspan x="235" y="101" letter-spacing="-.02583em">v</tspan><tspan x="244" y="101" letter-spacing=".01072em">i</tspan><tspan x="249" y="101" letter-spacing=".01976em">d</tspan><tspan x="261" y="101" letter-spacing=".02328em">a</tspan><tspan x="272" y="101" letter-spacing=".00046em">.</tspan></text>
    <circle cx="221.85839" cy="297.78433" r="4.40283" fill="#212121" stroke-width="0"/>
    <circle cx="221.85839" cy="400.78433" r="4.40283" fill="#212121" stroke-width="0"/>
    <circle cx="221.85839" cy="364.78433" r="4.40283" fill="#212121" stroke-width="0"/>
  </g>
  <path d="M612.63514,443.78088c-27.41325,0-49.63514-63.22438-49.63514-90.63514v-128.24956h477.34722c27.41322,0,59.65278,22.2219,59.65278,49.63514v169.24956h-487.36486Z" fill="#f2f2f2" stroke-width="0"/>
  <rect x="747.89089" y="224.89618" width="3.31066" height="218.8847" fill="#cccecf" stroke-width="0"/>
  <text transform="translate(790.25995 261.4111)" fill="#000" font-family="OpenSans-Bold, &apos;Open Sans&apos;" font-size="19" font-weight="700"><tspan x="0" y="0" letter-spacing="-.00563em">C</tspan><tspan x="12" y="0" letter-spacing=".01958em">r</tspan><tspan x="21" y="0" letter-spacing=".01061em">i</tspan><tspan x="27" y="0" letter-spacing="-.02506em">a</tspan><tspan x="38" y="0" letter-spacing="-.02565em">n</tspan><tspan x="50" y="0" letter-spacing=".01216em">ç</tspan><tspan x="60" y="0" letter-spacing="-.02506em">a</tspan><tspan x="71" y="0" letter-spacing="-.02339em">s</tspan><tspan x="80" y="0" letter-spacing=".00339em"> </tspan><tspan x="85" y="0" letter-spacing=".01216em">c</tspan><tspan x="95" y="0" letter-spacing=".01244em">o</tspan><tspan x="107" y="0" letter-spacing=".01807em">m</tspan><tspan x="126" y="0" letter-spacing=".00339em"> </tspan><tspan x="131" y="0" letter-spacing="-.02506em">a</tspan><tspan x="142" y="0" letter-spacing="-.00123em">p</tspan><tspan x="154" y="0" letter-spacing=".01244em">o</tspan><tspan x="166" y="0" letter-spacing=".01061em">i</tspan><tspan x="172" y="0" letter-spacing=".01244em">o</tspan><tspan x="184" y="0" letter-spacing=".00339em"> </tspan><tspan x="189" y="0" letter-spacing="-.01187em">e</tspan><tspan x="200" y="0" letter-spacing=".00339em"> </tspan><tspan x="205" y="0" letter-spacing="-.02506em">a</tspan><tspan x="216" y="0" letter-spacing="-.01879em">f</tspan><tspan x="223" y="0" letter-spacing="-.01187em">e</tspan><tspan x="234" y="0" letter-spacing="-.01303em">t</tspan><tspan x="242" y="0" letter-spacing=".01244em">o</tspan><tspan x="254" y="0" letter-spacing=".00339em"> </tspan><tspan x="0" y="31" letter-spacing="-.00123em">d</tspan><tspan x="12" y="31" letter-spacing="-.01187em">e</tspan><tspan x="23" y="31" letter-spacing=".00339em"> </tspan><tspan x="28" y="31" letter-spacing="-.02565em">u</tspan><tspan x="40" y="31" letter-spacing=".01807em">m</tspan><tspan x="59" y="31" letter-spacing="-.02506em">a</tspan><tspan x="70" y="31" letter-spacing=".00339em"> </tspan><tspan x="75" y="31" letter-spacing="-.01879em">f</tspan><tspan x="82" y="31" letter-spacing=".01061em">i</tspan><tspan x="88" y="31" letter-spacing=".01401em">g</tspan><tspan x="99" y="31" letter-spacing="-.02565em">u</tspan><tspan x="111" y="31" letter-spacing=".01958em">r</tspan><tspan x="120" y="31" letter-spacing="-.02506em">a</tspan><tspan x="131" y="31" letter-spacing=".00339em"> </tspan><tspan x="136" y="31" letter-spacing="-.00123em">p</tspan><tspan x="148" y="31" letter-spacing="-.02506em">a</tspan><tspan x="159" y="31" letter-spacing="-.01303em">t</tspan><tspan x="167" y="31" letter-spacing="-.01187em">e</tspan><tspan x="178" y="31" letter-spacing=".01958em">r</tspan><tspan x="187" y="31" letter-spacing="-.02565em">n</tspan><tspan x="199" y="31" letter-spacing="-.02506em">a</tspan><tspan x="210" y="31" letter-spacing=".00339em"> </tspan><tspan x="215" y="31" letter-spacing="-.02339em">s</tspan><tspan x="224" y="31" letter-spacing="-.02506em">ã</tspan><tspan x="235" y="31" letter-spacing=".01244em">o</tspan><tspan x="247" y="31" letter-spacing="-.022em">:</tspan></text>
  <g>
    <text transform="translate(792.25964 324.20538)" fill="#212121" font-family="OpenSans-Regular, &apos;Open Sans&apos;" font-size="19"><tspan x="0" y="0" letter-spacing=".02159em">m</tspan><tspan x="18" y="0" letter-spacing=".02328em">a</tspan><tspan x="29" y="0" letter-spacing=".01072em">i</tspan><tspan x="34" y="0" letter-spacing="-.00288em">s</tspan><tspan x="43" y="0" letter-spacing=".00339em"> </tspan><tspan x="48" y="0" letter-spacing="-.00288em">s</tspan><tspan x="57" y="0" letter-spacing=".01742em">e</tspan><tspan x="68" y="0" letter-spacing="-.01665em">g</tspan><tspan x="78" y="0" letter-spacing=".0183em">u</tspan><tspan x="90" y="0" letter-spacing=".01236em">r</tspan><tspan x="98" y="0" letter-spacing=".02328em">a</tspan><tspan x="109" y="0" letter-spacing="-.00288em">s</tspan><tspan x="118" y="0" letter-spacing=".00046em">;</tspan><tspan x="0" y="35" letter-spacing=".02159em">m</tspan><tspan x="18" y="35" letter-spacing=".02328em">a</tspan><tspan x="29" y="35" letter-spacing=".01072em">i</tspan><tspan x="34" y="35" letter-spacing="-.00288em">s</tspan><tspan x="43" y="35" letter-spacing=".00339em"> </tspan><tspan x="48" y="35" letter-spacing=".01976em">p</tspan><tspan x="60" y="35" letter-spacing=".01236em">r</tspan><tspan x="68" y="35" letter-spacing="-.02262em">o</tspan><tspan x="79" y="35" letter-spacing=".01198em">t</tspan><tspan x="86" y="35" letter-spacing=".01742em">e</tspan><tspan x="97" y="35" letter-spacing="-.01665em">g</tspan><tspan x="107" y="35" letter-spacing=".01072em">i</tspan><tspan x="112" y="35" letter-spacing=".01976em">d</tspan><tspan x="124" y="35" letter-spacing=".02328em">a</tspan><tspan x="135" y="35" letter-spacing="-.00288em">s</tspan><tspan x="144" y="35" letter-spacing=".00339em"> </tspan><tspan x="149" y="35" letter-spacing=".01976em">d</tspan><tspan x="161" y="35" letter-spacing=".02328em">a</tspan><tspan x="172" y="35" letter-spacing=".00339em"> </tspan><tspan x="177" y="35" letter-spacing="-.02583em">v</tspan><tspan x="186" y="35" letter-spacing=".01072em">i</tspan><tspan x="191" y="35" letter-spacing="-.02262em">o</tspan><tspan x="202" y="35" letter-spacing=".01072em">l</tspan><tspan x="207" y="35" letter-spacing=".01742em">ê</tspan><tspan x="218" y="35" letter-spacing=".0183em">n</tspan><tspan x="230" y="35" letter-spacing="-.00532em">c</tspan><tspan x="239" y="35" letter-spacing=".01072em">i</tspan><tspan x="244" y="35" letter-spacing=".02328em">a</tspan><tspan x="255" y="35" letter-spacing=".00046em">;</tspan><tspan x="0" y="70" letter-spacing=".01072em">li</tspan><tspan x="10" y="70" letter-spacing=".01976em">d</tspan><tspan x="22" y="70" letter-spacing=".02328em">a</tspan><tspan x="33" y="70" letter-spacing=".02159em">m</tspan><tspan x="51" y="70" letter-spacing=".00339em"> </tspan><tspan x="56" y="70" letter-spacing="-.00532em">c</tspan><tspan x="65" y="70" letter-spacing="-.02262em">o</tspan><tspan x="76" y="70" letter-spacing=".02159em">m</tspan><tspan x="94" y="70" letter-spacing=".00339em"> </tspan><tspan x="99" y="70" letter-spacing=".02328em">a</tspan><tspan x="110" y="70" letter-spacing="-.00288em">s</tspan><tspan x="119" y="70" letter-spacing=".00339em"> </tspan><tspan x="124" y="70" letter-spacing=".01198em">t</tspan><tspan x="131" y="70" letter-spacing=".01742em">e</tspan><tspan x="142" y="70" letter-spacing=".0183em">n</tspan><tspan x="154" y="70" letter-spacing="-.00288em">s</tspan><tspan x="163" y="70" letter-spacing="-.02262em">õ</tspan><tspan x="174" y="70" letter-spacing=".01742em">e</tspan><tspan x="185" y="70" letter-spacing="-.00288em">s</tspan><tspan x="194" y="70" letter-spacing=".00339em"> </tspan><tspan x="199" y="70" letter-spacing=".01976em">d</tspan><tspan x="211" y="70" letter-spacing=".02328em">a</tspan><tspan x="222" y="70" letter-spacing=".00339em"> </tspan><tspan x="227" y="70" letter-spacing="-.02583em">v</tspan><tspan x="236" y="70" letter-spacing=".01072em">i</tspan><tspan x="241" y="70" letter-spacing=".01976em">d</tspan><tspan x="253" y="70" letter-spacing=".02328em">a</tspan><tspan x="264" y="70" letter-spacing=".00339em"> </tspan><tspan x="0" y="101" letter-spacing="-.00532em">c</tspan><tspan x="9" y="101" letter-spacing="-.02262em">o</tspan><tspan x="20" y="101" letter-spacing=".02159em">m</tspan><tspan x="38" y="101" letter-spacing=".00339em"> </tspan><tspan x="43" y="101" letter-spacing=".02159em">m</tspan><tspan x="61" y="101" letter-spacing=".02328em">a</tspan><tspan x="72" y="101" letter-spacing=".01072em">i</tspan><tspan x="77" y="101" letter-spacing="-.02262em">o</tspan><tspan x="88" y="101" letter-spacing=".01236em">r</tspan><tspan x="96" y="101" letter-spacing=".00339em"> </tspan><tspan x="101" y="101" letter-spacing="-.02064em">f</tspan><tspan x="107" y="101" letter-spacing=".02328em">a</tspan><tspan x="118" y="101" letter-spacing="-.00532em">c</tspan><tspan x="127" y="101" letter-spacing=".01072em">ili</tspan><tspan x="142" y="101" letter-spacing=".01976em">d</tspan><tspan x="154" y="101" letter-spacing=".02328em">a</tspan><tspan x="165" y="101" letter-spacing=".01976em">d</tspan><tspan x="177" y="101" letter-spacing=".01742em">e</tspan><tspan x="188" y="101" letter-spacing=".00046em">.</tspan></text>
    <circle cx="776.85839" cy="317.78433" r="4.40283" fill="#212121" stroke-width="0"/>
    <circle cx="776.85839" cy="388.78433" r="4.40283" fill="#212121" stroke-width="0"/>
    <circle cx="776.85839" cy="353.78433" r="4.40283" fill="#212121" stroke-width="0"/>
  </g>
  <g>
    <path d="M612.63514,443.78088c-27.41325,0-49.63514-32.22438-49.63514-59.63514v-159.24956h184.89089v218.8847h-135.25575Z" fill="#cfc5d9" stroke-width="0"/>
    <g>
      <g id="uuid-76084983-7661-4dd9-ad4c-2b43917d7ada" data-name="9" opacity=".3">
        <g id="uuid-f9384f69-0262-4b60-b029-44ce48f7d726" data-name="02">
          <path d="M674.92026,269.15769c-.0141-.0005-.02821-.00075-.04231-.00075" fill="#fff" stroke-width="0"/>
          <path d="M667.94298,254.70963h-2.72722c-.1267.7254-.15441,1.43363-.13053,2.06442-.54997.03879-1.09648.25408-1.58261.69937-.65527.60008-.90717,1.49198-.69102,2.44672.22209.98104.91212,1.9541,1.71846,2.51088.92883,3.65351,4.05977,9.56809,10.34788,9.3987.09069.00254.17916.00371.26837.00371,6.11824-.00062,9.16418-5.80143,10.07952-9.40242.80621-.55677,1.49636-1.52971,1.71834-2.51063.21615-.95487-.03564-1.84664-.69078-2.44685" fill="#fff" stroke-width="0"/>
          <path d="M684.84895,259.37809c.72047.0876,1.37858-.41436,1.48387-1.13199.03415-.23311.80046-5.75045-2.52201-9.59661-2.00768-2.32442-5.01322-3.50299-8.9328-3.50299-3.67788,0-6.55927,1.1289-8.56465,3.3552-3.47546,3.85865-2.92246,9.56456-2.89709,9.80558.05029.47994.35541.89549.79829,1.08702.34261.14816.72641.14439,1.06047.00037M680.71989,255.62133,672.74957,254.36438,667.85798,257.68834" fill="#fff" stroke-width="0"/>
          <path d="M661.10291,341.14558v-44.93707c0-.23441.00878-.486.02784-.79143.0365-.58864-.2581-1.14863-.7639-1.45207-.50605-.30357-1.13904-.29943-1.64076.01008l-.49986.30814c-.46633.28755-.75041.79626-.75041,1.34418v32.22433c0,2.57942-1.78663,4.67791-3.98256,4.67791h-.16332c-1.04204,0-2.19865-.55387-3.04198-1.42938l-2.23156,2.23157c1.44205,1.46624,3.41626,2.35585,5.27354,2.35585h.16332c1.68196,0,3.23005-.64147,4.45161-1.71333v7.17121h3.15804Z" fill="#fff" stroke-width="0"/>
          <path d="M657.94487,378.21639v7.05167c0,5.38261,3.97106,9.7616,8.85238,9.7616h.42179c3.45041,0,6.44612-2.18826,7.90586-5.37197,1.45975,3.18372,4.45545,5.37197,7.90574,5.37197h.42167c4.88133,0,8.85238-4.37899,8.85238-9.7616v-51.05502c1.12358.92567,2.51948,1.47466,4.0302,1.47466h.16307c3.49408,0,7.40192-3.1482,7.40192-7.36158v-25.62355c0-.17712.00718-.63732.01695-1.2945.01794-1.21179.04553-3.0431.05976-5.02838.05432-7.63861-3.60853-14.71301-9.55973-18.46253-4.67767-2.94702-9.68842-4.70291-14.8939-5.21873-2.37237-.23515-6.85887-.23515-9.23161,0-3.69217.36586-7.74167,1.68647-12.03591,3.92503-7.13194,3.71766-11.78127,11.50963-12.13366,20.3351-.1304,3.27311-.19375,5.15198-.19375,5.74402v11.15141l.64291,6.10381" fill="#fff" stroke-width="0"/>
          <path d="M672.91339,385.26806c0,3.6412-2.55449,6.6035-5.69435,6.6035h-.42179" fill="#fff" stroke-width="0"/>
          <path d="M689.14665,385.26806c0,3.6412-2.55462,6.6035-5.69435,6.6035h-.42167c-3.13973,0-5.69422-2.9623-5.69422-6.6035" fill="#fff" stroke-width="0"/>
          <line x1="691.95713" y1="294.17491" x2="691.45468" y2="293.89789" fill="#fff" stroke-width="0"/>
          <path d="M700.81855,296.35711c-.01398,1.97297-.04133,3.79684-.05939,5.00375-.01015.68112-.01732,1.1581-.01732,1.34171v25.62355c0,2.32844-2.32151,4.20354-4.24388,4.20354h-.16307c-1.96369,0-3.56115-1.88568-3.56115-4.20354" fill="#fff" stroke-width="0"/>
        </g>
        <g id="uuid-73651d71-e3bf-41e1-8162-4a3267badb06" data-name="01">
          <path d="M652.38948,337.11218c-4.79564-3.4767-12.61817-3.30064-13.50691-3.26815-.88862-.03365-8.71133-.20873-13.50691,3.26815-4.8692,3.53027-5.59623,10.50923-5.59623,14.35501v21.55797c0,3.90511,2.96162,7.1312,6.75692,7.55014v22.47343c0,4.05129,3.12339,7.34717,6.96268,7.34717,2.16679,0,4.10555-1.05002,5.38353-2.69282,1.27799,1.6428,3.21681,2.69282,5.38367,2.69282,3.83916,0,6.96261-3.29587,6.96261-7.34717v-22.47343c3.79536-.41894,6.75699-3.64503,6.75699-7.55014v-21.55797c0-3.84578-.72697-10.82448-5.59635-14.35501Z" fill="#fff" stroke-width="0"/>
          <path d="M649.59489,354.72038c-.8721,0-1.57902.70698-1.57902,1.57902v22.74291c0,.8721.70692,1.57902,1.57902,1.57902s1.57902-.70692,1.57902-1.57902v-22.74291c0-.87204-.70692-1.57902-1.57902-1.57902Z" fill="#fff" stroke-width="0"/>
          <path d="M628.1703,354.72038c-.8721,0-1.57902.70698-1.57902,1.57902v22.74291c0,.8721.70692,1.57902,1.57902,1.57902.87203,0,1.57902-.70692,1.57902-1.57902v-22.74291c0-.87204-.70698-1.57902-1.57902-1.57902Z" fill="#fff" stroke-width="0"/>
          <path d="M638.8277,377.46329c-.8721,0-1.57908.70698-1.57908,1.57902v24.06148c0,.8721.70698,1.57902,1.57908,1.57902.87203,0,1.57902-.70692,1.57902-1.57902v-24.06148c0-.87203-.70698-1.57902-1.57902-1.57902Z" fill="#fff" stroke-width="0"/>
          <path d="M639.0527,312.93681c-5.93667,0-10.7664,4.82985-10.7664,10.76645s4.82973,10.76658,10.7664,10.76658,10.76652-4.82985,10.76652-10.76658-4.82986-10.76645-10.76652-10.76645Z" fill="#fff" stroke-width="0"/>
        </g>
      </g>
      <g id="uuid-b8b7ee85-b1bb-4df7-8137-46680a2959ab" data-name="9">
        <g id="uuid-d1286dfd-8632-430e-81a7-fb6e86439c9c" data-name="02">
          <path d="M681.4225,255.69129c.02388-.63075-.00384-1.33899-.13066-2.06442h-2.72709c.47499,1.75185-.05308,3.70985-.05951,3.73277-.16802.59142.08945,1.22114.62346,1.52575.53377.30462,1.20672.20545,1.63049-.24041.05011-.05258.1585-.13585.26453-.19951-.13523.28922-.41894.65062-.60305.73389-.4688.14303-.8218.53351-.9198,1.01358-.06694.32974-1.71611,8.07531-7.8289,7.88198-.0141-.0005-.02821-.00075-.04231-.00075-.01386,0-.02821.00025-.04219.00075-.0756.00235-.14983.00352-.2242.00352-5.92843,0-7.53863-7.55979-7.60421-7.88316-.09663-.48217-.43057-.86554-.90087-1.00919-.19858-.08828-.48637-.45136-.62223-.74101.0944.05623.19525.13084.26429.19988.42204.44456,1.09252.54292,1.62653.24041.53377-.30233.79261-.93099.62829-1.52198-.00718-.0258-.53537-1.98453-.06038-3.73655h-2.72722c-.1267.7254-.15441,1.43363-.13053,2.06442-.54997.03879-1.09648.25408-1.58261.69937-.65527.60008-.90717,1.49198-.69102,2.44672.22209.98104.91212,1.9541,1.71846,2.51088.92883,3.65351,4.05977,9.56809,10.34788,9.3987.09069.00254.17916.00371.26837.00371,6.11824-.00062,9.16418-5.80143,10.07952-9.40242.80621-.55677,1.49636-1.52971,1.71834-2.51063.21615-.95487-.03564-1.84664-.69078-2.44685-.48637-.44554-1.03251-.66071-1.58261-.6995Z" fill="#555" stroke-width="0"/>
          <path d="M671.62973,244.06375c-3.67788,0-6.55927,1.1289-8.56465,3.3552-3.47546,3.85865-2.92246,9.56456-2.89709,9.80558.05029.47994.35541.89549.79829,1.08702.34261.14816.72641.14439,1.06047.00037.16914.05357.44363.18955.63101.31761.44387.30895,1.03103.31947,1.48579.02685.45501-.29274.68873-.83102.59167-1.36337l-.12552-.68743c.41065-3.01204,2.05166-4.37528,3.14554-4.95971.34347.52715.887,1.10694,1.74605,1.63575,1.56028.96032,3.45455.98686,5.12562,1.01037,1.0455.01473,2.03285.02858,2.8447.24659,1.04711.28136,1.04711,2.47648.99044,3.04489-.06669.62619.31031,1.21749.9086,1.41403.13858.04553.27994.06749.41944.06749.46287,0,.90408-.24102,1.14844-.65879.07356-.07034.40688-.13666.66213-.11086.72047.0876,1.37858-.41436,1.48387-1.13199.03415-.23311.80046-5.75045-2.52201-9.59661-2.00768-2.32442-5.01322-3.50299-8.9328-3.50299ZM678.1648,251.95798c-1.13397-.30475-2.33698-.32157-3.50039-.33797-1.45498-.02041-2.82923-.03978-3.76251-.61418-.83009-.51081-1.01915-.97721-1.0588-1.11715.043-.40744-.11457-.73259-.41845-1.01915-.31532-.29713-.76105-.33023-1.18643-.24504-.1632.03279-2.98841.63943-4.83053,3.50584.33876-1.02237.85879-2.05648,1.65325-2.93458,1.47707-1.63222,3.6871-2.45978,6.5688-2.45978,3.10062,0,5.4222.86306,6.89995,2.56519,1.15012,1.32495,1.65023,2.98513,1.85326,4.40398-.46262-.80807-1.16954-1.46556-2.21814-1.74717Z" fill="#555" stroke-width="0"/>
          <path d="M657.85464,340.06282v-44.93707c0-.23441.00878-.486.02784-.79143.0365-.58864-.2581-1.14863-.7639-1.45207-.50605-.30357-1.13904-.29943-1.64076.01008l-.49986.30814c-.46633.28755-.75041.79626-.75041,1.34418v32.22433c0,2.57942-1.78663,4.67791-3.98256,4.67791h-.16332c-1.04204,0-2.19865-.55387-3.04198-1.42938l-2.23156,2.23157c1.44205,1.46624,3.41626,2.35585,5.27354,2.35585h.16332c1.68196,0,3.23005-.64147,4.45161-1.71333v7.17121h3.15804Z" fill="#555" stroke-width="0"/>
          <path d="M691.16857,276.83439c-4.67767-2.94702-9.68842-4.70291-14.8939-5.21873-2.37237-.23515-6.85887-.23515-9.23161,0-3.69217.36586-7.74167,1.68647-12.03591,3.92503-7.13194,3.71766-11.78127,11.50963-12.13366,20.3351-.1304,3.27311-.19375,5.15198-.19375,5.74402v11.15141h3.00598c.05246,0,.10307.00278.15206.00784v-11.15925c0-.37273.03328-1.64998.19154-5.61819.30709-7.69738,4.30673-14.46463,10.43771-17.66066,3.93505-2.05123,7.59815-3.25671,10.88746-3.58273,2.17279-.21547,6.43659-.21547,8.60888,0,4.71318.46714,9.26242,2.06465,13.52176,4.7482,5.03376,3.17152,8.13191,9.21354,8.08514,15.76792-.01398,1.97297-.04133,3.79684-.05939,5.00375-.01015.68112-.01732,1.1581-.01732,1.34171v25.62355c0,2.32844-2.32151,4.20354-4.24388,4.20354h-.16307c-1.96369,0-3.56115-1.88568-3.56115-4.20354v-32.76842c0-.57521-.31303-1.10496-.81661-1.38278l-.50246-.27703c-.50481-.27839-1.12209-.25958-1.60896.0498-.48699.30926-.76675.8596-.72925,1.43525.02067.31637.03019.57874.03019.82558v89.05955c0,3.6412-2.55462,6.6035-5.69435,6.6035h-.42167c-3.13973,0-5.69422-2.9623-5.69422-6.6035v-41.45259c0-1.13224-.89753-2.05339-2.00093-2.05339h-.42142c-1.10316,0-2.00068.92116-2.00068,2.05339v41.45259c0,3.6412-2.55449,6.6035-5.69435,6.6035h-.42179c-3.13973,0-5.69434-2.9623-5.69434-6.6035v-7.05167h-3.15804v7.05167c0,5.38261,3.97106,9.7616,8.85238,9.7616h.42179c3.45041,0,6.44612-2.18826,7.90586-5.37197,1.45975,3.18372,4.45545,5.37197,7.90574,5.37197h.42167c4.88133,0,8.85238-4.37899,8.85238-9.7616v-51.05502c1.12358.92567,2.51948,1.47466,4.0302,1.47466h.16307c3.49408,0,7.40192-3.1482,7.40192-7.36158v-25.62355c0-.17712.00718-.63732.01695-1.2945.01794-1.21179.04553-3.0431.05976-5.02838.05432-7.63861-3.60853-14.71301-9.55973-18.46253Z" fill="#555" stroke-width="0"/>
        </g>
        <g id="uuid-7fd08ef2-3750-43aa-85f5-5759e536ede6" data-name="01">
          <path d="M649.1412,336.02943c-4.79564-3.4767-12.61817-3.30064-13.50691-3.26815-.88862-.03365-8.71133-.20873-13.50691,3.26815-4.8692,3.53027-5.59623,10.50923-5.59623,14.35501v21.55797c0,3.90511,2.96162,7.1312,6.75692,7.55014v22.47343c0,4.05129,3.12339,7.34717,6.96268,7.34717,2.16679,0,4.10555-1.05002,5.38353-2.69282,1.27799,1.6428,3.21681,2.69282,5.38367,2.69282,3.83916,0,6.96261-3.29587,6.96261-7.34717v-22.47343c3.79536-.41894,6.75699-3.64503,6.75699-7.55014v-21.55797c0-3.84578-.72697-10.82448-5.59635-14.35501ZM651.57951,371.9424c0,2.44728-1.99097,4.43813-4.43826,4.43813h-.73971c-.8721,0-1.57908.70698-1.57908,1.57902v24.00643c0,2.30994-1.70664,4.18912-3.80452,4.18912s-3.80464-1.87918-3.80464-4.18912c0-.87204-.70692-1.57902-1.57902-1.57902-.87203,0-1.57902.70698-1.57902,1.57902,0,2.30994-1.70664,4.18912-3.80452,4.18912s-3.80464-1.87918-3.80464-4.18912v-24.00643c0-.87203-.70698-1.57902-1.57902-1.57902h-.73971c-2.44716,0-4.43819-1.99085-4.43819-4.43813v-21.55797c0-2.61171.41826-8.98972,4.29195-11.7981,4.0821-2.95927,11.50833-2.67012,11.58152-2.66746.04727.0026.09527.0026.14204,0,.07461-.00266,7.50096-.29206,11.58282,2.66746,3.87381,2.80856,4.292,9.18638,4.292,11.7981v21.55797Z" fill="#555" stroke-width="0"/>
          <path d="M646.34662,353.63762c-.8721,0-1.57902.70698-1.57902,1.57902v22.74291c0,.8721.70692,1.57902,1.57902,1.57902s1.57902-.70692,1.57902-1.57902v-22.74291c0-.87204-.70692-1.57902-1.57902-1.57902Z" fill="#555" stroke-width="0"/>
          <path d="M624.92203,353.63762c-.8721,0-1.57902.70698-1.57902,1.57902v22.74291c0,.8721.70692,1.57902,1.57902,1.57902.87203,0,1.57902-.70692,1.57902-1.57902v-22.74291c0-.87204-.70698-1.57902-1.57902-1.57902Z" fill="#555" stroke-width="0"/>
          <path d="M635.57942,376.38053c-.8721,0-1.57908.70698-1.57908,1.57902v24.06148c0,.8721.70698,1.57902,1.57908,1.57902.87203,0,1.57902-.70692,1.57902-1.57902v-24.06148c0-.87203-.70698-1.57902-1.57902-1.57902Z" fill="#555" stroke-width="0"/>
          <path d="M635.80442,311.85405c-5.93667,0-10.7664,4.82985-10.7664,10.76645s4.82973,10.76658,10.7664,10.76658,10.76652-4.82985,10.76652-10.76658-4.82986-10.76645-10.76652-10.76645ZM635.80442,330.22905c-4.19525,0-7.60836-3.41311-7.60836-7.60855s3.4131-7.60836,7.60836-7.60836,7.60841,3.41311,7.60841,7.60836-3.41304,7.60855-7.60841,7.60855Z" fill="#555" stroke-width="0"/>
        </g>
      </g>
    </g>
  </g>
  <g>
    <path d="M49.63514,214.78088c-27.41325,0-49.63514-2.22438-49.63514-29.63514V.89618h184.89089v213.8847H49.63514Z" fill="#c5d9d7" stroke-width="0"/>
    <rect x="184.89089" y=".89618" width="3.31066" height="213.8847" fill="#cccecf" stroke-width="0"/>
    <g>
      <g>
        <path d="M62.63261,77.73059c-3.0949-1.61333-5.97602-2.56147-8.56302-2.81785-1.70897-.16948-5.06252-.16948-6.77107,0-3.70694.36738-7.28492,1.62388-10.63489,3.73446-3.95919,2.49447-6.39583,7.24655-6.35908,12.40168.01102,1.55174.03245,2.98621.04666,3.9355.008.53569.01362.91083.01362,1.05526v20.15316c0,1.83134,1.8259,3.3061,3.33783,3.3061h.12839c1.54435,0,2.80084-1.48305,2.80084-3.3061v-25.77272c0-.45239.24614-.869.64225-1.08749l.39516-.21795c.39705-.21896.88259-.20411,1.26543.03917.38306.24323.60307.6761.57358,1.12887-.01624.24881-.02368.45516-.02368.64931v70.04622c0,2.86385,2.00915,5.19374,4.47862,5.19374h.33155c2.46951,0,4.47868-2.32989,4.47868-5.19374v-32.60289c0-.89046.70584-1.61501,1.57366-1.61501h.33153c.86766,0,1.5735.72455,1.5735,1.61501v32.60289c0,2.86385,2.00917,5.19374,4.47868,5.19374h.33175c2.46947,0,4.47864-2.32989,4.47864-5.19374v-70.04622c0-.18431-.0069-.3822-.02183-.62246-.02875-.46298.20299-.90343.60081-1.14206.39798-.23878.89581-.2355,1.29039.00791l.39315.24238c.36684.22612.59017.62623.59017,1.0572v25.34473c0,2.02878,1.40521,3.67921,3.13242,3.67921h.12839c1.51193,0,3.33789-1.47476,3.33789-3.3061v-20.15316c0-.29315-.02617-1.29771-.15058-4.41874-.24167-6.05412-3.38733-11.3766-8.20946-13.8903Z" fill="#fff" opacity=".3" stroke-width="0"/>
        <path d="M57.04896,62.56983c-.10969,0-.22088-.01727-.32983-.05309-.2429-.07975-.43798-.24306-.56406-.44931-.00234-.00383-.00396-.00804-.0063-.01188-.02653-.0447-.05071-.09068-.07048-.13895-.00575-.01392-.00906-.02866-.01417-.0428-.01416-.03932-.02837-.07852-.03785-.11954-.00689-.02956-.00939-.06001-.01373-.09017-.00383-.02701-.00991-.05342-.01161-.08087-.00388-.05983-.00286-.12031.00374-.18096.04441-.45019.04318-2.17153-.77918-2.39247-.6385-.17148-1.41508-.18241-2.23738-.19398-1.3143-.01846-2.80421-.03934-4.03138-.79465-.67564-.41591-1.10311-.87193-1.37327-1.28652-.86037.45966-2.15098,1.53189-2.47398,3.90088l.09383.5139c.01196.0503.01983.07949.02055.08213.1291.46481-.07444.95924-.49429,1.19705-.41998.2379-.94729.16056-1.2792-.18909-.05428-.05428-.13363-.11299-.20785-.15721.10689.22783.33325.51341.4894.58279.36978.11299.63249.41452.70847.79377.05168.25429,1.31804,6.20018,5.98087,6.20018.05836,0,.11678-.00093.17628-.00278.01102-.00038.02221-.00059.03322-.00059.01102,0,.02221.0002.03324.00059,4.80779.15205,6.1049-5.9399,6.15757-6.19926.07704-.37757.35469-.6847.72336-.79721.1448-.06547.36795-.34975.47435-.57719-.08341.0501-.16871.11559-.20805.15692-.00238.00251-.00527.00429-.00765.00679-.1979.20686-.47052.32354-.7546.32354Z" fill="#fff" opacity=".3" stroke-width="0"/>
        <path d="M38.35261,60.4742c.17466.77163.71741,1.53693,1.35166,1.97482.73047,2.87356,3.19303,7.52543,8.1387,7.39221.07129.00196.1409.00289.21103.00289,4.81209-.00046,7.20768-4.56288,7.92772-7.3951.63403-.43789,1.17681-1.20309,1.35144-1.97461.15663-.69197-.0026-1.33943-.4312-1.80658-.02031.2808-.04468.45604-.04961.48973-.08286.56443-.60047.95923-1.16713.8903-.20078-.02024-.46294.03192-.52075.08722-.04223.07219-.09303.13637-.14872.19461.00238-.00251.00527-.00429.00765-.00679.03935-.04133.12465-.10682.20807-.15692-.1064.22744-.32955.51172-.47435.57719-.36868.11251-.64632.41965-.72336.79721-.05267.25936-1.34978,6.35131-6.15758,6.19926-.01101-.00038-.02219-.00059-.03322-.00059-.01101,0-.02219.0002-.03322.00059-.05952.00185-.11791.00278-.17628.00278-4.66283,0-5.92919-5.94589-5.98087-6.20018-.07598-.37925-.33869-.68078-.70847-.79377-.15617-.06939-.38251-.35497-.4894-.58279.07422.04422.15355.10293.20783.15721.33193.34966.85924.42699,1.27922.18909.41985-.23781.62339-.73224.49429-1.19705-.00071-.00264-.00859-.03183-.02055-.08213l.00489.02672c.07633.4187-.10749.84208-.46536,1.07232-.35766.23015-.8195.22186-1.16861-.02108-.1474-.10077-.36328-.20768-.4963-.24984-.26271.11324-.56461.11621-.83404-.00029-.34839-.15067-.58831-.47748-.62786-.85494-.00388-.03662-.02306-.23493-.03208-.55078-.43763.46801-.60162,1.12102-.44355,1.81929Z" fill="#555" stroke-width="0"/>
        <path d="M41.37627,55.19902c.03935-.06126.07951-.12059.11996-.17926h-.05659c-.02135.05977-.0436.11954-.06338.17926Z" fill="#555" stroke-width="0"/>
        <path d="M40.14088,57.99979c-.0362-.95706.07462-2.14005.61629-3.21129.15115.14106.36022.23127.62757.23127h.05492c.26663-.74497.65846-1.48946,1.23693-2.12882,1.16167-1.2837,2.89991-1.93464,5.16639-1.93464,2.43873,0,4.26463.67882,5.4269,2.01758.90458,1.04207,1.29788,2.34784,1.45762,3.4638-.36387-.63561-.91989-1.15271-1.74457-1.37422-.89191-.23966-1.83808-.25291-2.75311-.26577-1.14433-.01604-2.22522-.03128-2.95926-.48306-.65288-.40174-.80159-.76859-.83272-.87867.03377-.32045-.09015-.57618-.32917-.80155-.24795-.2337-.59856-.25974-.93311-.19276-.12491.02514-2.23101.47796-3.6793,2.57812h1.67489c-.05488.05142-.11064.10218-.15981.15734-1.17108,1.31392-.7049,3.59732-.5958,4.0557l-.09383-.5139c.323-2.36899,1.6136-3.44122,2.47398-3.90088.27016.41459.69763.87061,1.37325,1.28652,1.22719.75532,2.71709.77619,4.0314.79465.8223.01157,1.59888.02251,2.23738.19398.82236.22094.82358,1.94227.77918,2.39247.0063-.05798.0174-.11606.03377-.17368.00306-.0108.1528-.56661.19305-1.3059h2.15779c.41355.0408.82243.20871,1.18833.54386.04051.03712.07559.07801.11215.1179.09013-1.24613.09936-4.58934-2.03325-7.05808-1.57907-1.82817-3.94295-2.75515-7.02574-2.75515-2.89264,0-5.1589.88788-6.73613,2.6389-2.20557,2.44871-2.34824,5.84195-2.31069,7.16142.03302-.03527.06386-.07197.09997-.10506.38233-.35023.81223-.51958,1.24475-.55007Z" fill="#555" stroke-width="0"/>
        <path d="M39.4561,60.06064c.26943.1165.57133.11354.83404.00029.13302.04216.34891.14906.4963.24984.34911.24293.81095.25123,1.16861.02108.35786-.23024.54168-.65363.46536-1.07232l-.00489-.02672c-.10911-.45838-.57529-2.74178.5958-4.0557.04917-.05516.10493-.10592.15981-.15734h-1.67489c-.04045.05867-.08061.11801-.11996.17926.01978-.05972.04203-.11949.06338-.17926h-.05492c-.26734,0-.47642-.09021-.62757-.23127-.54166,1.07124-.65249,2.25423-.61629,3.21129-.43252.03049-.86243.19984-1.24475.55007-.03611.03309-.06695.06979-.09997.10506.00903.31585.0282.51416.03208.55078.03955.37746.27947.70426.62786.85494Z" fill="#555" stroke-width="0"/>
        <path d="M70.68867,114.27617v-20.15314c0-.46563-.04981-1.94341-.15241-4.51778-.27709-6.9413-3.93379-13.06973-9.54319-15.99372-3.3774-1.76067-6.56245-2.79928-9.46628-3.0871-1.86628-.1849-5.39498-.1849-7.26084,0-4.0941.40573-8.03518,1.78675-11.71414,4.10465-4.68074,2.949-7.56158,8.51308-7.51888,14.52092.01119,1.56145.03283,3.0018.04701,3.95491.00765.51683.01326.8788.01326,1.01812v20.15314c0,3.31386,3.07366,5.78996,5.8217,5.78996h.12839c1.18817,0,2.28604-.43175,3.16972-1.1598v40.15526c0,4.23346,3.12328,7.67759,6.96249,7.67759h.33155c2.71372,0,5.06995-1.7211,6.21802-4.22505,1.14806,2.50395,3.50429,4.22505,6.21803,4.22505h.33175c3.83921,0,6.96249-3.44414,6.96249-7.67759v-40.34298c.96071.84298,2.17838,1.34752,3.50127,1.34752h.12839c2.74804,0,5.82168-2.4761,5.82168-5.78996ZM68.20488,114.27617c0,1.83136-1.82595,3.30611-3.33789,3.30611h-.12839c-1.72721,0-3.13242-1.65043-3.13242-3.67921v-25.34473c0-.43097-.22334-.83107-.59019-1.0572l-.39313-.24238c-.39458-.24341-.8924-.24669-1.29039-.00791-.39782.23863-.62956.67906-.60081,1.14206.01492.24026.02183.43814.02183.62246v70.04622c0,2.86385-2.00917,5.19374-4.47864,5.19374h-.33175c-2.46953,0-4.47868-2.32989-4.47868-5.19374v-32.60289c0-.89046-.70584-1.61501-1.5735-1.61501h-.33155c-.86781,0-1.57365.72455-1.57365,1.61501v32.60289c0,2.86385-2.00917,5.19374-4.47868,5.19374h-.33155c-2.46947,0-4.47864-2.32989-4.47864-5.19374v-70.04622c0-.19415.00745-.40049.0237-.64931.02948-.45278-.19052-.88565-.57358-1.12887-.38284-.24328-.86838-.25813-1.26543-.03919l-.39518.21797c-.39612.21849-.64224.63509-.64224,1.08749v25.77271c0,1.82306-1.25649,3.30611-2.80084,3.30611h-.12839c-1.51193,0-3.33785-1.47476-3.33785-3.30611v-20.15314c0-.14443-.0056-.51956-.01361-1.05526-.01421-.94928-.03565-2.38375-.04666-3.9355-.03675-5.15512,2.39987-9.90721,6.35908-12.40168,3.34997-2.11058,6.92794-3.36708,10.63489-3.73446,1.70855-.16948,5.0621-.16948,6.77107,0,2.587.25637,5.4681,1.20452,8.56302,2.81785,4.82213,2.5137,7.96779,7.83616,8.20946,13.8903.12441,3.12103.15058,4.1256.15058,4.41874v20.15314Z" fill="#555" stroke-width="0"/>
      </g>
      <g>
        <path d="M160.51658,77.73059c-3.0949-1.61333-5.97602-2.56147-8.56302-2.81785-1.70897-.16948-5.06252-.16948-6.77107,0-3.70694.36738-7.28492,1.62388-10.63489,3.73446-3.95919,2.49447-6.39583,7.24655-6.35908,12.40168.01102,1.55174.03245,2.98621.04666,3.9355.008.53569.01362.91083.01362,1.05526v20.15316c0,1.83134,1.8259,3.3061,3.33783,3.3061h.12839c1.54435,0,2.80084-1.48305,2.80084-3.3061v-25.77272c0-.45239.24614-.869.64225-1.08749l.39516-.21795c.39705-.21896.88259-.20411,1.26543.03917.38306.24323.60307.6761.57358,1.12887-.01624.24881-.02368.45516-.02368.64931v70.04622c0,2.86385,2.00915,5.19374,4.47862,5.19374h.33155c2.46951,0,4.47868-2.32989,4.47868-5.19374v-32.60289c0-.89046.70584-1.61501,1.57366-1.61501h.33153c.86766,0,1.5735.72455,1.5735,1.61501v32.60289c0,2.86385,2.00917,5.19374,4.47868,5.19374h.33175c2.46947,0,4.47864-2.32989,4.47864-5.19374v-70.04622c0-.18431-.0069-.3822-.02183-.62246-.02875-.46298.20299-.90343.60081-1.14206.39798-.23878.89581-.2355,1.29039.00791l.39315.24238c.36684.22612.59017.62623.59017,1.0572v25.34473c0,2.02878,1.40521,3.67921,3.13242,3.67921h.12839c1.51193,0,3.33789-1.47476,3.33789-3.3061v-20.15316c0-.29315-.02617-1.29771-.15058-4.41874-.24167-6.05412-3.38733-11.3766-8.20946-13.8903Z" fill="#fff" opacity=".3" stroke-width="0"/>
        <path d="M154.93293,62.56983c-.10969,0-.22088-.01727-.32983-.05309-.2429-.07975-.43798-.24306-.56406-.44931-.00234-.00383-.00396-.00804-.0063-.01188-.02653-.0447-.05071-.09068-.07048-.13895-.00575-.01392-.00906-.02866-.01417-.0428-.01416-.03932-.02837-.07852-.03785-.11954-.00689-.02956-.00939-.06001-.01373-.09017-.00383-.02701-.00991-.05342-.01161-.08087-.00388-.05983-.00286-.12031.00374-.18096.04441-.45019.04318-2.17153-.77918-2.39247-.6385-.17148-1.41508-.18241-2.23738-.19398-1.3143-.01846-2.80421-.03934-4.03138-.79465-.67564-.41591-1.10311-.87193-1.37327-1.28652-.86037.45966-2.15098,1.53189-2.47398,3.90088l.09383.5139c.01196.0503.01983.07949.02055.08213.1291.46481-.07444.95924-.49429,1.19705-.41998.2379-.94729.16056-1.2792-.18909-.05428-.05428-.13363-.11299-.20785-.15721.10689.22783.33325.51341.4894.58279.36978.11299.63249.41452.70847.79377.05168.25429,1.31804,6.20018,5.98087,6.20018.05836,0,.11678-.00093.17628-.00278.01102-.00038.02221-.00059.03322-.00059.01102,0,.02221.0002.03324.00059,4.80779.15205,6.1049-5.9399,6.15757-6.19926.07704-.37757.35469-.6847.72336-.79721.1448-.06547.36795-.34975.47435-.57719-.08341.0501-.16871.11559-.20805.15692-.00238.00251-.00527.00429-.00765.00679-.1979.20686-.47052.32354-.7546.32354Z" fill="#fff" opacity=".3" stroke-width="0"/>
        <path d="M136.23658,60.4742c.17466.77163.71741,1.53693,1.35166,1.97482.73047,2.87356,3.19303,7.52543,8.1387,7.39221.07129.00196.1409.00289.21103.00289,4.81209-.00046,7.20768-4.56288,7.92772-7.3951.63403-.43789,1.17681-1.20309,1.35144-1.97461.15663-.69197-.0026-1.33943-.4312-1.80658-.02031.2808-.04468.45604-.04961.48973-.08286.56443-.60047.95923-1.16713.8903-.20078-.02024-.46294.03192-.52075.08722-.04223.07219-.09303.13637-.14872.19461.00238-.00251.00527-.00429.00765-.00679.03935-.04133.12465-.10682.20807-.15692-.1064.22744-.32955.51172-.47435.57719-.36868.11251-.64632.41965-.72336.79721-.05267.25936-1.34978,6.35131-6.15758,6.19926-.01101-.00038-.02219-.00059-.03322-.00059-.01101,0-.02219.0002-.03322.00059-.05952.00185-.11791.00278-.17628.00278-4.66283,0-5.92919-5.94589-5.98087-6.20018-.07598-.37925-.33869-.68078-.70847-.79377-.15617-.06939-.38251-.35497-.4894-.58279.07422.04422.15355.10293.20783.15721.33193.34966.85924.42699,1.27922.18909.41985-.23781.62339-.73224.49429-1.19705-.00071-.00264-.00859-.03183-.02055-.08213l.00489.02672c.07633.4187-.10749.84208-.46536,1.07232-.35766.23015-.8195.22186-1.16861-.02108-.1474-.10077-.36328-.20768-.4963-.24984-.26271.11324-.56461.11621-.83404-.00029-.34839-.15067-.58831-.47748-.62786-.85494-.00388-.03662-.02306-.23493-.03208-.55078-.43763.46801-.60162,1.12102-.44355,1.81929Z" fill="#555" stroke-width="0"/>
        <path d="M139.26024,55.19902c.03935-.06126.07951-.12059.11996-.17926h-.05659c-.02135.05977-.0436.11954-.06338.17926Z" fill="#555" stroke-width="0"/>
        <path d="M138.02485,57.99979c-.0362-.95706.07462-2.14005.61629-3.21129.15115.14106.36022.23127.62757.23127h.05492c.26663-.74497.65846-1.48946,1.23693-2.12882,1.16167-1.2837,2.89991-1.93464,5.16639-1.93464,2.43873,0,4.26463.67882,5.4269,2.01758.90458,1.04207,1.29788,2.34784,1.45762,3.4638-.36387-.63561-.91989-1.15271-1.74457-1.37422-.89191-.23966-1.83808-.25291-2.75311-.26577-1.14433-.01604-2.22522-.03128-2.95926-.48306-.65288-.40174-.80159-.76859-.83272-.87867.03377-.32045-.09015-.57618-.32917-.80155-.24795-.2337-.59856-.25974-.93311-.19276-.12491.02514-2.23101.47796-3.6793,2.57812h1.67489c-.05488.05142-.11064.10218-.15981.15734-1.17108,1.31392-.7049,3.59732-.5958,4.0557l-.09383-.5139c.323-2.36899,1.6136-3.44122,2.47398-3.90088.27016.41459.69763.87061,1.37325,1.28652,1.22719.75532,2.71709.77619,4.0314.79465.8223.01157,1.59888.02251,2.23738.19398.82236.22094.82358,1.94227.77918,2.39247.0063-.05798.0174-.11606.03377-.17368.00306-.0108.1528-.56661.19305-1.3059h2.15779c.41355.0408.82243.20871,1.18833.54386.04051.03712.07559.07801.11215.1179.09013-1.24613.09936-4.58934-2.03325-7.05808-1.57907-1.82817-3.94295-2.75515-7.02574-2.75515-2.89264,0-5.1589.88788-6.73613,2.6389-2.20557,2.44871-2.34824,5.84195-2.31069,7.16142.03302-.03527.06386-.07197.09997-.10506.38233-.35023.81223-.51958,1.24475-.55007Z" fill="#555" stroke-width="0"/>
        <path d="M137.34007,60.06064c.26943.1165.57133.11354.83404.00029.13302.04216.34891.14906.4963.24984.34911.24293.81095.25123,1.16861.02108.35786-.23024.54168-.65363.46536-1.07232l-.00489-.02672c-.10911-.45838-.57529-2.74178.5958-4.0557.04917-.05516.10493-.10592.15981-.15734h-1.67489c-.04045.05867-.08061.11801-.11996.17926.01978-.05972.04203-.11949.06338-.17926h-.05492c-.26734,0-.47642-.09021-.62757-.23127-.54166,1.07124-.65249,2.25423-.61629,3.21129-.43252.03049-.86243.19984-1.24475.55007-.03611.03309-.06695.06979-.09997.10506.00903.31585.0282.51416.03208.55078.03955.37746.27947.70426.62786.85494Z" fill="#555" stroke-width="0"/>
        <path d="M168.57264,114.27617v-20.15314c0-.46563-.04981-1.94341-.15241-4.51778-.27709-6.9413-3.93379-13.06973-9.54319-15.99372-3.3774-1.76067-6.56245-2.79928-9.46628-3.0871-1.86628-.1849-5.39498-.1849-7.26084,0-4.0941.40573-8.03518,1.78675-11.71414,4.10465-4.68074,2.949-7.56158,8.51308-7.51888,14.52092.01119,1.56145.03283,3.0018.04701,3.95491.00765.51683.01326.8788.01326,1.01812v20.15314c0,3.31386,3.07366,5.78996,5.8217,5.78996h.12839c1.18817,0,2.28604-.43175,3.16972-1.1598v40.15526c0,4.23346,3.12328,7.67759,6.96249,7.67759h.33155c2.71372,0,5.06995-1.7211,6.21802-4.22505,1.14806,2.50395,3.50429,4.22505,6.21803,4.22505h.33175c3.83921,0,6.96249-3.44414,6.96249-7.67759v-40.34298c.96071.84298,2.17838,1.34752,3.50127,1.34752h.12839c2.74804,0,5.82168-2.4761,5.82168-5.78996ZM166.08885,114.27617c0,1.83136-1.82595,3.30611-3.33789,3.30611h-.12839c-1.72721,0-3.13242-1.65043-3.13242-3.67921v-25.34473c0-.43097-.22334-.83107-.59019-1.0572l-.39313-.24238c-.39458-.24341-.8924-.24669-1.29039-.00791-.39782.23863-.62956.67906-.60081,1.14206.01492.24026.02183.43814.02183.62246v70.04622c0,2.86385-2.00917,5.19374-4.47864,5.19374h-.33175c-2.46953,0-4.47868-2.32989-4.47868-5.19374v-32.60289c0-.89046-.70584-1.61501-1.5735-1.61501h-.33155c-.86781,0-1.57365.72455-1.57365,1.61501v32.60289c0,2.86385-2.00917,5.19374-4.47868,5.19374h-.33155c-2.46947,0-4.47864-2.32989-4.47864-5.19374v-70.04622c0-.19415.00745-.40049.0237-.64931.02948-.45278-.19052-.88565-.57358-1.12887-.38284-.24328-.86838-.25813-1.26543-.03919l-.39518.21797c-.39612.21849-.64224.63509-.64224,1.08749v25.77271c0,1.82306-1.25649,3.30611-2.80084,3.30611h-.12839c-1.51193,0-3.33785-1.47476-3.33785-3.30611v-20.15314c0-.14443-.0056-.51956-.01361-1.05526-.01421-.94928-.03565-2.38375-.04666-3.9355-.03675-5.15512,2.39987-9.90721,6.35908-12.40168,3.34997-2.11058,6.92794-3.36708,10.63489-3.73446,1.70855-.16948,5.0621-.16948,6.77107,0,2.587.25637,5.4681,1.20452,8.56302,2.81785,4.82213,2.5137,7.96779,7.83616,8.20946,13.8903.12441,3.12103.15058,4.1256.15058,4.41874v20.15314Z" fill="#555" stroke-width="0"/>
      </g>
      <g>
        <path d="M110.12094,88.45332c-2.81579-1.46784-5.43709-2.33048-7.79079-2.56373-1.55486-.1542-4.60597-.1542-6.16044,0-3.37264.33425-6.62795,1.47743-9.67582,3.39768-3.60214,2.26951-5.81904,6.59305-5.7856,11.28327.01003,1.4118.02952,2.71691.04245,3.58059.00728.48738.0124.82869.0124.96009v18.33571c0,1.66618,1.66124,3.00795,3.03682,3.00795h.11681c1.40507,0,2.54825-1.34931,2.54825-3.00795v-23.44849c0-.41159.22394-.79063.58434-.98941l.35953-.1983c.36124-.19922.80299-.1857,1.15131.03564.34852.22129.54868.61512.52186,1.02707-.01478.22637-.02154.41411-.02154.59075v63.72933c0,2.60558,1.82796,4.72536,4.07473,4.72536h.30165c2.2468,0,4.07478-2.11978,4.07478-4.72536v-29.6627c0-.81016.64218-1.46937,1.43175-1.46937h.30163c.78942,0,1.4316.65921,1.4316,1.46937v29.6627c0,2.60558,1.82798,4.72536,4.07478,4.72536h.30183c2.24677,0,4.07475-2.11978,4.07475-4.72536v-63.72933c0-.16769-.00628-.34773-.01986-.56632-.02616-.42122.18469-.82195.54663-1.03906.36209-.21724.81502-.21426,1.17402.0072l.3577.22053c.33375.20573.53695.56976.53695.96186v23.05909c0,1.84582,1.27848,3.34741,2.84993,3.34741h.11681c1.37558,0,3.03687-1.34176,3.03687-3.00795v-18.33571c0-.26671-.02381-1.18068-.137-4.02025-.21988-5.50815-3.08185-10.35064-7.46912-12.63765Z" fill="#fff" opacity=".3" stroke-width="0"/>
        <path d="M105.04083,74.65978c-.0998,0-.20097-.01571-.30008-.0483-.22099-.07256-.39848-.22114-.51319-.40879-.00213-.00348-.0036-.00731-.00573-.01081-.02414-.04067-.04613-.08251-.06413-.12642-.00523-.01266-.00825-.02607-.0129-.03894-.01288-.03577-.02581-.07144-.03444-.10876-.00626-.02689-.00855-.0546-.0125-.08204-.00348-.02457-.00901-.0486-.01056-.07358-.00353-.05443-.0026-.10946.0034-.16464.0404-.40959.03929-1.9757-.70891-2.17671-.58092-.15601-1.28746-.16596-2.03561-.17649-1.19578-.01679-2.55132-.03579-3.66782-.72299-.61471-.3784-1.00363-.7933-1.24943-1.1705-.78278.41821-1.957,1.39374-2.25087,3.5491l.08537.46756c.01088.04577.01804.07233.01869.07472.11746.42289-.06773.87274-.44971,1.0891-.3821.21644-.86186.14608-1.16384-.17204-.04938-.04938-.12158-.1028-.1891-.14303.09725.20728.3032.46711.44527.53024.33644.1028.57545.37714.64458.72219.04702.23135,1.19918,5.64104,5.4415,5.64104.0531,0,.10625-.00085.16038-.00253.01003-.00035.02021-.00053.03022-.00053.01003,0,.02021.00018.03024.00053,4.37422.13834,5.55435-5.40423,5.60227-5.6402.07009-.34352.32271-.62296.65813-.72532.13174-.05956.33477-.31821.43157-.52514-.07589.04558-.1535.10516-.18929.14277-.00217.00228-.0048.0039-.00696.00618-.18006.1882-.42809.29437-.68655.29437Z" fill="#fff" opacity=".3" stroke-width="0"/>
        <path d="M88.03055,72.75315c.15891.70205.65271,1.39833,1.22977,1.79672.66459,2.61441,2.90508,6.84678,7.40474,6.72557.06486.00178.12819.00263.192.00263,4.37813-.00042,6.55767-4.15139,7.21279-6.7282.57685-.3984,1.07069-1.0946,1.22957-1.79654.1425-.62957-.00237-1.21864-.39232-1.64366-.01848.25548-.04065.41491-.04513.44557-.07539.51353-.54631.87272-1.06187.81001-.18267-.01841-.42119.02904-.47379.07936-.03842.06568-.08464.12407-.1353.17706.00217-.00228.0048-.0039.00696-.00618.0358-.0376.11341-.09718.1893-.14277-.0968.20693-.29983.46558-.43157.52514-.33544.10237-.58803.3818-.65813.72532-.04792.23597-1.22805,5.77854-5.60228,5.6402-.01001-.00035-.02019-.00053-.03022-.00053-.01001,0-.02019.00018-.03022.00053-.05415.00168-.10728.00253-.16038.00253-4.24233,0-5.39449-5.40968-5.4415-5.64104-.06913-.34505-.30815-.61939-.64458-.72219-.14209-.06313-.34802-.32296-.44527-.53024.06753.04024.1397.09365.18909.14303.302.31813.78175.38848,1.16386.17204.38199-.21636.56717-.66621.44971-1.0891-.00065-.0024-.00781-.02896-.01869-.07472l.00445.02431c.06944.38094-.0978.76614-.42339.97562-.32541.2094-.7456.20185-1.06322-.01918-.1341-.09169-.33052-.18895-.45155-.22731-.23902.10303-.51369.10573-.75883-.00027-.31698-.13709-.53525-.43442-.57124-.77784-.00353-.03332-.02098-.21374-.02919-.50111-.39816.42581-.54736,1.01992-.40355,1.65522Z" fill="#555" stroke-width="0"/>
        <path d="M90.78153,67.95369c.0358-.05573.07234-.10971.10915-.16309h-.05148c-.01943.05438-.03967.10876-.05766.16309Z" fill="#555" stroke-width="0"/>
        <path d="M89.65755,70.50188c-.03294-.87075.06789-1.94706.56071-2.92169.13752.12834.32774.21041.57097.21041h.04997c.24258-.67779.59908-1.35514,1.12538-1.93684,1.05691-1.16794,2.63839-1.76017,4.70047-1.76017,2.2188,0,3.88003.61761,4.93749,1.83563.823.94809,1.18083,2.13611,1.32617,3.15143-.33105-.57829-.83693-1.04876-1.58724-1.25029-.81147-.21804-1.67232-.23011-2.50483-.2418-1.04113-.0146-2.02455-.02846-2.69239-.4395-.594-.36551-.7293-.69928-.75763-.79943.03072-.29155-.08202-.52422-.29948-.72927-.22559-.21263-.54458-.23632-.84896-.17537-.11364.02288-2.02981.43485-3.3475,2.34562h1.52385c-.04993.04678-.10067.09297-.1454.14315-1.06547,1.19543-.64133,3.27291-.54207,3.68995l-.08537-.46756c.29387-2.15535,1.46809-3.13089,2.25087-3.5491.2458.37721.63472.7921,1.24941,1.1705,1.11652.6872,2.47206.70619,3.66784.72299.74815.01053,1.45469.02048,2.03561.17649.7482.20102.74931,1.76712.70891,2.17671.00573-.05275.01583-.1056.03072-.15801.00278-.00983.13902-.51551.17564-1.18813h1.9632c.37626.03712.74826.18989,1.08117.49482.03685.03377.06878.07098.10203.10726.08201-1.13375.0904-4.17547-1.84989-6.42157-1.43666-1.6633-3.58737-2.50668-6.39215-2.50668-2.63177,0-4.69366.80781-6.12865,2.40092-2.00667,2.22788-2.13648,5.31511-2.1023,6.51559.03004-.03209.0581-.06548.09095-.09558.34785-.31864.73898-.47272,1.1325-.50046Z" fill="#555" stroke-width="0"/>
        <path d="M89.03452,72.37687c.24513.106.51981.1033.75883.00027.12103.03835.31744.13562.45155.22731.31763.22103.73782.22857,1.06322.01918.32559-.20948.49283-.59468.42339-.97562l-.00445-.02431c-.09927-.41704-.52341-2.49452.54207-3.68995.04473-.05018.09547-.09637.1454-.14315h-1.52385c-.0368.05338-.07334.10736-.10915.16309.01799-.05433.03824-.10871.05766-.16309h-.04997c-.24323,0-.43345-.08207-.57097-.21041-.49282.97464-.59365,2.05094-.56071,2.92169-.39352.02774-.78465.18182-1.1325.50046-.03286.03011-.06091.0635-.09095.09558.00821.28737.02566.46779.02919.50111.03599.34342.25426.64075.57124.77784Z" fill="#555" stroke-width="0"/>
        <path d="M117.45048,121.70315v-18.3357c0-.42364-.04532-1.76815-.13867-4.11036-.2521-6.31532-3.57904-11.89108-8.68257-14.55138-3.07282-1.60189-5.97064-2.54684-8.61259-2.8087-1.69797-.16823-4.90845-.16823-6.60604,0-3.72489.36914-7.31055,1.62562-10.65773,3.73448-4.25862,2.68306-6.87967,7.74536-6.84081,13.2114.01018,1.42063.02987,2.73109.04277,3.59825.00696.47022.01206.79955.01206.9263v18.3357c0,3.01501,2.79647,5.26781,5.29669,5.26781h.11681c1.08102,0,2.07988-.39282,2.88387-1.05521v36.53399c0,3.85168,2.84162,6.98521,6.3346,6.98521h.30165c2.469,0,4.61273-1.56589,5.65726-3.84403,1.04453,2.27814,3.18827,3.84403,5.65728,3.84403h.30183c3.49298,0,6.3346-3.13354,6.3346-6.98521v-36.70478c.87407.76696,1.98193,1.226,3.18552,1.226h.11681c2.50022,0,5.29667-2.2528,5.29667-5.26781ZM115.19068,121.70315c0,1.6662-1.66129,3.00796-3.03687,3.00796h-.11681c-1.57145,0-2.84993-1.50159-2.84993-3.34741v-23.05909c0-.3921-.2032-.75613-.53697-.96186l-.35768-.22053c-.35899-.22146-.81192-.22444-1.17402-.0072-.36194.21711-.57279.61782-.54663,1.03906.01358.21859.01986.39863.01986.56632v63.72933c0,2.60558-1.82798,4.72536-4.07475,4.72536h-.30183c-2.24682,0-4.07478-2.11978-4.07478-4.72536v-29.6627c0-.81016-.64218-1.46937-1.4316-1.46937h-.30165c-.78955,0-1.43173.65921-1.43173,1.46937v29.6627c0,2.60558-1.82798,4.72536-4.07478,4.72536h-.30165c-2.24677,0-4.07475-2.11978-4.07475-4.72536v-63.72933c0-.17664.00678-.36438.02156-.59075.02682-.41194-.17334-.80578-.52186-1.02707-.34832-.22134-.79007-.23485-1.15131-.03565l-.35954.19832c-.36039.19878-.58432.57782-.58432.98941v23.44848c0,1.65865-1.14318,3.00796-2.54825,3.00796h-.11681c-1.37558,0-3.03684-1.34176-3.03684-3.00796v-18.3357c0-.13141-.0051-.47271-.01238-.96009-.01293-.86367-.03244-2.16878-.04245-3.58059-.03344-4.69023,2.18344-9.01376,5.7856-11.28327,3.04787-1.92025,6.30316-3.06343,9.67582-3.39768,1.55447-.1542,4.60559-.1542,6.16044,0,2.3537.23325,4.97498,1.09589,7.79079,2.56373,4.38726,2.28701,7.24924,7.12948,7.46912,12.63765.11319,2.83957.137,3.75354.137,4.02025v18.3357Z" fill="#555" stroke-width="0"/>
      </g>
    </g>
  </g>
  <g>
    <text transform="translate(237.26013 82.20538)" fill="#212121" font-family="OpenSans-Regular, &apos;Open Sans&apos;" font-size="19"><tspan x="0" y="0">cuidam melhor da sua saúde física e </tspan><tspan x="0" y="31">mental, e dessa forma adoecem menos;</tspan><tspan x="0" y="66">abandonam ou reduzem hábitos </tspan><tspan x="0" y="97">prejudiciais, como o tabagismo;</tspan></text>
    <text transform="translate(675.42157 82.27832)" fill="#212121" font-family="OpenSans-Regular, &apos;Open Sans&apos;" font-size="19"><tspan x="0" y="0">abandonam as drogas;</tspan><tspan x="0" y="35">evitam ou abandonam a participação em </tspan><tspan x="0" y="66">gangues;</tspan><tspan x="0" y="101">sentem-se mais satisfeitos com a vida.</tspan></text>
    <circle cx="221.85839" cy="77.78433" r="4.40283" fill="#212121" stroke-width="0"/>
    <circle cx="221.85839" cy="142.78433" r="4.40283" fill="#212121" stroke-width="0"/>
    <circle cx="633.85839" cy="77.78433" r="4.40283" fill="#212121" stroke-width="0"/>
    <circle cx="633.85839" cy="110.78433" r="4.40283" fill="#212121" stroke-width="0"/>
    <circle cx="633.85839" cy="177.78433" r="4.40283" fill="#212121" stroke-width="0"/>
  </g>
</svg>