<?xml version="1.0" encoding="UTF-8"?>
<svg xmlns="http://www.w3.org/2000/svg" viewBox="0 0 1100 618.65756">
  <g id="Layer_5">
    <rect y=".40276" width="1100" height="618.2548" rx="43.4373" ry="43.4373" fill="#f7f7f7"/>
  </g>
  <g id="Layer_3">
    <rect x="337.119" y="35.3793" width="425.762" height="9.23706" fill="#b5b5b5" opacity=".4"/>
    <text transform="translate(358.50009 40.05679)" font-family="OpenSans-Bold, &apos;Open Sans&apos;" font-size="21" font-weight="700"><tspan x="0" y="0" letter-spacing=".0226em">F</tspan><tspan x="12" y="0" letter-spacing="-.01946em">l</tspan><tspan x="18" y="0" letter-spacing=".00944em">u</tspan><tspan x="32" y="0" letter-spacing="-.0067em">x</tspan><tspan x="44" y="0" letter-spacing="-.00009em">o</tspan><tspan x="57" y="0" letter-spacing=".00649em">g</tspan><tspan x="69" y="0" letter-spacing=".02209em">r</tspan><tspan x="79" y="0" letter-spacing=".01504em">a</tspan><tspan x="92" y="0" letter-spacing=".01807em">m</tspan><tspan x="113" y="0" letter-spacing=".01504em">a</tspan><tspan x="126" y="0" letter-spacing="-.02167em"> </tspan><tspan x="131" y="0" letter-spacing="-.01376em">d</tspan><tspan x="144" y="0" letter-spacing="-.00009em">o</tspan><tspan x="157" y="0" letter-spacing="-.02167em"> </tspan><tspan x="162" y="0" letter-spacing="-.01376em">p</tspan><tspan x="175" y="0" letter-spacing=".02209em">r</tspan><tspan x="185" y="0" letter-spacing="-.01939em">é</tspan><tspan x="197" y="0" letter-spacing=".01156em">-</tspan><tspan x="204" y="0" letter-spacing=".00944em">n</tspan><tspan x="218" y="0" letter-spacing=".01504em">a</tspan><tspan x="231" y="0" letter-spacing="-.00551em">t</tspan><tspan x="240" y="0" letter-spacing=".01504em">a</tspan><tspan x="253" y="0" letter-spacing="-.01946em">l</tspan><tspan x="259" y="0" letter-spacing="-.02167em"> </tspan><tspan x="264" y="0" letter-spacing="-.01376em">d</tspan><tspan x="277" y="0" letter-spacing="-.00009em">o</tspan><tspan x="290" y="0" letter-spacing="-.02167em"> </tspan><tspan x="295" y="0" letter-spacing="-.01376em">p</tspan><tspan x="308" y="0" letter-spacing=".01504em">a</tspan><tspan x="321" y="0" letter-spacing=".02209em">r</tspan><tspan x="331" y="0" letter-spacing=".00965em">c</tspan><tspan x="342" y="0" letter-spacing="-.01939em">ei</tspan><tspan x="360" y="0" letter-spacing=".02209em">r</tspan><tspan x="370" y="0" letter-spacing="-.00009em">o</tspan></text>
    <path d="M189.09972,354.30931H36.94084c-9.06882,0-16.42056-7.83082-16.42056-17.49062v-30.40035c0-9.6598,7.35173-17.49062,16.42056-17.49062h152.15888c9.06882,0,16.42056,7.83082,16.42056,17.49062v30.40035c0,9.6598-7.35173,17.49062-16.42056,17.49062Z" fill="#fff" stroke="#f2bd77" stroke-miterlimit="10"/>
    <path d="M185.06597,350.30931H40.97459c-8.58799,0-15.54994-6.87265-15.54994-15.35049v-26.68061c0-8.47784,6.96194-15.35049,15.54994-15.35049h144.09138c8.58799,0,15.54994,6.87265,15.54994,15.35049v26.68061c0,8.47784-6.96194,15.35049-15.54994,15.35049Z" fill="#f9e9d2"/>
    <g>
      <line x1="109.65353" y1="355.55088" x2="109.65353" y2="379.8209" fill="none" stroke="#565656" stroke-miterlimit="10"/>
      <polygon points="106.74826 377.83946 109.65353 388.68028 112.5588 377.83946 106.74826 377.83946" fill="#565656"/>
    </g>
    <g>
      <rect x="398" y="74.20611" width="300" height="61.3816" rx="16.42056" ry="16.42056" fill="#fff"/>
      <rect x="402" y="78.20611" width="300" height="61.3816" rx="16.42056" ry="16.42056" fill="none" stroke="#bcd3d1" stroke-miterlimit="10" stroke-width="2"/>
    </g>
    <text transform="translate(432.50006 114.60665)" font-family="OpenSans, &apos;Open Sans&apos;" font-size="19"><tspan x="0" y="0" letter-spacing=".00072em">C</tspan><tspan x="12" y="0" letter-spacing=".01781em">he</tspan><tspan x="35" y="0" letter-spacing="-.02154em">g</tspan><tspan x="45" y="0" letter-spacing=".0228em">a</tspan><tspan x="56" y="0" letter-spacing=".01879em">d</tspan><tspan x="68" y="0" letter-spacing=".0228em">a</tspan><tspan x="79" y="0" letter-spacing=".00339em"> </tspan><tspan x="84" y="0" letter-spacing=".01879em">d</tspan><tspan x="96" y="0" letter-spacing=".0228em">a</tspan><tspan x="107" y="0" letter-spacing=".00339em"> </tspan><tspan x="112" y="0" letter-spacing=".01719em">m</tspan><tspan x="130" y="0" letter-spacing=".01781em">u</tspan><tspan x="142" y="0" letter-spacing=".01023em">l</tspan><tspan x="147" y="0" letter-spacing=".01781em">he</tspan><tspan x="170" y="0" letter-spacing=".01285em">r</tspan><tspan x="178" y="0" letter-spacing=".00339em"> </tspan><tspan x="183" y="0" letter-spacing=".0228em">à</tspan><tspan x="194" y="0" letter-spacing=".00339em"> </tspan><tspan x="199" y="0" letter-spacing=".00881em">U</tspan><tspan x="213" y="0" letter-spacing="-.01637em">B</tspan><tspan x="225" y="0" letter-spacing="-.02251em">S</tspan></text>
    <g>
      <line x1="550" y1="139.58769" x2="550" y2="163.85771" fill="none" stroke="#565656" stroke-miterlimit="10"/>
      <polygon points="547.09473 161.87626 550 172.71708 552.90527 161.87626 547.09473 161.87626" fill="#565656"/>
    </g>
    <g>
      <rect x="398" y="175.20611" width="300" height="61.3816" rx="16.42056" ry="16.42056" fill="#fff"/>
      <rect x="402" y="179.20611" width="300" height="61.3816" rx="16.42056" ry="16.42056" fill="none" stroke="#bcd3d1" stroke-miterlimit="10" stroke-width="2"/>
    </g>
    <text transform="translate(471.00006 216.60665)" font-family="OpenSans, &apos;Open Sans&apos;" font-size="19"><tspan x="0" y="0" letter-spacing=".02572em">T</tspan><tspan x="11" y="0" letter-spacing=".01791em">e</tspan><tspan x="22" y="0" letter-spacing="-.00337em">s</tspan><tspan x="31" y="0" letter-spacing=".01539em">t</tspan><tspan x="38" y="0" letter-spacing=".01791em">e</tspan><tspan x="49" y="0" letter-spacing=".00339em"> </tspan><tspan x="54" y="0" letter-spacing=".01879em">d</tspan><tspan x="66" y="0" letter-spacing=".01791em">e</tspan><tspan x="77" y="0" letter-spacing=".00339em"> </tspan><tspan x="82" y="0" letter-spacing="-.02154em">g</tspan><tspan x="92" y="0" letter-spacing=".01285em">r</tspan><tspan x="100" y="0" letter-spacing=".0228em">a</tspan><tspan x="111" y="0" letter-spacing=".02534em">v</tspan><tspan x="121" y="0" letter-spacing=".01023em">i</tspan><tspan x="126" y="0" letter-spacing=".01879em">d</tspan><tspan x="138" y="0" letter-spacing=".01791em">e</tspan><tspan x="149" y="0" letter-spacing=".00591em">z</tspan></text>
    <g>
      <rect x="756.00708" y="183.73785" width="199" height="61.3816" rx="16.42056" ry="16.42056" fill="#e0b6b6"/>
      <rect x="752.00708" y="179.73785" width="199" height="61.3816" rx="16.42056" ry="16.42056" fill="#f4d0d0"/>
    </g>
    <text transform="translate(814.36609 219.13838)" font-family="OpenSans, &apos;Open Sans&apos;" font-size="19"><tspan x="0" y="0" letter-spacing="-.01706em">N</tspan><tspan x="14" y="0" letter-spacing=".01791em">e</tspan><tspan x="25" y="0" letter-spacing="-.02154em">g</tspan><tspan x="35" y="0" letter-spacing=".0228em">a</tspan><tspan x="46" y="0" letter-spacing=".01539em">t</tspan><tspan x="53" y="0" letter-spacing=".01023em">i</tspan><tspan x="58" y="0" letter-spacing=".02534em">v</tspan><tspan x="68" y="0" letter-spacing="-.02506em">o</tspan></text>
    <g>
      <rect x="154.19685" y="183.70114" width="199" height="61.3816" rx="16.42056" ry="16.42056" fill="#a1d0d1"/>
      <rect x="150.19685" y="179.70114" width="199" height="61.3816" rx="16.42056" ry="16.42056" fill="#c2e2e4"/>
    </g>
    <text transform="translate(217.55637 219.10267)" font-family="OpenSans, &apos;Open Sans&apos;" font-size="19"><tspan x="0" y="0" letter-spacing="-.0231em">P</tspan><tspan x="11" y="0" letter-spacing="-.02506em">o</tspan><tspan x="22" y="0" letter-spacing="-.00337em">s</tspan><tspan x="31" y="0" letter-spacing=".01023em">i</tspan><tspan x="36" y="0" letter-spacing=".01539em">t</tspan><tspan x="43" y="0" letter-spacing=".01023em">i</tspan><tspan x="48" y="0" letter-spacing=".02534em">v</tspan><tspan x="58" y="0" letter-spacing="-.02506em">o</tspan></text>
    <g>
      <path d="M1086.25331,345.92741h-465.46084c-6.8733,0-12.44521-7.35173-12.44521-16.42056v-21.54048c0-9.06882,5.57191-16.42056,12.44521-16.42056h465.46084c6.8733,0,12.44521,7.35173,12.44521,16.42056v21.54048c0,9.06882-5.57191,16.42056-12.44521,16.42056Z" fill="#c6c6c6"/>
      <path d="M1083.22169,341.92741h-465.46084c-6.8733,0-12.44521-7.35173-12.44521-16.42056v-21.54048c0-9.06882,5.57191-16.42056,12.44521-16.42056h465.46084c6.8733,0,12.44521,7.35173,12.44521,16.42056v21.54048c0,9.06882-5.57191,16.42056-12.44521,16.42056Z" fill="#e5e5e5"/>
    </g>
    <text transform="translate(612.36621 321.82321)" font-family="OpenSans, &apos;Open Sans&apos;" font-size="19"><tspan x="0" y="0" letter-spacing=".01067em">O</tspan><tspan x="15" y="0" letter-spacing=".01285em">r</tspan><tspan x="23" y="0" letter-spacing=".01023em">i</tspan><tspan x="28" y="0" letter-spacing=".01791em">en</tspan><tspan x="51" y="0" letter-spacing=".01539em">t</tspan><tspan x="58" y="0" letter-spacing=".0228em">a</tspan><tspan x="69" y="0" letter-spacing="-.00239em">ç</tspan><tspan x="78" y="0" letter-spacing="-.02506em">õ</tspan><tspan x="89" y="0" letter-spacing=".01791em">e</tspan><tspan x="100" y="0" letter-spacing="-.00337em">s</tspan><tspan x="109" y="0" letter-spacing=".00339em"> </tspan><tspan x="114" y="0" letter-spacing="-.00337em">s</tspan><tspan x="123" y="0" letter-spacing="-.02506em">o</tspan><tspan x="134" y="0" letter-spacing=".01879em">b</tspan><tspan x="146" y="0" letter-spacing=".01285em">r</tspan><tspan x="154" y="0" letter-spacing=".01791em">e</tspan><tspan x="165" y="0" letter-spacing=".00339em"> </tspan><tspan x="170" y="0" letter-spacing="-.00337em">s</tspan><tspan x="179" y="0" letter-spacing=".0228em">a</tspan><tspan x="190" y="0" letter-spacing=".01781em">ú</tspan><tspan x="202" y="0" letter-spacing=".01879em">d</tspan><tspan x="214" y="0" letter-spacing=".01791em">e</tspan><tspan x="225" y="0" letter-spacing=".00339em"> </tspan><tspan x="230" y="0" letter-spacing="-.00337em">s</tspan><tspan x="239" y="0" letter-spacing=".01791em">e</tspan><tspan x="250" y="0" letter-spacing=".00239em">x</tspan><tspan x="260" y="0" letter-spacing=".01781em">u</tspan><tspan x="272" y="0" letter-spacing=".0228em">a</tspan><tspan x="283" y="0" letter-spacing=".01023em">l</tspan><tspan x="288" y="0" letter-spacing=".00339em"> </tspan><tspan x="293" y="0" letter-spacing=".01791em">e</tspan><tspan x="304" y="0" letter-spacing=".00339em"> </tspan><tspan x="309" y="0" letter-spacing="-.00337em">s</tspan><tspan x="318" y="0" letter-spacing=".0228em">a</tspan><tspan x="329" y="0" letter-spacing=".01781em">ú</tspan><tspan x="341" y="0" letter-spacing=".01879em">d</tspan><tspan x="353" y="0" letter-spacing=".01791em">e</tspan><tspan x="364" y="0" letter-spacing=".00339em"> </tspan><tspan x="369" y="0" letter-spacing=".01285em">r</tspan><tspan x="377" y="0" letter-spacing=".01791em">e</tspan><tspan x="388" y="0" letter-spacing=".01879em">p</tspan><tspan x="400" y="0" letter-spacing=".01285em">r</tspan><tspan x="408" y="0" letter-spacing="-.02506em">o</tspan><tspan x="419" y="0" letter-spacing=".01879em">d</tspan><tspan x="431" y="0" letter-spacing=".01781em">u</tspan><tspan x="443" y="0" letter-spacing=".01539em">t</tspan><tspan x="450" y="0" letter-spacing=".01023em">i</tspan><tspan x="455" y="0" letter-spacing=".02534em">v</tspan><tspan x="465" y="0" letter-spacing=".0228em">a</tspan></text>
    <g>
      <path d="M209.64981,479.30354H23.18897c-6.8733,0-12.44521-7.35173-12.44521-16.42056v-48.54048c0-9.06882,5.57191-16.42056,12.44521-16.42056h186.46084c6.8733,0,12.44521,7.35173,12.44521,16.42056v48.54048c0,9.06882-5.57191,16.42056-12.44521,16.42056Z" fill="#c6c6c6"/>
      <path d="M206.61819,475.30354H20.15735c-6.8733,0-12.44521-7.35173-12.44521-16.42056v-48.54048c0-9.06882,5.57191-16.42056,12.44521-16.42056h186.46084c6.8733,0,12.44521,7.35173,12.44521,16.42056v48.54048c0,9.06882-5.57191,16.42056-12.44521,16.42056Z" fill="#e5e5e5"/>
    </g>
    <g>
      <path d="M27.4502,422.12937v5.64062h-1.57715v-13.56348h3.72021c1.66357,0,2.89307.31836,3.6875.95605.79492.63672,1.19238,1.5957,1.19238,2.875,0,1.79395-.90918,3.00586-2.72754,3.63672l3.68311,6.0957h-1.86475l-3.28418-5.64062h-2.82959ZM27.4502,420.77488h2.16162c1.11328,0,1.92969-.2207,2.44922-.66309s.7793-1.10547.7793-1.99023c0-.89648-.26465-1.54297-.79297-1.93945-.5293-.39551-1.37793-.59375-2.54688-.59375h-2.05029v5.18652Z"/>
      <path d="M41.93652,427.95555c-1.50293,0-2.68896-.45801-3.55811-1.37305-.86865-.91504-1.30322-2.18652-1.30322-3.8125,0-1.63965.40381-2.94141,1.21045-3.90625.80762-.96484,1.89111-1.44727,3.25195-1.44727,1.27393,0,2.28223.41895,3.02441,1.25684.74219.83887,1.11328,1.94434,1.11328,3.31738v.97363h-7.00439c.03076,1.19336.33252,2.09961.90479,2.71777.57178.61914,1.37744.92773,2.4165.92773,1.09473,0,2.17676-.22852,3.24707-.68555v1.37305c-.54443.23438-1.05908.40332-1.54443.50488-.48584.10254-1.07178.15332-1.7583.15332ZM41.51904,418.70555c-.81641,0-1.46729.2666-1.95312.79883-.48535.53125-.77148,1.26758-.85791,2.20703h5.31592c0-.9707-.2168-1.71387-.64941-2.23047-.43311-.5166-1.05176-.77539-1.85547-.77539Z"/>
      <path d="M54.89404,427.77l-.30615-1.44727h-.07422c-.50732.63672-1.0127,1.06836-1.51709,1.29395-.50391.22559-1.1333.33887-1.8877.33887-1.0083,0-1.79834-.25977-2.37012-.7793-.57227-.51953-.8584-1.25879-.8584-2.2168,0-2.05371,1.64209-3.12988,4.92627-3.22852l1.72559-.05664v-.63086c0-.79688-.17139-1.38672-.51514-1.7666-.34277-.38086-.89209-.57129-1.64648-.57129-.84766,0-1.80615.25977-2.87598.7793l-.47314-1.17773c.50098-.27246,1.0498-.48535,1.64697-.64062.59668-.1543,1.19482-.23145,1.79492-.23145,1.21191,0,2.11035.26855,2.69531.80762.58398.53711.87646,1.40039.87646,2.58789v6.93945h-1.14111ZM51.41504,426.68406c.9585,0,1.71143-.2627,2.25928-.78809.54688-.52539.8208-1.26172.8208-2.20801v-.91797l-1.54004.06445c-1.22461.04297-2.10742.2334-2.64893.57031-.54102.33789-.81152.86133-.81152,1.57227,0,.55664.16846.98047.50586,1.27148.33691.29102.80811.43555,1.41455.43555Z"/>
      <path d="M61.18115,427.77h-1.54004v-14.43555h1.54004v14.43555Z"/>
      <path d="M64.51123,414.84617c0-.35156.08643-.61035.25977-.77441.17285-.16309.38965-.24512.64941-.24512.24707,0,.46045.08301.64014.25.1792.16699.26904.42383.26904.76953,0,.34668-.08984.60547-.26904.77539-.17969.16992-.39307.25488-.64014.25488-.25977,0-.47656-.08496-.64941-.25488-.17334-.16992-.25977-.42871-.25977-.77539ZM66.18115,427.77h-1.54004v-10.16797h1.54004v10.16797Z"/>
      <path d="M76.14453,427.77h-7.37549v-1.04883l5.54785-7.92188h-5.20459v-1.19727h6.89307v1.19727l-5.47363,7.77344h5.61279v1.19727Z"/>
      <path d="M84.89404,427.77l-.30615-1.44727h-.07422c-.50732.63672-1.0127,1.06836-1.51709,1.29395-.50391.22559-1.1333.33887-1.8877.33887-1.0083,0-1.79834-.25977-2.37012-.7793-.57227-.51953-.8584-1.25879-.8584-2.2168,0-2.05371,1.64209-3.12988,4.92627-3.22852l1.72559-.05664v-.63086c0-.79688-.17139-1.38672-.51514-1.7666-.34277-.38086-.89209-.57129-1.64648-.57129-.84766,0-1.80615.25977-2.87598.7793l-.47314-1.17773c.50098-.27246,1.0498-.48535,1.64697-.64062.59668-.1543,1.19482-.23145,1.79492-.23145,1.21191,0,2.11035.26855,2.69531.80762.58398.53711.87646,1.40039.87646,2.58789v6.93945h-1.14111ZM81.41504,426.68406c.9585,0,1.71143-.2627,2.25928-.78809.54688-.52539.8208-1.26172.8208-2.20801v-.91797l-1.54004.06445c-1.22461.04297-2.10742.2334-2.64893.57031-.54102.33789-.81152.86133-.81152,1.57227,0,.55664.16846.98047.50586,1.27148.33691.29102.80811.43555,1.41455.43555Z"/>
      <path d="M94.27979,417.41648c.45117,0,.85645.03711,1.21533.11133l-.21338,1.42871c-.4209-.09277-.79199-.13965-1.11328-.13965-.82275,0-1.52637.33398-2.11035,1.00195-.58496.66797-.87695,1.5-.87695,2.49609v5.45508h-1.54004v-10.16797h1.271l.17627,1.88281h.07422c.37695-.66113.83154-1.17188,1.36377-1.53027.53174-.3584,1.11621-.53809,1.75342-.53809Z"/>
      <path d="M111.41748,422.67625c0,1.6582-.41748,2.95215-1.25244,3.88281-.83496.93164-1.98877,1.39648-3.46045,1.39648-.90918,0-1.71631-.21289-2.42139-.64062-.70508-.42578-1.24951-1.03906-1.63281-1.83594-.38379-.79883-.5752-1.73242-.5752-2.80273,0-1.65723.41406-2.94824,1.24316-3.87305.82861-.92383,1.979-1.38672,3.45117-1.38672,1.42236,0,2.55273.47266,3.39111,1.41992.83789.94531,1.25684,2.22656,1.25684,3.83984ZM103.6709,422.67625c0,1.29883.25977,2.28906.7793,2.96875.51953.68066,1.2832,1.02148,2.2915,1.02148,1.00781,0,1.77344-.33887,2.2959-1.0166.52295-.67676.78418-1.66797.78418-2.97363,0-1.29199-.26123-2.27344-.78418-2.94531-.52246-.6709-1.29395-1.00586-2.31445-1.00586-1.0083,0-1.76904.33008-2.28223.99219-.51367.66211-.77002,1.64844-.77002,2.95898Z"/>
      <path d="M115.08838,417.60203v6.5957c0,.8291.18848,1.44727.56592,1.85547.37695.4082.96777.61328,1.77197.61328,1.06348,0,1.8418-.29102,2.33301-.87305.49219-.58105.73779-1.53027.73779-2.84766v-5.34375h1.54004v10.16797h-1.271l-.22266-1.36328h-.0835c-.31543.5-.75293.88379-1.31299,1.15039-.55957.26562-1.19824.39844-1.91553.39844-1.2373,0-2.16309-.29395-2.77881-.88086-.61523-.58789-.92285-1.52832-.92285-2.82031v-6.65234h1.55859Z"/>
      <path d="M136.89404,427.77l-.30615-1.44727h-.07422c-.50732.63672-1.0127,1.06836-1.51709,1.29395-.50391.22559-1.1333.33887-1.8877.33887-1.0083,0-1.79834-.25977-2.37012-.7793-.57227-.51953-.8584-1.25879-.8584-2.2168,0-2.05371,1.64209-3.12988,4.92627-3.22852l1.72559-.05664v-.63086c0-.79688-.17139-1.38672-.51514-1.7666-.34277-.38086-.89209-.57129-1.64648-.57129-.84766,0-1.80615.25977-2.87598.7793l-.47314-1.17773c.50098-.27246,1.0498-.48535,1.64697-.64062.59668-.1543,1.19482-.23145,1.79492-.23145,1.21191,0,2.11035.26855,2.69531.80762.58398.53711.87646,1.40039.87646,2.58789v6.93945h-1.14111ZM133.41504,426.68406c.9585,0,1.71143-.2627,2.25928-.78809.54688-.52539.8208-1.26172.8208-2.20801v-.91797l-1.54004.06445c-1.22461.04297-2.10742.2334-2.64893.57031-.54102.33789-.81152.86133-.81152,1.57227,0,.55664.16846.98047.50586,1.27148.33691.29102.80811.43555,1.41455.43555Z"/>
      <path d="M149.96289,417.60203v.97461l-1.8833.22266c.17285.21582.32764.49902.46387.84863.13574.34961.2041.74316.2041,1.18262,0,.99609-.34033,1.79102-1.02051,2.38477-.68066.59375-1.61426.89062-2.80176.89062-.30322,0-.58789-.02539-.85352-.07422-.65576.3457-.9834.78223-.9834,1.30762,0,.27832.11426.48438.34326.61719.22852.13281.62158.19922,1.17822.19922h1.7998c1.10059,0,1.94678.23145,2.53711.69629.59082.46289.88623,1.1377.88623,2.02148,0,1.12598-.45166,1.98438-1.35449,2.5752-.90332.58984-2.2207.88574-3.95215.88574-1.33008,0-2.35498-.24707-3.07568-.74219-.72021-.49512-1.08057-1.19336-1.08057-2.09668,0-.61816.19775-1.15332.59375-1.60449.39551-.45215.95215-.75781,1.66992-.91895-.25977-.11719-.47803-.2998-.65381-.54785-.17676-.24707-.26465-.53418-.26465-.8623,0-.37109.09863-.69629.29688-.97363.19775-.2793.51025-.54785.93701-.80762-.52588-.2168-.9541-.58496-1.28467-1.10449-.33105-.51953-.49658-1.11328-.49658-1.78125,0-1.11328.33398-1.9707,1.00195-2.57422.66797-.60254,1.61426-.9043,2.83887-.9043.53174,0,1.01123.06152,1.43799.18555h3.51611ZM141.85449,429.47703c0,.55078.23193.96777.6958,1.25195.46387.28516,1.12842.42773,1.99463.42773,1.29248,0,2.24951-.19434,2.87158-.58008.62109-.38672.93213-.91113.93213-1.57227,0-.55078-.17041-.93262-.51025-1.14648-.34033-.21289-.98047-.32031-1.92041-.32031h-1.84619c-.69922,0-1.24316.16797-1.63281.50195s-.58447.8125-.58447,1.4375ZM142.68945,420.85789c0,.71191.20068,1.25.60303,1.61523.40186.36426.96143.54688,1.6792.54688,1.50293,0,2.25439-.72949,2.25439-2.18945,0-1.52734-.76074-2.29102-2.28223-2.29102-.72363,0-1.28027.19434-1.66992.58398s-.58447.96777-.58447,1.73438Z"/>
      <path d="M155.93652,427.95555c-1.50293,0-2.68896-.45801-3.55811-1.37305-.86865-.91504-1.30322-2.18652-1.30322-3.8125,0-1.63965.40381-2.94141,1.21045-3.90625.80762-.96484,1.89111-1.44727,3.25195-1.44727,1.27393,0,2.28223.41895,3.02441,1.25684.74219.83887,1.11328,1.94434,1.11328,3.31738v.97363h-7.00439c.03076,1.19336.33252,2.09961.90479,2.71777.57178.61914,1.37744.92773,2.4165.92773,1.09473,0,2.17676-.22852,3.24707-.68555v1.37305c-.54443.23438-1.05908.40332-1.54443.50488-.48584.10254-1.07178.15332-1.7583.15332ZM155.51904,418.70555c-.81641,0-1.46729.2666-1.95312.79883-.48535.53125-.77148,1.26758-.85791,2.20703h5.31592c0-.9707-.2168-1.71387-.64941-2.23047-.43311-.5166-1.05176-.77539-1.85547-.77539Z"/>
      <path d="M169.59912,427.77v-6.57812c0-.82812-.18896-1.44727-.56592-1.85547-.37744-.4082-.96826-.61133-1.77197-.61133-1.06396,0-1.84326.28711-2.33789.8623-.49512.5752-.74219,1.52441-.74219,2.84863v5.33398h-1.54004v-10.16797h1.25244l.25049,1.3916h.07422c.31543-.50098.75732-.88867,1.32666-1.16406.56885-.27539,1.20264-.41309,1.90186-.41309,1.22461,0,2.146.2959,2.76465.88574.61816.59082.92773,1.53613.92773,2.83496v6.63281h-1.54004Z"/>
      <path d="M181.56201,426.40672h-.0835c-.71143,1.03223-1.77539,1.54883-3.19141,1.54883-1.33008,0-2.36426-.45508-3.10303-1.36328-.73926-.91016-1.10889-2.20215-1.10889-3.87891,0-1.67578.37109-2.97754,1.11328-3.90527s1.7749-1.3916,3.09863-1.3916c1.37891,0,2.43652.50098,3.17285,1.50293h.12061l-.06494-.7334-.03711-.71387v-4.1377h1.54004v14.43555h-1.25244l-.2041-1.36328ZM178.48193,426.66648c1.05127,0,1.81348-.28613,2.28711-.8584.47266-.57227.70947-1.49512.70947-2.76953v-.3252c0-1.44043-.23975-2.46875-.71924-3.08398-.479-.61523-1.24463-.92383-2.2959-.92383-.90332,0-1.59424.35156-2.07324,1.05371-.47949.70215-.71924,1.69238-.71924,2.97363,0,1.29883.23779,2.27832.71436,2.94043.47607.66211,1.1748.99316,2.09668.99316Z"/>
      <path d="M192.89404,427.77l-.30615-1.44727h-.07422c-.50732.63672-1.0127,1.06836-1.51709,1.29395-.50391.22559-1.1333.33887-1.8877.33887-1.0083,0-1.79834-.25977-2.37012-.7793-.57227-.51953-.8584-1.25879-.8584-2.2168,0-2.05371,1.64209-3.12988,4.92627-3.22852l1.72559-.05664v-.63086c0-.79688-.17139-1.38672-.51514-1.7666-.34277-.38086-.89209-.57129-1.64648-.57129-.84766,0-1.80615.25977-2.87598.7793l-.47314-1.17773c.50098-.27246,1.0498-.48535,1.64697-.64062.59668-.1543,1.19482-.23145,1.79492-.23145,1.21191,0,2.11035.26855,2.69531.80762.58398.53711.87646,1.40039.87646,2.58789v6.93945h-1.14111ZM189.41504,426.68406c.9585,0,1.71143-.2627,2.25928-.78809.54688-.52539.8208-1.26172.8208-2.20801v-.91797l-1.54004.06445c-1.22461.04297-2.10742.2334-2.64893.57031-.54102.33789-.81152.86133-.81152,1.57227,0,.55664.16846.98047.50586,1.27148.33691.29102.80811.43555,1.41455.43555Z"/>
      <path d="M202.27979,417.41648c.45117,0,.85645.03711,1.21533.11133l-.21338,1.42871c-.4209-.09277-.79199-.13965-1.11328-.13965-.82275,0-1.52637.33398-2.11035,1.00195-.58496.66797-.87695,1.5-.87695,2.49609v5.45508h-1.54004v-10.16797h1.271l.17627,1.88281h.07422c.37695-.66113.83154-1.17188,1.36377-1.53027.53174-.3584,1.11621-.53809,1.75342-.53809Z"/>
      <path d="M55.39404,458.77l-.30615-1.44727h-.07422c-.50732.63672-1.0127,1.06836-1.51709,1.29395-.50391.22559-1.1333.33887-1.8877.33887-1.0083,0-1.79834-.25977-2.37012-.7793-.57227-.51953-.8584-1.25879-.8584-2.2168,0-2.05371,1.64209-3.12988,4.92627-3.22852l1.72559-.05664v-.63086c0-.79688-.17139-1.38672-.51514-1.7666-.34277-.38086-.89209-.57129-1.64648-.57129-.84766,0-1.80615.25977-2.87598.7793l-.47314-1.17773c.50098-.27246,1.0498-.48535,1.64697-.64062.59668-.1543,1.19482-.23145,1.79492-.23145,1.21191,0,2.11035.26855,2.69531.80762.58398.53711.87646,1.40039.87646,2.58789v6.93945h-1.14111ZM51.91504,457.68406c.9585,0,1.71143-.2627,2.25928-.78809.54688-.52539.8208-1.26172.8208-2.20801v-.91797l-1.54004.06445c-1.22461.04297-2.10742.2334-2.64893.57031-.54102.33789-.81152.86133-.81152,1.57227,0,.55664.16846.98047.50586,1.27148.33691.29102.80811.43555,1.41455.43555Z"/>
      <path d="M69.20459,458.95555c-1.47217,0-2.61133-.45312-3.41895-1.35938-.80664-.90527-1.21045-2.1875-1.21045-3.8457,0-1.7002.40967-3.01465,1.229-3.94238.81982-.92773,1.98682-1.3916,3.50244-1.3916.48828,0,.97705.05273,1.46582.1582.48828.10449.87207.22852,1.15039.37109l-.47314,1.30762c-.34033-.13574-.71143-.24902-1.11328-.33887-.40234-.08887-.75781-.13477-1.06689-.13477-2.06592,0-3.09863,1.31836-3.09863,3.95312,0,1.24902.25195,2.20703.75635,2.875.50391.66797,1.25049,1.00195,2.24023,1.00195.84717,0,1.71631-.18164,2.60693-.54688v1.36328c-.68066.35352-1.53711.5293-2.56982.5293Z"/>
      <path d="M82.91748,453.67625c0,1.6582-.41748,2.95215-1.25244,3.88281-.83496.93164-1.98877,1.39648-3.46045,1.39648-.90918,0-1.71631-.21289-2.42139-.64062-.70508-.42578-1.24951-1.03906-1.63281-1.83594-.38379-.79883-.5752-1.73242-.5752-2.80273,0-1.65723.41406-2.94824,1.24316-3.87305.82861-.92383,1.979-1.38672,3.45117-1.38672,1.42236,0,2.55273.47266,3.39111,1.41992.83789.94531,1.25684,2.22656,1.25684,3.83984ZM75.1709,453.67625c0,1.29883.25977,2.28906.7793,2.96875.51953.68066,1.2832,1.02148,2.2915,1.02148,1.00781,0,1.77344-.33887,2.2959-1.0166.52295-.67676.78418-1.66797.78418-2.97363,0-1.29199-.26123-2.27344-.78418-2.94531-.52246-.6709-1.29395-1.00586-2.31445-1.00586-1.0083,0-1.76904.33008-2.28223.99219-.51367.66211-.77002,1.64844-.77002,2.95898Z"/>
      <path d="M92.09912,458.77v-6.57812c0-.82812-.18896-1.44727-.56592-1.85547-.37744-.4082-.96826-.61133-1.77197-.61133-1.06396,0-1.84326.28711-2.33789.8623-.49512.5752-.74219,1.52441-.74219,2.84863v5.33398h-1.54004v-10.16797h1.25244l.25049,1.3916h.07422c.31543-.50098.75732-.88867,1.32666-1.16406.56885-.27539,1.20264-.41309,1.90186-.41309,1.22461,0,2.146.2959,2.76465.88574.61816.59082.92773,1.53613.92773,2.83496v6.63281h-1.54004Z"/>
      <path d="M103.7002,455.99656c0,.94531-.35254,1.67578-1.05762,2.18945-.70508.5127-1.69482.76953-2.96875.76953-1.34863,0-2.3999-.21289-3.1543-.64062v-1.42773c.48828.24707,1.0127.44141,1.57275.58398.55957.14258,1.09912.21289,1.61865.21289.80371,0,1.42236-.12793,1.85547-.38477.43262-.25586.64941-.64746.64941-1.17383,0-.39551-.17139-.7334-.51514-1.01562-.34277-.28125-1.0127-.61328-2.0083-.99707-.94629-.35254-1.61865-.66016-2.01807-.92285-.39844-.2627-.69531-.56152-.89062-.89551-.19434-.33398-.29199-.7334-.29199-1.19629,0-.8291.33691-1.4834,1.01123-1.96289.67383-.47852,1.59863-.71875,2.77393-.71875,1.09473,0,2.16455.22266,3.20996.66797l-.54736,1.25195c-1.02051-.41992-1.94531-.63086-2.77393-.63086-.72998,0-1.28027.11523-1.65137.34375s-.55664.54395-.55664.94629c0,.27246.06934.50391.20898.69629.13867.19141.36279.37402.67236.54688.30908.17285.90283.42383,1.78125.75195,1.20605.43848,2.021.88086,2.44482,1.32617.42334.44531.63525,1.00488.63525,1.67969Z"/>
      <path d="M107.58838,448.60203v6.5957c0,.8291.18848,1.44727.56592,1.85547.37695.4082.96777.61328,1.77197.61328,1.06348,0,1.8418-.29102,2.33301-.87305.49219-.58105.73779-1.53027.73779-2.84766v-5.34375h1.54004v10.16797h-1.271l-.22266-1.36328h-.0835c-.31543.5-.75293.88379-1.31299,1.15039-.55957.26562-1.19824.39844-1.91553.39844-1.2373,0-2.16309-.29395-2.77881-.88086-.61523-.58789-.92285-1.52832-.92285-2.82031v-6.65234h1.55859Z"/>
      <path d="M119.68115,458.77h-1.54004v-14.43555h1.54004v14.43555Z"/>
      <path d="M126.42529,457.68406c.27197,0,.53467-.01953.78857-.05957.25342-.04004.45459-.08203.60303-.12598v1.17871c-.16699.08008-.41309.14648-.7373.19922-.3252.05273-.61719.0791-.87695.0791-1.9668,0-2.9502-1.03613-2.9502-3.10742v-6.04883h-1.45654v-.74219l1.45654-.64062.64941-2.1709h.89062v2.35645h2.9502v1.19727h-2.9502v5.9834c0,.6123.14502,1.08203.43604,1.41016.29053.32812.68945.49121,1.19678.49121Z"/>
      <path d="M136.39404,458.77l-.30615-1.44727h-.07422c-.50732.63672-1.0127,1.06836-1.51709,1.29395-.50391.22559-1.1333.33887-1.8877.33887-1.0083,0-1.79834-.25977-2.37012-.7793-.57227-.51953-.8584-1.25879-.8584-2.2168,0-2.05371,1.64209-3.12988,4.92627-3.22852l1.72559-.05664v-.63086c0-.79688-.17139-1.38672-.51514-1.7666-.34277-.38086-.89209-.57129-1.64648-.57129-.84766,0-1.80615.25977-2.87598.7793l-.47314-1.17773c.50098-.27246,1.0498-.48535,1.64697-.64062.59668-.1543,1.19482-.23145,1.79492-.23145,1.21191,0,2.11035.26855,2.69531.80762.58398.53711.87646,1.40039.87646,2.58789v6.93945h-1.14111ZM132.91504,457.68406c.9585,0,1.71143-.2627,2.25928-.78809.54688-.52539.8208-1.26172.8208-2.20801v-.91797l-1.54004.06445c-1.22461.04297-2.10742.2334-2.64893.57031-.54102.33789-.81152.86133-.81152,1.57227,0,.55664.16846.98047.50586,1.27148.33691.29102.80811.43555,1.41455.43555Z"/>
      <path d="M154.97314,449.15867c0,1.37305-.46875,2.42969-1.40527,3.16797-.9375.73926-2.27783,1.10938-4.02197,1.10938h-1.5957v5.33398h-1.57715v-13.56348h3.51611c3.38916,0,5.08398,1.31738,5.08398,3.95215ZM147.9502,452.08055h1.41943c1.39746,0,2.40869-.22559,3.03369-.67676.62451-.45117.93701-1.1748.93701-2.1709,0-.89648-.29395-1.56445-.88135-2.00391-.58789-.43945-1.50293-.6582-2.74609-.6582h-1.7627v5.50977Z"/>
      <path d="M167.96777,458.77h-1.7998l-7.4126-11.38281h-.07422c.09863,1.33594.14844,2.56055.14844,3.67383v7.70898h-1.45654v-13.56348h1.78125l7.39404,11.33691h.07422c-.0127-.16699-.04053-.70312-.0835-1.60938-.04346-.90625-.05908-1.55469-.04639-1.94336v-7.78418h1.4751v13.56348Z"/>
      <path d="M179.97314,449.15867c0,1.37305-.46875,2.42969-1.40527,3.16797-.9375.73926-2.27783,1.10938-4.02197,1.10938h-1.5957v5.33398h-1.57715v-13.56348h3.51611c3.38916,0,5.08398,1.31738,5.08398,3.95215ZM172.9502,452.08055h1.41943c1.39746,0,2.40869-.22559,3.03369-.67676.62451-.45117.93701-1.1748.93701-2.1709,0-.89648-.29395-1.56445-.88135-2.00391-.58789-.43945-1.50293-.6582-2.74609-.6582h-1.7627v5.50977Z"/>
    </g>
    <g>
      <rect x="426.66673" y="406.64931" width="584" height="61.3816" rx="16.42056" ry="16.42056" fill="#c6c6c6"/>
      <rect x="422.66673" y="402.64931" width="584" height="61.3816" rx="16.42056" ry="16.42056" fill="#e5e5e5"/>
    </g>
    <text transform="translate(457.66675 440.0498)" font-family="OpenSans, &apos;Open Sans&apos;" font-size="19"><tspan x="0" y="0" letter-spacing="-.01627em">V</tspan><tspan x="11" y="0" letter-spacing=".01791em">e</tspan><tspan x="22" y="0" letter-spacing=".01285em">r</tspan><tspan x="30" y="0" letter-spacing=".01023em">i</tspan><tspan x="35" y="0" letter-spacing="-.01285em">fi</tspan><tspan x="46" y="0" letter-spacing="-.00239em">c</tspan><tspan x="55" y="0" letter-spacing=".0228em">a</tspan><tspan x="66" y="0" letter-spacing=".01285em">r</tspan><tspan x="74" y="0" letter-spacing=".00339em"> </tspan><tspan x="79" y="0" letter-spacing=".0228em">a</tspan><tspan x="90" y="0" letter-spacing=".00339em"> </tspan><tspan x="95" y="0" letter-spacing=".01879em">p</tspan><tspan x="107" y="0" letter-spacing="-.02506em">o</tspan><tspan x="118" y="0" letter-spacing="-.00337em">ss</tspan><tspan x="136" y="0" letter-spacing=".01023em">i</tspan><tspan x="141" y="0" letter-spacing=".01879em">b</tspan><tspan x="153" y="0" letter-spacing=".01023em">ili</tspan><tspan x="168" y="0" letter-spacing=".01879em">d</tspan><tspan x="180" y="0" letter-spacing=".0228em">a</tspan><tspan x="191" y="0" letter-spacing=".01879em">d</tspan><tspan x="203" y="0" letter-spacing=".01791em">e</tspan><tspan x="214" y="0" letter-spacing=".00339em"> </tspan><tspan x="219" y="0" letter-spacing=".01879em">d</tspan><tspan x="231" y="0" letter-spacing=".01791em">e</tspan><tspan x="242" y="0" letter-spacing=".00339em"> </tspan><tspan x="247" y="0" letter-spacing="-.00239em">c</tspan><tspan x="256" y="0" letter-spacing="-.02506em">o</tspan><tspan x="267" y="0" letter-spacing=".01781em">n</tspan><tspan x="279" y="0" letter-spacing=".02534em">v</tspan><tspan x="289" y="0" letter-spacing=".01023em">i</tspan><tspan x="294" y="0" letter-spacing=".01879em">d</tspan><tspan x="306" y="0" letter-spacing=".0228em">a</tspan><tspan x="317" y="0" letter-spacing=".01285em">r</tspan><tspan x="325" y="0" letter-spacing=".00339em"> </tspan><tspan x="330" y="0" letter-spacing="-.02506em">o</tspan><tspan x="341" y="0" letter-spacing=".00339em"> </tspan><tspan x="346" y="0" letter-spacing=".01879em">p</tspan><tspan x="358" y="0" letter-spacing=".0228em">a</tspan><tspan x="369" y="0" letter-spacing=".01285em">r</tspan><tspan x="377" y="0" letter-spacing="-.00239em">c</tspan><tspan x="386" y="0" letter-spacing=".01791em">e</tspan><tspan x="397" y="0" letter-spacing=".01023em">i</tspan><tspan x="402" y="0" letter-spacing=".01285em">r</tspan><tspan x="410" y="0" letter-spacing="-.02506em">o</tspan><tspan x="421" y="0" letter-spacing=".00339em"> </tspan><tspan x="426" y="0" letter-spacing=".01879em">p</tspan><tspan x="438" y="0" letter-spacing=".0228em">a</tspan><tspan x="449" y="0" letter-spacing=".01285em">r</tspan><tspan x="457" y="0" letter-spacing=".0228em">a</tspan><tspan x="468" y="0" letter-spacing=".00339em"> </tspan><tspan x="473" y="0" letter-spacing="-.02506em">o</tspan><tspan x="484" y="0" letter-spacing=".00339em"> </tspan><tspan x="489" y="0" letter-spacing="-.0231em">P</tspan><tspan x="500" y="0" letter-spacing="-.01706em">N</tspan><tspan x="514" y="0" letter-spacing="-.0231em">P</tspan></text>
    <text transform="translate(42.68997 327.3292)" font-family="OpenSans, &apos;Open Sans&apos;" font-size="19"><tspan x="0" y="0" letter-spacing=".00072em">C</tspan><tspan x="12" y="0" letter-spacing="-.02506em">o</tspan><tspan x="23" y="0" letter-spacing=".01719em">m</tspan><tspan x="41" y="0" letter-spacing=".00339em"> </tspan><tspan x="46" y="0" letter-spacing="-.02506em">o</tspan><tspan x="57" y="0" letter-spacing=".00339em"> </tspan><tspan x="62" y="0" letter-spacing=".01879em">p</tspan><tspan x="74" y="0" letter-spacing=".0228em">a</tspan><tspan x="85" y="0" letter-spacing=".01285em">r</tspan><tspan x="93" y="0" letter-spacing="-.00239em">c</tspan><tspan x="102" y="0" letter-spacing=".01791em">e</tspan><tspan x="113" y="0" letter-spacing=".01023em">i</tspan><tspan x="118" y="0" letter-spacing=".01285em">r</tspan><tspan x="126" y="0" letter-spacing="-.02506em">o</tspan></text>
    <g>
      <rect x="426.66673" y="479.64931" width="584" height="61.3816" rx="16.42056" ry="16.42056" fill="#c6c6c6"/>
      <rect x="422.66673" y="475.64931" width="584" height="61.3816" rx="16.42056" ry="16.42056" fill="#e5e5e5"/>
    </g>
    <text transform="translate(570.16675 513.04978)" font-family="OpenSans, &apos;Open Sans&apos;" font-size="19"><tspan x="0" y="0" letter-spacing=".01341em">R</tspan><tspan x="12" y="0" letter-spacing=".01791em">e</tspan><tspan x="23" y="0" letter-spacing=".0228em">a</tspan><tspan x="34" y="0" letter-spacing=".01023em">li</tspan><tspan x="44" y="0" letter-spacing=".00591em">z</tspan><tspan x="53" y="0" letter-spacing=".0228em">a</tspan><tspan x="64" y="0" letter-spacing=".01285em">r</tspan><tspan x="72" y="0" letter-spacing=".00339em"> </tspan><tspan x="77" y="0" letter-spacing=".01879em">b</tspan><tspan x="89" y="0" letter-spacing=".01781em">u</tspan><tspan x="101" y="0" letter-spacing="-.00337em">s</tspan><tspan x="110" y="0" letter-spacing="-.00239em">c</tspan><tspan x="119" y="0" letter-spacing=".0228em">a</tspan><tspan x="130" y="0" letter-spacing=".00339em"> </tspan><tspan x="135" y="0" letter-spacing=".0228em">a</tspan><tspan x="146" y="0" letter-spacing=".01539em">t</tspan><tspan x="153" y="0" letter-spacing=".01023em">i</tspan><tspan x="158" y="0" letter-spacing=".02534em">v</tspan><tspan x="168" y="0" letter-spacing=".0228em">a</tspan><tspan x="179" y="0" letter-spacing=".00339em"> </tspan><tspan x="184" y="0" letter-spacing=".01879em">d</tspan><tspan x="196" y="0" letter-spacing="-.02506em">o</tspan><tspan x="207" y="0" letter-spacing=".00339em"> </tspan><tspan x="212" y="0" letter-spacing=".01879em">p</tspan><tspan x="224" y="0" letter-spacing=".0228em">a</tspan><tspan x="235" y="0" letter-spacing=".01285em">r</tspan><tspan x="243" y="0" letter-spacing="-.00239em">c</tspan><tspan x="252" y="0" letter-spacing=".01791em">e</tspan><tspan x="263" y="0" letter-spacing=".01023em">i</tspan><tspan x="268" y="0" letter-spacing=".01285em">r</tspan><tspan x="276" y="0" letter-spacing="-.02506em">o</tspan></text>
    <g>
      <rect x="426.66673" y="552.64931" width="584" height="61.3816" rx="16.42056" ry="16.42056" fill="#c6c6c6"/>
      <rect x="422.66673" y="548.64931" width="584" height="61.3816" rx="16.42056" ry="16.42056" fill="#e5e5e5"/>
    </g>
    <text transform="translate(562.66675 586.04978)" font-family="OpenSans, &apos;Open Sans&apos;" font-size="19"><tspan x="0" y="0" letter-spacing=".01341em">R</tspan><tspan x="12" y="0" letter-spacing=".01791em">e</tspan><tspan x="23" y="0" letter-spacing=".0228em">a</tspan><tspan x="34" y="0" letter-spacing=".01023em">li</tspan><tspan x="44" y="0" letter-spacing=".00591em">z</tspan><tspan x="53" y="0" letter-spacing=".0228em">a</tspan><tspan x="64" y="0" letter-spacing=".01285em">r</tspan><tspan x="72" y="0" letter-spacing=".00339em"> </tspan><tspan x="77" y="0" letter-spacing="-.02506em">o</tspan><tspan x="88" y="0" letter-spacing=".01781em">u</tspan><tspan x="100" y="0" letter-spacing=".00339em"> </tspan><tspan x="105" y="0" letter-spacing=".0228em">a</tspan><tspan x="116" y="0" letter-spacing="-.02154em">g</tspan><tspan x="126" y="0" letter-spacing=".01791em">en</tspan><tspan x="149" y="0" letter-spacing=".01879em">d</tspan><tspan x="161" y="0" letter-spacing=".0228em">a</tspan><tspan x="172" y="0" letter-spacing=".01285em">r</tspan><tspan x="180" y="0" letter-spacing=".00339em"> </tspan><tspan x="185" y="0" letter-spacing="-.00239em">c</tspan><tspan x="194" y="0" letter-spacing="-.02506em">o</tspan><tspan x="205" y="0" letter-spacing=".01781em">n</tspan><tspan x="217" y="0" letter-spacing="-.00337em">s</tspan><tspan x="226" y="0" letter-spacing=".01781em">u</tspan><tspan x="238" y="0" letter-spacing=".01023em">l</tspan><tspan x="243" y="0" letter-spacing=".01539em">t</tspan><tspan x="250" y="0" letter-spacing=".0228em">a</tspan><tspan x="261" y="0" letter-spacing=".00339em"> </tspan><tspan x="266" y="0" letter-spacing="-.0231em">P</tspan><tspan x="277" y="0" letter-spacing="-.01706em">N</tspan><tspan x="291" y="0" letter-spacing="-.0231em">P</tspan></text>
    <g>
      <path d="M474.23297,354.30931h-169.15888c-9.06882,0-16.42056-7.83082-16.42056-17.49062v-30.40035c0-9.6598,7.35173-17.49062,16.42056-17.49062h169.15888c9.06882,0,16.42056,7.83082,16.42056,17.49062v30.40035c0,9.6598-7.35173,17.49062-16.42056,17.49062Z" fill="#fff" stroke="#f2bd77" stroke-miterlimit="10"/>
      <path d="M470.19922,350.30931h-161.09138c-8.58799,0-15.54994-6.87265-15.54994-15.35049v-26.68061c0-8.47784,6.96194-15.35049,15.54994-15.35049h161.09138c8.58799,0,15.54994,6.87265,15.54994,15.35049v26.68061c0,8.47784-6.96194,15.35049-15.54994,15.35049Z" fill="#f9e9d2"/>
      <text transform="translate(352.82272 327.32825)" font-family="OpenSans, &apos;Open Sans&apos;" font-size="19"><tspan x="0" y="0" letter-spacing="-.02251em">S</tspan><tspan x="10" y="0" letter-spacing="-.02506em">o</tspan><tspan x="21" y="0" letter-spacing=".00591em">z</tspan><tspan x="30" y="0" letter-spacing=".01023em">i</tspan><tspan x="35" y="0" letter-spacing=".01781em">nh</tspan><tspan x="59" y="0" letter-spacing=".0228em">a</tspan></text>
    </g>
    <g>
      <path d="M389.03256,355.34007v149.98035c0,2.77234,2.24738,5.01965,5.01968,5.01965h8.0946" fill="none" stroke="#565656" stroke-linecap="round" stroke-linejoin="round"/>
      <polygon points="400.16541 513.24534 411.00623 510.34007 400.16541 507.43479 400.16541 513.24534" fill="#565656"/>
    </g>
    <g>
      <path d="M389.03256,497.34007v69.98035c0,2.77234,2.24738,5.01965,5.01968,5.01965h8.0946" fill="none" stroke="#565656" stroke-linecap="round" stroke-linejoin="round"/>
      <polygon points="400.16541 575.24534 411.00623 572.34007 400.16541 569.43479 400.16541 575.24534" fill="#565656"/>
    </g>
    <g>
      <line x1="853.86609" y1="245.15043" x2="853.86609" y2="269.42045" fill="none" stroke="#565656" stroke-miterlimit="10"/>
      <polygon points="850.96082 267.439 853.86609 278.27983 856.77136 267.439 850.96082 267.439" fill="#565656"/>
    </g>
    <line x1="251.22422" y1="245.5164" x2="251.22422" y2="253.53003" fill="none" stroke="#565656" stroke-linecap="round" stroke-linejoin="round"/>
    <g>
      <path d="M113.51291,268.46214v-3.51892c0-6.16504,4.99777-11.16284,11.16284-11.16284h253.81494c6.16507,0,11.16284,4.9978,11.16284,11.16284v3.51892" fill="none" stroke="#565656" stroke-miterlimit="10"/>
      <polygon points="116.41817 266.48069 113.51291 277.32151 110.60764 266.48069 116.41817 266.48069" fill="#565656"/>
      <polygon points="386.74826 266.48069 389.65353 277.32151 392.55881 266.48069 386.74826 266.48069" fill="#565656"/>
    </g>
    <g>
      <line x1="702" y1="209.89689" x2="726.27002" y2="209.89689" fill="none" stroke="#565656" stroke-miterlimit="10"/>
      <polygon points="724.28857 212.80216 735.12939 209.89689 724.28857 206.99162 724.28857 212.80216" fill="#565656"/>
    </g>
    <g>
      <line x1="398.12936" y1="209.89689" x2="373.85938" y2="209.89689" fill="none" stroke="#565656" stroke-miterlimit="10"/>
      <polygon points="375.84082 206.99162 365 209.89689 375.84082 212.80216 375.84082 206.99162" fill="#565656"/>
    </g>
    <g>
      <path d="M389.03256,360.34007v69.98035c0,2.77234,2.24738,5.01965,5.01968,5.01965h8.0946" fill="none" stroke="#565656" stroke-linecap="round" stroke-linejoin="round"/>
      <polygon points="400.16541 438.24534 411.00623 435.34007 400.16541 432.43479 400.16541 438.24534" fill="#565656"/>
    </g>
  </g>
  <g id="id">
    <g>
      <circle cx="1058.52218" cy="42.7071" r="14.73625" fill="#f7f7f7" stroke="#b7b7b7" stroke-miterlimit="10"/>
      <path d="M1060.24523,42.7071l4.81482-4.81534c.476-.476.476-1.24712,0-1.72312s-1.24712-.476-1.72312,0l-4.81475,4.81527-4.81475-4.81527c-.476-.476-1.24712-.476-1.72312,0s-.476,1.24712,0,1.72312l4.81482,4.81534-4.81482,4.81534c-.476.476-.476,1.24712,0,1.72312.238.238.54978.357.86156.357s.62356-.119.86156-.357l4.81475-4.81527,4.81475,4.81527c.238.238.54978.357.86156.357s.62356-.119.86156-.357c.476-.476.476-1.24712,0-1.72312l-4.81482-4.81534Z" fill="#b7b7b7"/>
    </g>
  </g>
</svg>