<?xml version="1.0" encoding="UTF-8"?>
<svg xmlns="http://www.w3.org/2000/svg" viewBox="0 0 510 819.99907">
  <g id="Layer_2">
    <rect width="510" height="818.2548" rx="28.26708" ry="28.26708" fill="#f7f7f7"/>
  </g>
  <g id="Layer_1">
    <g>
      <rect x="42.119" y="35.30486" width="425.762" height="9.23706" fill="#b5b5b5" opacity=".4"/>
      <text transform="translate(63.50006 39.98236)" font-family="OpenSans-Bold, &apos;Open Sans&apos;" font-size="21" font-weight="700"><tspan x="0" y="0" letter-spacing=".0226em">F</tspan><tspan x="12" y="0" letter-spacing="-.01946em">l</tspan><tspan x="18" y="0" letter-spacing=".00944em">u</tspan><tspan x="32" y="0" letter-spacing="-.0067em">x</tspan><tspan x="44" y="0" letter-spacing="-.00009em">o</tspan><tspan x="57" y="0" letter-spacing=".00649em">g</tspan><tspan x="69" y="0" letter-spacing=".02209em">r</tspan><tspan x="79" y="0" letter-spacing=".01504em">a</tspan><tspan x="92" y="0" letter-spacing=".01807em">m</tspan><tspan x="113" y="0" letter-spacing=".01504em">a</tspan><tspan x="126" y="0" letter-spacing="-.02167em"> </tspan><tspan x="131" y="0" letter-spacing="-.01376em">d</tspan><tspan x="144" y="0" letter-spacing="-.00009em">o</tspan><tspan x="157" y="0" letter-spacing="-.02167em"> </tspan><tspan x="162" y="0" letter-spacing="-.01376em">p</tspan><tspan x="175" y="0" letter-spacing=".02209em">r</tspan><tspan x="185" y="0" letter-spacing="-.01939em">é</tspan><tspan x="197" y="0" letter-spacing=".01156em">-</tspan><tspan x="204" y="0" letter-spacing=".00944em">n</tspan><tspan x="218" y="0" letter-spacing=".01504em">a</tspan><tspan x="231" y="0" letter-spacing="-.00551em">t</tspan><tspan x="240" y="0" letter-spacing=".01504em">a</tspan><tspan x="253" y="0" letter-spacing="-.01946em">l</tspan><tspan x="259" y="0" letter-spacing="-.02167em"> </tspan><tspan x="264" y="0" letter-spacing="-.01376em">d</tspan><tspan x="277" y="0" letter-spacing="-.00009em">o</tspan><tspan x="290" y="0" letter-spacing="-.02167em"> </tspan><tspan x="295" y="0" letter-spacing="-.01376em">p</tspan><tspan x="308" y="0" letter-spacing=".01504em">a</tspan><tspan x="321" y="0" letter-spacing=".02209em">r</tspan><tspan x="331" y="0" letter-spacing=".00965em">c</tspan><tspan x="342" y="0" letter-spacing="-.01939em">ei</tspan><tspan x="360" y="0" letter-spacing=".02209em">r</tspan><tspan x="370" y="0" letter-spacing="-.00009em">o</tspan></text>
    </g>
    <path d="M202.5202,793.17334H71.31273c-7.8201,0-14.15954-6.87265-14.15954-15.35049v-26.68061c0-8.47784,6.33944-15.35049,14.15954-15.35049h131.20747c7.8201,0,14.15954,6.87265,14.15954,15.35049v26.68061c0,8.47784-6.33944,15.35049-14.15954,15.35049Z" fill="#fff" stroke="#f2bd77" stroke-miterlimit="10"/>
    <path d="M199.04187,789.66277h-124.25082c-7.40548,0-13.4088-6.03172-13.4088-13.47223v-23.41601c0-7.44051,6.00332-13.47223,13.4088-13.47223h124.25082c7.40548,0,13.4088,6.03172,13.4088,13.47223v23.41601c0,7.44051-6.00332,13.47223-13.4088,13.47223Z" fill="#f9e9d2"/>
    <g>
      <g>
        <rect x="103" y="68.12996" width="300" height="61.3816" rx="16.42056" ry="16.42056" fill="#fff"/>
        <rect x="107" y="72.12996" width="300" height="61.3816" rx="16.42056" ry="16.42056" fill="none" stroke="#bcd3d1" stroke-miterlimit="10" stroke-width="2"/>
      </g>
      <text transform="translate(137.50006 108.53052)" font-family="OpenSans, &apos;Open Sans&apos;" font-size="19"><tspan x="0" y="0" letter-spacing=".00072em">C</tspan><tspan x="12" y="0" letter-spacing=".01781em">he</tspan><tspan x="35" y="0" letter-spacing="-.02154em">g</tspan><tspan x="45" y="0" letter-spacing=".0228em">a</tspan><tspan x="56" y="0" letter-spacing=".01879em">d</tspan><tspan x="68" y="0" letter-spacing=".0228em">a</tspan><tspan x="79" y="0" letter-spacing=".00339em"> </tspan><tspan x="84" y="0" letter-spacing=".01879em">d</tspan><tspan x="96" y="0" letter-spacing=".0228em">a</tspan><tspan x="107" y="0" letter-spacing=".00339em"> </tspan><tspan x="112" y="0" letter-spacing=".01719em">m</tspan><tspan x="130" y="0" letter-spacing=".01781em">u</tspan><tspan x="142" y="0" letter-spacing=".01023em">l</tspan><tspan x="147" y="0" letter-spacing=".01781em">he</tspan><tspan x="170" y="0" letter-spacing=".01285em">r</tspan><tspan x="178" y="0" letter-spacing=".00339em"> </tspan><tspan x="183" y="0" letter-spacing=".0228em">à</tspan><tspan x="194" y="0" letter-spacing=".00339em"> </tspan><tspan x="199" y="0" letter-spacing=".00881em">U</tspan><tspan x="213" y="0" letter-spacing="-.01637em">B</tspan><tspan x="225" y="0" letter-spacing="-.02251em">S</tspan></text>
      <g>
        <line x1="255" y1="133.51155" x2="255" y2="157.78156" fill="none" stroke="#565656" stroke-miterlimit="10"/>
        <polygon points="252.09473 155.80011 255 166.64093 257.90527 155.80011 252.09473 155.80011" fill="#565656"/>
      </g>
      <g>
        <rect x="103" y="169.12996" width="300" height="61.3816" rx="16.42056" ry="16.42056" fill="#fff"/>
        <rect x="107" y="173.12996" width="300" height="61.3816" rx="16.42056" ry="16.42056" fill="none" stroke="#bcd3d1" stroke-miterlimit="10" stroke-width="2"/>
      </g>
      <text transform="translate(176.00006 210.53049)" font-family="OpenSans, &apos;Open Sans&apos;" font-size="19"><tspan x="0" y="0" letter-spacing=".02572em">T</tspan><tspan x="11" y="0" letter-spacing=".01791em">e</tspan><tspan x="22" y="0" letter-spacing="-.00337em">s</tspan><tspan x="31" y="0" letter-spacing=".01539em">t</tspan><tspan x="38" y="0" letter-spacing=".01791em">e</tspan><tspan x="49" y="0" letter-spacing=".00339em"> </tspan><tspan x="54" y="0" letter-spacing=".01879em">d</tspan><tspan x="66" y="0" letter-spacing=".01791em">e</tspan><tspan x="77" y="0" letter-spacing=".00339em"> </tspan><tspan x="82" y="0" letter-spacing="-.02154em">g</tspan><tspan x="92" y="0" letter-spacing=".01285em">r</tspan><tspan x="100" y="0" letter-spacing=".0228em">a</tspan><tspan x="111" y="0" letter-spacing=".02534em">v</tspan><tspan x="121" y="0" letter-spacing=".01023em">i</tspan><tspan x="126" y="0" letter-spacing=".01879em">d</tspan><tspan x="138" y="0" letter-spacing=".01791em">e</tspan><tspan x="149" y="0" letter-spacing=".00591em">z</tspan></text>
    </g>
    <g>
      <rect x="286.5" y="277.46573" width="199" height="61.3816" rx="16.42056" ry="16.42056" fill="#e0b6b6"/>
      <rect x="282.5" y="273.46573" width="199" height="61.3816" rx="16.42056" ry="16.42056" fill="#f4d0d0"/>
    </g>
    <text transform="translate(344.85913 312.86627)" font-family="OpenSans, &apos;Open Sans&apos;" font-size="19"><tspan x="0" y="0" letter-spacing="-.01706em">N</tspan><tspan x="14" y="0" letter-spacing=".01791em">e</tspan><tspan x="25" y="0" letter-spacing="-.02154em">g</tspan><tspan x="35" y="0" letter-spacing=".0228em">a</tspan><tspan x="46" y="0" letter-spacing=".01539em">t</tspan><tspan x="53" y="0" letter-spacing=".01023em">i</tspan><tspan x="58" y="0" letter-spacing=".02534em">v</tspan><tspan x="68" y="0" letter-spacing="-.02506em">o</tspan></text>
    <g>
      <rect x="23.42301" y="277.46573" width="199" height="61.3816" rx="16.42056" ry="16.42056" fill="#a1d0d1"/>
      <rect x="19.42301" y="273.46573" width="199" height="61.3816" rx="16.42056" ry="16.42056" fill="#c2e2e4"/>
    </g>
    <text transform="translate(86.78152 312.86633)" font-family="OpenSans, &apos;Open Sans&apos;" font-size="19"><tspan x="0" y="0" letter-spacing="-.0231em">P</tspan><tspan x="11" y="0" letter-spacing="-.02506em">o</tspan><tspan x="22" y="0" letter-spacing="-.00337em">s</tspan><tspan x="31" y="0" letter-spacing=".01023em">i</tspan><tspan x="36" y="0" letter-spacing=".01539em">t</tspan><tspan x="43" y="0" letter-spacing=".01023em">i</tspan><tspan x="48" y="0" letter-spacing=".02534em">v</tspan><tspan x="58" y="0" letter-spacing="-.02506em">o</tspan></text>
    <g>
      <rect x="117.81709" y="499.83034" width="387" height="61.3816" rx="16.42056" ry="16.42056" fill="#c6c6c6"/>
      <rect x="113.81709" y="495.83034" width="387" height="61.3816" rx="16.42056" ry="16.42056" fill="#e5e5e5"/>
    </g>
    <text transform="translate(135.08621 518.2318)" font-family="OpenSans, &apos;Open Sans&apos;" font-size="19"><tspan x="0" y="0" letter-spacing="-.01627em">V</tspan><tspan x="11" y="0" letter-spacing=".01791em">e</tspan><tspan x="22" y="0" letter-spacing=".01285em">r</tspan><tspan x="30" y="0" letter-spacing=".01023em">i</tspan><tspan x="35" y="0" letter-spacing="-.01285em">fi</tspan><tspan x="46" y="0" letter-spacing="-.00239em">c</tspan><tspan x="55" y="0" letter-spacing=".0228em">a</tspan><tspan x="66" y="0" letter-spacing=".01285em">r</tspan><tspan x="74" y="0" letter-spacing=".00339em"> </tspan><tspan x="79" y="0" letter-spacing=".0228em">a</tspan><tspan x="90" y="0" letter-spacing=".00339em"> </tspan><tspan x="95" y="0" letter-spacing=".01879em">p</tspan><tspan x="107" y="0" letter-spacing="-.02506em">o</tspan><tspan x="118" y="0" letter-spacing="-.00337em">ss</tspan><tspan x="136" y="0" letter-spacing=".01023em">i</tspan><tspan x="141" y="0" letter-spacing=".01879em">b</tspan><tspan x="153" y="0" letter-spacing=".01023em">ili</tspan><tspan x="168" y="0" letter-spacing=".01879em">d</tspan><tspan x="180" y="0" letter-spacing=".0228em">a</tspan><tspan x="191" y="0" letter-spacing=".01879em">d</tspan><tspan x="203" y="0" letter-spacing=".01791em">e</tspan><tspan x="214" y="0" letter-spacing=".00339em"> </tspan><tspan x="219" y="0" letter-spacing=".01879em">d</tspan><tspan x="231" y="0" letter-spacing=".01791em">e</tspan><tspan x="242" y="0" letter-spacing=".00339em"> </tspan><tspan x="247" y="0" letter-spacing="-.00239em">c</tspan><tspan x="256" y="0" letter-spacing="-.02506em">o</tspan><tspan x="267" y="0" letter-spacing=".01781em">n</tspan><tspan x="279" y="0" letter-spacing=".02534em">v</tspan><tspan x="289" y="0" letter-spacing=".01023em">i</tspan><tspan x="294" y="0" letter-spacing=".01879em">d</tspan><tspan x="306" y="0" letter-spacing=".0228em">a</tspan><tspan x="317" y="0" letter-spacing=".01285em">r</tspan><tspan x="325" y="0" letter-spacing=".00339em"> </tspan><tspan x="330" y="0" letter-spacing="-.02506em">o</tspan><tspan x="341" y="0" letter-spacing=".00339em"> </tspan><tspan x="81" y="31" letter-spacing=".01879em">p</tspan><tspan x="93" y="31" letter-spacing=".0228em">a</tspan><tspan x="104" y="31" letter-spacing=".01285em">r</tspan><tspan x="112" y="31" letter-spacing="-.00239em">c</tspan><tspan x="121" y="31" letter-spacing=".01791em">e</tspan><tspan x="132" y="31" letter-spacing=".01023em">i</tspan><tspan x="137" y="31" letter-spacing=".01285em">r</tspan><tspan x="145" y="31" letter-spacing="-.02506em">o</tspan><tspan x="156" y="31" letter-spacing=".00339em"> </tspan><tspan x="161" y="31" letter-spacing=".01879em">p</tspan><tspan x="173" y="31" letter-spacing=".0228em">a</tspan><tspan x="184" y="31" letter-spacing=".01285em">r</tspan><tspan x="192" y="31" letter-spacing=".0228em">a</tspan><tspan x="203" y="31" letter-spacing=".00339em"> </tspan><tspan x="208" y="31" letter-spacing="-.02506em">o</tspan><tspan x="219" y="31" letter-spacing=".00339em"> </tspan><tspan x="224" y="31" letter-spacing="-.0231em">P</tspan><tspan x="235" y="31" letter-spacing="-.01706em">N</tspan><tspan x="249" y="31" letter-spacing="-.0231em">P</tspan></text>
    <text transform="translate(66.58667 770.19227)" font-family="OpenSans, &apos;Open Sans&apos;" font-size="19"><tspan x="0" y="0" letter-spacing=".00072em">C</tspan><tspan x="12" y="0" letter-spacing="-.02506em">o</tspan><tspan x="23" y="0" letter-spacing=".01719em">m</tspan><tspan x="41" y="0" letter-spacing=".00339em"> </tspan><tspan x="46" y="0" letter-spacing="-.02506em">o</tspan><tspan x="57" y="0" letter-spacing=".00339em"> </tspan><tspan x="62" y="0" letter-spacing=".01879em">p</tspan><tspan x="74" y="0" letter-spacing=".0228em">a</tspan><tspan x="85" y="0" letter-spacing=".01285em">r</tspan><tspan x="93" y="0" letter-spacing="-.00239em">c</tspan><tspan x="102" y="0" letter-spacing=".01791em">e</tspan><tspan x="113" y="0" letter-spacing=".01023em">i</tspan><tspan x="118" y="0" letter-spacing=".01285em">r</tspan><tspan x="126" y="0" letter-spacing="-.02506em">o</tspan></text>
    <path d="M204.26346,432.52113H73.05599c-7.8201,0-14.15954-6.87265-14.15954-15.35049v-26.68061c0-8.47784,6.33944-15.35049,14.15954-15.35049h131.20747c7.8201,0,14.15954,6.87265,14.15954,15.35049v26.68061c0,8.47784-6.33944,15.35049-14.15954,15.35049Z" fill="#fff" stroke="#f2bd77" stroke-miterlimit="10"/>
    <path d="M200.78514,429.01057h-124.25082c-7.40548,0-13.4088-6.03172-13.4088-13.47223v-23.41601c0-7.44051,6.00332-13.47223,13.4088-13.47223h124.25082c7.40548,0,13.4088,6.03172,13.4088,13.47223v23.41601c0,7.44051-6.00332,13.47223-13.4088,13.47223Z" fill="#f9e9d2"/>
    <text transform="translate(101.82895 409.54004)" font-family="OpenSans, &apos;Open Sans&apos;" font-size="19"><tspan x="0" y="0" letter-spacing="-.02251em">S</tspan><tspan x="10" y="0" letter-spacing="-.02506em">o</tspan><tspan x="21" y="0" letter-spacing=".00591em">z</tspan><tspan x="30" y="0" letter-spacing=".01023em">i</tspan><tspan x="35" y="0" letter-spacing=".01781em">nh</tspan><tspan x="59" y="0" letter-spacing=".0228em">a</tspan></text>
    <g>
      <rect x="117.81709" y="572.83034" width="387" height="61.3816" rx="16.42056" ry="16.42056" fill="#c6c6c6"/>
      <rect x="113.81709" y="568.83034" width="387" height="61.3816" rx="16.42056" ry="16.42056" fill="#e5e5e5"/>
    </g>
    <text transform="translate(151.7659 606.23178)" font-family="OpenSans, &apos;Open Sans&apos;" font-size="19"><tspan x="0" y="0" letter-spacing=".01341em">R</tspan><tspan x="12" y="0" letter-spacing=".01791em">e</tspan><tspan x="23" y="0" letter-spacing=".0228em">a</tspan><tspan x="34" y="0" letter-spacing=".01023em">li</tspan><tspan x="44" y="0" letter-spacing=".00591em">z</tspan><tspan x="53" y="0" letter-spacing=".0228em">a</tspan><tspan x="64" y="0" letter-spacing=".01285em">r</tspan><tspan x="72" y="0" letter-spacing=".00339em"> </tspan><tspan x="77" y="0" letter-spacing=".01879em">b</tspan><tspan x="89" y="0" letter-spacing=".01781em">u</tspan><tspan x="101" y="0" letter-spacing="-.00337em">s</tspan><tspan x="110" y="0" letter-spacing="-.00239em">c</tspan><tspan x="119" y="0" letter-spacing=".0228em">a</tspan><tspan x="130" y="0" letter-spacing=".00339em"> </tspan><tspan x="135" y="0" letter-spacing=".0228em">a</tspan><tspan x="146" y="0" letter-spacing=".01539em">t</tspan><tspan x="153" y="0" letter-spacing=".01023em">i</tspan><tspan x="158" y="0" letter-spacing=".02534em">v</tspan><tspan x="168" y="0" letter-spacing=".0228em">a</tspan><tspan x="179" y="0" letter-spacing=".00339em"> </tspan><tspan x="184" y="0" letter-spacing=".01879em">d</tspan><tspan x="196" y="0" letter-spacing="-.02506em">o</tspan><tspan x="207" y="0" letter-spacing=".00339em"> </tspan><tspan x="212" y="0" letter-spacing=".01879em">p</tspan><tspan x="224" y="0" letter-spacing=".0228em">a</tspan><tspan x="235" y="0" letter-spacing=".01285em">r</tspan><tspan x="243" y="0" letter-spacing="-.00239em">c</tspan><tspan x="252" y="0" letter-spacing=".01791em">e</tspan><tspan x="263" y="0" letter-spacing=".01023em">i</tspan><tspan x="268" y="0" letter-spacing=".01285em">r</tspan><tspan x="276" y="0" letter-spacing="-.02506em">o</tspan></text>
    <g>
      <rect x="117.81709" y="645.83034" width="387" height="61.3816" rx="16.42056" ry="16.42056" fill="#c6c6c6"/>
      <rect x="113.81709" y="641.83034" width="387" height="61.3816" rx="16.42056" ry="16.42056" fill="#e5e5e5"/>
    </g>
    <text transform="translate(149.24832 679.2318)" font-family="OpenSans, &apos;Open Sans&apos;" font-size="19"><tspan x="0" y="0" letter-spacing=".01341em">R</tspan><tspan x="12" y="0" letter-spacing=".01791em">e</tspan><tspan x="23" y="0" letter-spacing=".0228em">a</tspan><tspan x="34" y="0" letter-spacing=".01023em">li</tspan><tspan x="44" y="0" letter-spacing=".00591em">z</tspan><tspan x="53" y="0" letter-spacing=".0228em">a</tspan><tspan x="64" y="0" letter-spacing=".01285em">r</tspan><tspan x="72" y="0" letter-spacing=".00339em"> </tspan><tspan x="77" y="0" letter-spacing="-.02506em">o</tspan><tspan x="88" y="0" letter-spacing=".01781em">u</tspan><tspan x="100" y="0" letter-spacing=".00339em"> </tspan><tspan x="105" y="0" letter-spacing=".0228em">a</tspan><tspan x="116" y="0" letter-spacing="-.02154em">g</tspan><tspan x="126" y="0" letter-spacing=".01791em">en</tspan><tspan x="149" y="0" letter-spacing=".01879em">d</tspan><tspan x="161" y="0" letter-spacing=".0228em">a</tspan><tspan x="172" y="0" letter-spacing=".01285em">r</tspan><tspan x="180" y="0" letter-spacing=".00339em"> </tspan><tspan x="185" y="0" letter-spacing="-.00239em">c</tspan><tspan x="194" y="0" letter-spacing="-.02506em">o</tspan><tspan x="205" y="0" letter-spacing=".01781em">n</tspan><tspan x="217" y="0" letter-spacing="-.00337em">s</tspan><tspan x="226" y="0" letter-spacing=".01781em">u</tspan><tspan x="238" y="0" letter-spacing=".01023em">l</tspan><tspan x="243" y="0" letter-spacing=".01539em">t</tspan><tspan x="250" y="0" letter-spacing=".0228em">a</tspan><tspan x="261" y="0" letter-spacing=".00339em"> </tspan><tspan x="266" y="0" letter-spacing="-.0231em">P</tspan><tspan x="277" y="0" letter-spacing="-.01706em">N</tspan><tspan x="291" y="0" letter-spacing="-.0231em">P</tspan></text>
    <g>
      <rect x="259.21219" y="737.79174" width="246" height="61.3816" rx="16.42056" ry="16.42056" fill="#c6c6c6"/>
      <rect x="255.21219" y="733.79174" width="246" height="61.3816" rx="16.42056" ry="16.42056" fill="#e5e5e5"/>
    </g>
    <text transform="translate(281.78162 757.19222)" font-family="OpenSans, &apos;Open Sans&apos;" font-size="19"><tspan x="0" y="0" letter-spacing=".01341em">R</tspan><tspan x="12" y="0" letter-spacing=".01791em">e</tspan><tspan x="23" y="0" letter-spacing=".0228em">a</tspan><tspan x="34" y="0" letter-spacing=".01023em">li</tspan><tspan x="44" y="0" letter-spacing=".00591em">z</tspan><tspan x="53" y="0" letter-spacing=".0228em">a</tspan><tspan x="64" y="0" letter-spacing=".01285em">r</tspan><tspan x="72" y="0" letter-spacing=".00339em"> </tspan><tspan x="77" y="0" letter-spacing="-.02506em">o</tspan><tspan x="88" y="0" letter-spacing=".01781em">u</tspan><tspan x="100" y="0" letter-spacing=".00339em"> </tspan><tspan x="105" y="0" letter-spacing=".0228em">a</tspan><tspan x="116" y="0" letter-spacing="-.02154em">g</tspan><tspan x="126" y="0" letter-spacing=".01791em">en</tspan><tspan x="149" y="0" letter-spacing=".01879em">d</tspan><tspan x="161" y="0" letter-spacing=".0228em">a</tspan><tspan x="172" y="0" letter-spacing=".01285em">r</tspan><tspan x="180" y="0" letter-spacing=".00339em"> </tspan><tspan x="31.5" y="31" letter-spacing="-.00239em">c</tspan><tspan x="40.5" y="31" letter-spacing="-.02506em">o</tspan><tspan x="51.5" y="31" letter-spacing=".01781em">n</tspan><tspan x="63.5" y="31" letter-spacing="-.00337em">s</tspan><tspan x="72.5" y="31" letter-spacing=".01781em">u</tspan><tspan x="84.5" y="31" letter-spacing=".01023em">l</tspan><tspan x="89.5" y="31" letter-spacing=".01539em">t</tspan><tspan x="96.5" y="31" letter-spacing=".0228em">a</tspan><tspan x="107.5" y="31" letter-spacing=".00339em"> </tspan><tspan x="112.5" y="31" letter-spacing="-.0231em">P</tspan><tspan x="123.5" y="31" letter-spacing="-.01706em">N</tspan><tspan x="137.5" y="31" letter-spacing="-.0231em">P</tspan></text>
    <g>
      <path d="M80.18291,433.52115v164.98026c0,2.77234,2.2474,5.01971,5.0197,5.01971h8.0946" fill="none" stroke="#565656" stroke-linecap="round" stroke-linejoin="round"/>
      <polygon points="91.31577 606.42639 102.15659 603.52112 91.31577 600.61584 91.31577 606.42639" fill="#565656"/>
    </g>
    <g>
      <path d="M80.18291,590.52112v69.98029c0,2.77234,2.2474,5.01971,5.0197,5.01971h8.0946" fill="none" stroke="#565656" stroke-linecap="round" stroke-linejoin="round"/>
      <polygon points="91.31577 668.42639 102.15659 665.52112 91.31577 662.61584 91.31577 668.42639" fill="#565656"/>
    </g>
    <g>
      <line x1="384.35894" y1="338.98965" x2="384.35894" y2="363.25967" fill="none" stroke="#565656" stroke-miterlimit="10"/>
      <polygon points="381.45367 361.27822 384.35894 372.11904 387.26422 361.27822 381.45367 361.27822" fill="#565656"/>
    </g>
    <g>
      <path d="M80.18291,438.52115v84.98026c0,2.77234,2.2474,5.01971,5.0197,5.01971h8.0946" fill="none" stroke="#565656" stroke-linecap="round" stroke-linejoin="round"/>
      <polygon points="91.31577 531.42639 102.15659 528.52112 91.31577 525.61584 91.31577 531.42639" fill="#565656"/>
    </g>
    <g>
      <line x1="252.29852" y1="235.96477" x2="252.29852" y2="243.9784" fill="none" stroke="#565656" stroke-linecap="round" stroke-linejoin="round"/>
      <g>
        <path d="M120.923,258.91049v-3.51891c0-6.16507,4.76784-11.16284,10.64926-11.16284h242.13745c5.88144,0,10.64929,4.99777,10.64929,11.16284v3.51891" fill="none" stroke="#565656" stroke-miterlimit="10"/>
        <polygon points="123.82828 256.92905 120.923 267.76987 118.01774 256.92905 123.82828 256.92905" fill="#565656"/>
        <polygon points="381.45374 256.92905 384.35901 267.76987 387.26428 256.92905 381.45374 256.92905" fill="#565656"/>
      </g>
    </g>
    <g>
      <g>
        <line x1="120.58052" y1="338.46573" x2="120.58052" y2="360.62" fill="none" stroke="#565656" stroke-miterlimit="10"/>
        <polygon points="117.67525 358.63855 120.58052 369.47937 123.48579 358.63855 117.67525 358.63855" fill="#565656"/>
      </g>
      <g>
        <path d="M120.58052,346.72971H39.85427c-5.88143,0-10.64927,4.99777-10.64927,11.16284v400.69162c0,5.34979,4.33686,9.68665,9.68665,9.68665h1.37129" fill="none" stroke="#565656" stroke-miterlimit="10"/>
        <polygon points="38.2815 771.17609 49.12232 768.27081 38.2815 765.36554 38.2815 771.17609" fill="#565656"/>
      </g>
    </g>
    <g>
      <rect x="286.5" y="379.46573" width="199" height="99.3816" rx="16.42056" ry="16.42056" fill="#c6c6c6"/>
      <rect x="282.5" y="375.46573" width="199" height="99.3816" rx="16.42056" ry="16.42056" fill="#e5e5e5"/>
    </g>
    <g>
      <line x1="217.95033" y1="768.27082" x2="237.25581" y2="768.27082" fill="none" stroke="#565656" stroke-miterlimit="10"/>
      <polygon points="235.27437 771.1761 246.11519 768.27082 235.27437 765.36555 235.27437 771.1761" fill="#565656"/>
    </g>
  </g>
  <g id="Layer_3">
    <text transform="translate(299.8797 400.58395)" font-family="OpenSans, &apos;Open Sans&apos;" font-size="19"><tspan x="0" y="0" letter-spacing=".01067em">O</tspan><tspan x="15" y="0" letter-spacing=".01285em">r</tspan><tspan x="23" y="0" letter-spacing=".01023em">i</tspan><tspan x="28" y="0" letter-spacing=".01791em">en</tspan><tspan x="51" y="0" letter-spacing=".01539em">t</tspan><tspan x="58" y="0" letter-spacing=".0228em">a</tspan><tspan x="69" y="0" letter-spacing="-.00239em">ç</tspan><tspan x="78" y="0" letter-spacing="-.02506em">õ</tspan><tspan x="89" y="0" letter-spacing=".01791em">e</tspan><tspan x="100" y="0" letter-spacing="-.00337em">s</tspan><tspan x="109" y="0" letter-spacing=".00339em"> </tspan><tspan x="114" y="0" letter-spacing="-.00337em">s</tspan><tspan x="123" y="0" letter-spacing="-.02506em">o</tspan><tspan x="134" y="0" letter-spacing=".01879em">b</tspan><tspan x="146" y="0" letter-spacing=".01285em">r</tspan><tspan x="154" y="0" letter-spacing=".01791em">e</tspan><tspan x="165" y="0" letter-spacing=".00339em"> </tspan><tspan x="15.5" y="31" letter-spacing="-.00337em">s</tspan><tspan x="24.5" y="31" letter-spacing=".0228em">a</tspan><tspan x="35.5" y="31" letter-spacing=".01781em">ú</tspan><tspan x="47.5" y="31" letter-spacing=".01879em">d</tspan><tspan x="59.5" y="31" letter-spacing=".01791em">e</tspan><tspan x="70.5" y="31" letter-spacing=".00339em"> </tspan><tspan x="75.5" y="31" letter-spacing="-.00337em">s</tspan><tspan x="84.5" y="31" letter-spacing=".01791em">e</tspan><tspan x="95.5" y="31" letter-spacing=".00239em">x</tspan><tspan x="105.5" y="31" letter-spacing=".01781em">u</tspan><tspan x="117.5" y="31" letter-spacing=".0228em">a</tspan><tspan x="128.5" y="31" letter-spacing=".01023em">l</tspan><tspan x="133.5" y="31" letter-spacing=".00339em"> </tspan><tspan x="138.5" y="31" letter-spacing=".01791em">e</tspan><tspan x="149.5" y="31" letter-spacing=".00339em"> </tspan><tspan x="-1" y="62" letter-spacing="-.00337em">s</tspan><tspan x="8" y="62" letter-spacing=".0228em">a</tspan><tspan x="19" y="62" letter-spacing=".01781em">ú</tspan><tspan x="31" y="62" letter-spacing=".01879em">d</tspan><tspan x="43" y="62" letter-spacing=".01791em">e</tspan><tspan x="54" y="62" letter-spacing=".00339em"> </tspan><tspan x="59" y="62" letter-spacing=".01285em">r</tspan><tspan x="67" y="62" letter-spacing=".01791em">e</tspan><tspan x="78" y="62" letter-spacing=".01879em">p</tspan><tspan x="90" y="62" letter-spacing=".01285em">r</tspan><tspan x="98" y="62" letter-spacing="-.02506em">o</tspan><tspan x="109" y="62" letter-spacing=".01879em">d</tspan><tspan x="121" y="62" letter-spacing=".01781em">u</tspan><tspan x="133" y="62" letter-spacing=".01539em">t</tspan><tspan x="140" y="62" letter-spacing=".01023em">i</tspan><tspan x="145" y="62" letter-spacing=".02534em">v</tspan><tspan x="155" y="62" letter-spacing=".0228em">a</tspan></text>
  </g>
  <g id="id">
    <g>
      <circle cx="486.31046" cy="19.97574" r="10.81556" fill="#f7f7f7" stroke="#b7b7b7" stroke-miterlimit="10"/>
      <path d="M487.57508,19.97574l3.5338-3.53419c.34936-.34936.34936-.91532,0-1.26467s-.91532-.34936-1.26467,0l-3.53375,3.53413-3.53375-3.53413c-.34936-.34936-.91532-.34936-1.26467,0s-.34936.91532,0,1.26467l3.5338,3.53419-3.5338,3.53419c-.34936.34936-.34936.91532,0,1.26467.17468.17468.40351.26202.63234.26202s.45766-.08734.63234-.26202l3.53375-3.53413,3.53375,3.53413c.17468.17468.40351.26202.63234.26202s.45766-.08734.63234-.26202c.34936-.34936.34936-.91532,0-1.26467l-3.5338-3.53419Z" fill="#b7b7b7"/>
    </g>
  </g>
</svg>